<svg width="512" height="458" viewBox="0 0 512 458" fill="none" xmlns="http://www.w3.org/2000/svg">
<mask id="mask0_849_699" style="mask-type:luminance" maskUnits="userSpaceOnUse" x="27" y="0" width="455" height="455">
<path d="M27.6689 0.926758H481.513V454.771H27.6689V0.926758Z" fill="white"/>
</mask>
<g mask="url(#mask0_849_699)">
<mask id="mask1_849_699" style="mask-type:luminance" maskUnits="userSpaceOnUse" x="27" y="0" width="456" height="457">
<path d="M255.319 0.926758C129.589 0.926758 27.6689 102.846 27.6689 228.577C27.6689 354.307 129.589 456.227 255.319 456.227C381.05 456.227 482.969 354.307 482.969 228.577C482.969 102.846 381.05 0.926758 255.319 0.926758Z" fill="white"/>
</mask>
<g mask="url(#mask1_849_699)">
<path fill-rule="evenodd" clip-rule="evenodd" d="M24.0671 228.577C24.0671 100.858 127.599 -2.6748 255.319 -2.6748C383.039 -2.6748 486.571 100.858 486.571 228.577C486.571 356.297 383.039 459.829 255.319 459.829C127.599 459.829 24.0671 356.297 24.0671 228.577ZM255.319 4.52904C131.578 4.52904 31.271 104.836 31.271 228.577C31.271 352.319 131.578 452.626 255.319 452.626C379.061 452.626 479.368 352.319 479.368 228.577C479.368 104.836 379.061 4.52904 255.319 4.52904Z" fill="black"/>
</g>
</g>
<mask id="mask2_849_699" style="mask-type:luminance" maskUnits="userSpaceOnUse" x="0" y="197" width="62" height="62">
<path d="M0 197.73H61.2388V258.969H0V197.73Z" fill="white"/>
</mask>
<g mask="url(#mask2_849_699)">
<path d="M61.6359 228.558C41.078 234.232 36.4823 238.827 30.8085 259.366C25.1537 238.827 20.5579 234.232 0 228.558C20.5579 222.884 25.1537 218.288 30.8085 197.73C36.4823 218.288 41.078 222.884 61.6359 228.558Z" fill="black"/>
</g>
<mask id="mask3_849_699" style="mask-type:luminance" maskUnits="userSpaceOnUse" x="448" y="197" width="63" height="62">
<path d="M448.965 197.73H510.203V258.969H448.965V197.73Z" fill="white"/>
</mask>
<g mask="url(#mask3_849_699)">
<path d="M510.601 228.558C490.043 234.232 485.447 238.827 479.773 259.366C474.118 238.827 469.523 234.232 448.965 228.558C469.523 222.884 474.118 218.288 479.773 197.73C485.447 218.288 490.043 222.884 510.601 228.558Z" fill="black"/>
</g>
<path fill-rule="evenodd" clip-rule="evenodd" d="M153.275 76.795C153.275 77.1103 153.103 77.3683 152.893 77.3683C152.649 77.3683 152.511 80.5534 152.511 86.1596C152.511 91.7658 152.649 94.951 152.893 94.951C153.103 94.951 153.282 95.1662 153.291 95.4288C153.305 95.871 241.539 147.048 243.724 147.881C245.594 148.595 245.775 147.744 245.775 138.245C245.775 130.635 245.702 129.624 245.106 128.989C244.739 128.597 225.001 117.062 201.245 103.356C177.49 89.6494 157.234 77.9371 156.232 77.3286C154.21 76.0997 153.275 75.9311 153.275 76.795ZM152.906 108.686C152.667 109.133 152.511 112.836 152.511 118.051C152.511 125.463 152.591 126.676 153.084 126.676C153.399 126.676 153.657 126.9 153.657 127.174C153.657 127.447 156.366 129.238 159.678 131.154C211.224 160.977 244.042 179.807 244.474 179.807C244.769 179.807 245.011 179.549 245.011 179.233C245.011 178.918 245.183 178.66 245.393 178.66C245.637 178.66 245.775 175.545 245.775 170.079C245.775 161.705 245.755 161.477 244.915 160.591C243.916 159.536 154.679 107.947 153.854 107.947C153.55 107.947 153.124 108.279 152.906 108.686ZM153.111 140.273C152.601 140.784 152.511 142.175 152.511 149.578C152.511 157.391 152.579 158.343 153.18 158.869C154.146 159.715 214.873 194.715 215.361 194.707C216.071 194.695 230.578 186.143 230.984 185.496C231.198 185.157 231.278 184.633 231.162 184.331C230.945 183.766 154.894 139.672 154.136 139.672C153.903 139.672 153.442 139.942 153.111 140.273ZM153.275 171.589C153.275 171.904 153.103 172.162 152.893 172.162C152.649 172.162 152.511 175.409 152.511 181.139V190.116L153.944 191.045C157.854 193.58 187.381 210.385 187.926 210.385C188.271 210.385 191.79 208.536 195.747 206.276C202.599 202.362 202.94 202.112 202.952 200.998C202.96 200.355 202.75 199.564 202.488 199.241C201.95 198.58 154.27 171.015 153.664 171.015C153.45 171.015 153.275 171.273 153.275 171.589ZM230.681 199.679L189.785 223.329L188.635 222.635C183.374 219.459 154.527 202.979 153.978 202.835C153.51 202.713 153.275 202.857 153.275 203.269C153.275 203.609 153.1 203.887 152.886 203.887C152.63 203.887 152.532 206.993 152.599 212.965L152.702 222.043L171.049 232.654C181.467 238.679 189.679 243.197 190.051 243.109C190.412 243.024 212.385 230.438 238.881 215.141L287.056 187.328V185.917V184.506L279.65 180.245C275.577 177.901 272.093 175.994 271.91 176.007C271.726 176.019 253.173 186.672 230.681 199.679ZM244.265 223.498L189.816 254.946L172.078 244.706C162.322 239.074 154.101 234.466 153.808 234.466C153.515 234.466 153.275 234.724 153.275 235.039C153.275 235.354 153.103 235.612 152.893 235.612C152.649 235.612 152.511 238.727 152.511 244.193C152.511 252.568 152.531 252.795 153.371 253.68C154.12 254.469 189.205 274.982 189.806 274.982C189.931 274.982 204.081 266.872 221.249 256.959C238.417 247.046 266.311 230.944 283.234 221.177C300.157 211.411 314.305 203.154 314.673 202.83C315.54 202.065 315.517 201.816 314.482 200.735C313.367 199.571 300.289 192.036 299.396 192.044C299.021 192.048 274.212 206.202 244.265 223.498ZM259.154 246.55C222.259 267.888 191.54 285.613 190.891 285.939L189.71 286.532L172.105 276.362C162.422 270.768 154.23 266.191 153.901 266.191C152.71 266.191 152.511 267.612 152.511 276.12C152.511 283.641 152.584 284.648 153.18 285.282C153.547 285.674 161.807 290.588 171.535 296.203C184.272 303.555 189.465 306.365 190.096 306.244C191.389 305.997 340.987 219.571 342.05 218.456C342.682 217.794 342.854 217.338 342.615 216.958C342.172 216.257 327.567 207.75 326.809 207.752C326.493 207.753 296.048 225.212 259.154 246.55ZM329.675 237.464C267.938 273.114 241.22 288.542 216.6 302.755C190.719 317.695 189.878 318.147 188.888 317.634C188.327 317.343 180.401 312.788 171.275 307.511C162.149 302.234 154.464 297.916 154.197 297.916C153.93 297.916 153.442 298.186 153.111 298.517C152.601 299.028 152.511 300.419 152.511 307.822C152.511 315.64 152.579 316.585 153.18 317.099C154.367 318.114 189.237 338.051 189.825 338.051C190.309 338.051 218.1 322.064 344.391 249.14C353.957 243.616 361.838 238.829 361.906 238.501C361.974 238.174 362.276 237.906 362.575 237.906C363.015 237.906 363.121 237.084 363.121 233.676C363.121 231.35 362.952 229.132 362.747 228.748C362.253 227.825 355.285 223.761 354.212 223.771C353.751 223.775 342.709 229.937 329.675 237.464ZM335.409 265.764C321.324 273.915 287.955 293.194 261.256 308.605C234.557 324.016 210.347 337.995 207.457 339.67C202.205 342.713 202.201 342.717 202.201 344.125V345.534L209.355 349.659C214.502 352.627 216.781 353.744 217.478 353.641C218.01 353.561 235.388 343.713 256.096 331.756C276.803 319.798 309.029 301.192 327.71 290.407C346.391 279.623 362 270.424 362.398 269.966C363.06 269.203 363.121 268.423 363.121 260.781C363.121 252.94 363.074 252.384 362.356 251.666C361.936 251.246 361.463 250.911 361.305 250.922C361.148 250.934 349.494 257.613 335.409 265.764ZM295.646 320.387C259.691 341.151 229.866 358.547 229.367 359.046C228.708 359.704 228.559 360.11 228.823 360.528C229.238 361.185 243.799 369.734 244.547 369.759C244.817 369.769 262.362 359.773 283.535 347.548C304.707 335.323 330.975 320.17 341.907 313.876C352.839 307.581 362.084 302.084 362.452 301.66C363.045 300.977 363.121 299.942 363.121 292.523C363.121 284.665 363.074 284.109 362.356 283.391C361.936 282.971 361.463 282.629 361.305 282.631C361.148 282.633 331.601 299.624 295.646 320.387ZM308.987 344.294C280.58 360.727 257.059 374.408 256.717 374.696C255.898 375.388 255.931 375.679 256.956 376.76C258.382 378.266 271.353 385.543 272.292 385.363C272.746 385.276 284.382 378.701 298.148 370.751C311.914 362.801 331.82 351.305 342.385 345.203C352.949 339.102 361.592 333.89 361.592 333.622C361.592 333.353 361.936 333.024 362.356 332.89C363.09 332.658 363.121 332.312 363.121 324.265C363.121 316.391 363.074 315.835 362.356 315.117C361.936 314.696 361.377 314.367 361.114 314.384C360.851 314.402 337.394 327.861 308.987 344.294Z" fill="black"/>
</svg>
