<svg width="512" height="458" viewBox="0 0 512 458" fill="none" xmlns="http://www.w3.org/2000/svg">
<mask id="mask0_849_698" style="mask-type:luminance" maskUnits="userSpaceOnUse" x="27" y="0" width="458" height="458">
<path d="M27.5654 0H484.824V457.245H27.5654V0Z" fill="white"/>
</mask>
<g mask="url(#mask0_849_698)">
<mask id="mask1_849_698" style="mask-type:luminance" maskUnits="userSpaceOnUse" x="27" y="0" width="458" height="458">
<path d="M256.26 0C129.951 0 27.5654 102.383 27.5654 228.688C27.5654 354.993 129.951 457.375 256.26 457.375C382.569 457.375 484.954 354.993 484.954 228.688C484.954 102.383 382.569 0 256.26 0Z" fill="white"/>
</mask>
<g mask="url(#mask1_849_698)">
<path fill-rule="evenodd" clip-rule="evenodd" d="M22.0229 228.688C22.0229 99.322 126.89 -5.54199 256.26 -5.54199C385.63 -5.54199 490.497 99.322 490.497 228.688C490.497 358.054 385.63 462.918 256.26 462.918C126.89 462.918 22.0229 358.054 22.0229 228.688ZM256.26 5.54279C133.012 5.54279 33.1081 105.444 33.1081 228.688C33.1081 351.932 133.012 451.833 256.26 451.833C379.508 451.833 479.412 351.932 479.412 228.688C479.412 105.444 379.508 5.54279 256.26 5.54279Z" fill="black"/>
</g>
</g>
<mask id="mask2_849_698" style="mask-type:luminance" maskUnits="userSpaceOnUse" x="0" y="201" width="61" height="62">
<path d="M0 201.269H60.9573V262.238H0V201.269Z" fill="white"/>
</mask>
<g mask="url(#mask2_849_698)">
<path d="M61.9113 232.23C41.2694 237.926 36.6582 242.551 30.9629 263.192C25.2531 242.551 20.6419 237.926 0 232.23C20.6419 226.535 25.2531 221.924 30.9629 201.269C36.6582 221.924 41.2694 226.535 61.9113 232.23Z" fill="black"/>
</g>
<mask id="mask3_849_698" style="mask-type:luminance" maskUnits="userSpaceOnUse" x="451" y="201" width="61" height="62">
<path d="M451.028 201.269H512V262.238H451.028V201.269Z" fill="white"/>
</mask>
<g mask="url(#mask3_849_698)">
<path d="M512.954 232.23C492.312 237.926 487.687 242.551 481.991 263.192C476.296 242.551 471.67 237.926 451.028 232.23C471.67 226.535 476.296 221.924 481.991 201.269C487.687 221.924 492.312 226.535 512.954 232.23Z" fill="black"/>
</g>
<path d="M186.089 192.635L186.537 192.202L190.599 175.955L190.05 175.622C185.872 183.529 184.89 187.706 178.182 187.706H158.307V187.475L183.675 171.777C194.43 165.085 202.785 154.316 206.298 140.15C211.126 120.94 206.413 100.516 187.622 100.516C181.261 100.516 158.856 109.304 151.946 137.086C147.104 156.296 151.831 176.721 170.608 176.721C171.157 176.721 171.706 176.605 172.588 176.504V176.721L148.318 191.985L148.202 192.635H186.089ZM173.788 171.56C158.307 171.56 152.163 154.099 157.107 134.441C162.484 112.918 174.236 105.676 184.225 105.676C199.822 105.676 205.965 123.137 201.021 142.796C195.644 164.319 183.892 171.56 173.788 171.56Z" fill="black"/>
<path d="M240.555 171.444L254.172 118.309H248.129C239.89 142.679 226.822 171.993 219.364 171.993C216.95 171.993 212.772 168.929 217.383 156.079L227.271 128.73C228.254 117.644 226.172 117.21 224.524 117.21C220.347 117.21 210.141 128.398 205.313 132.358L205.53 132.691L223.859 121.489L211.24 156.295C205.863 171.126 209.924 176.937 214.969 176.937C226.504 176.937 239.456 146.741 245.715 128.73H247.031L235.611 165.084C234.628 176.171 236.71 176.604 238.358 176.604C242.535 176.604 252.74 165.416 257.583 161.456L257.352 161.123L240.555 171.444Z" fill="black"/>
<path d="M293.929 126.536C293.929 123.572 292.282 117.313 282.394 117.313C279.099 117.313 263.834 122.373 257.575 144.879C251.981 165.086 259.223 176.722 271.192 176.722C274.27 176.722 278.766 173.976 286.023 169.148L285.473 168.483C282.062 170.463 280.313 172.227 275.702 172.227C264.051 172.227 260.437 161.024 261.854 148.507C277.017 145.861 293.929 140.484 293.929 126.536ZM279.214 121.925C286.124 121.925 287.005 126.536 287.005 129.282C287.005 141.8 270.642 145.645 262.186 146.743C262.403 144.994 262.851 143.115 263.285 141.25C267.896 123.471 275.47 121.925 279.214 121.925Z" fill="black"/>
<path d="M301.286 176.836C310.061 176.836 315.886 173.093 318.965 164.637C322.246 155.53 317.086 148.939 310.393 143.779L309.295 143.012C303.585 138.618 298.974 132.244 301.503 125.667C302.92 121.374 307.647 119.292 312.041 119.292C323.677 119.292 325.108 127.849 322.03 140.7H322.579L328.621 120.391C322.694 117.211 318.416 116.763 315.554 116.763C306.765 116.763 300.289 121.157 297.991 127.3C294.146 137.736 299.523 143.663 305.233 148.722L306.114 149.488C312.157 154.648 316.985 161.341 314.354 168.265C312.59 173.093 308.312 174.74 303.7 174.74C296.227 174.74 287.005 171.56 290.734 153.434H290.084L284.808 174.639C288.537 175.189 295.244 176.836 301.286 176.836Z" fill="black"/>
<path d="M339.165 176.721C344.441 176.721 359.041 167.166 363.869 144.761C368.263 124.568 360.905 116.763 351.249 116.763C345.973 116.763 331.475 126.216 326.43 148.606C322.137 168.93 329.494 176.721 339.165 176.721ZM341.463 171.994C332.906 171.994 328.728 159.924 331.807 145.094C336.086 125.334 343.776 121.489 348.17 121.489C357.609 121.489 361.787 133.675 358.708 148.505C354.429 168.265 346.624 171.994 341.463 171.994Z" fill="black"/>
<path d="M266.472 172.873H265.807L245.266 177.6L245.049 178.25L259.215 177.6L253.506 200.655C250.658 199.224 247.145 198.458 243.618 198.458C228.469 198.458 215.619 228.22 215.619 245.464C215.619 252.489 217.816 257.433 223.974 257.433C235.494 257.433 241.103 236.011 249.993 209.328H251.308L242.202 245.782C241.204 256.884 243.3 257.317 244.948 257.317C249.111 257.317 259.331 246.115 264.159 242.169L263.942 241.836L245.599 253.039L266.472 173.206L266.356 173.321L266.472 172.873ZM227.371 252.374C223.858 252.374 222.326 248.428 222.326 242.602C222.326 227.772 230.016 201.204 240.337 201.204C243.517 201.204 246.914 202.635 249.66 205.165C234.295 251.723 231.216 252.374 227.371 252.374Z" fill="black"/>
<path d="M300.293 207.13C300.293 204.167 298.646 197.908 288.758 197.908C285.463 197.908 270.198 202.967 263.939 225.473C258.345 245.681 265.587 257.317 277.556 257.317C280.635 257.317 285.13 254.571 292.387 249.743L291.837 249.078C288.426 251.058 286.677 252.822 282.066 252.822C270.415 252.822 266.801 241.619 268.218 229.101C283.381 226.456 300.293 221.079 300.293 207.13ZM285.578 202.519C292.488 202.519 293.369 207.13 293.369 209.877C293.369 222.394 277.006 226.239 268.55 227.338C268.767 225.589 269.215 223.71 269.649 221.845C274.26 204.066 281.834 202.519 285.578 202.519Z" fill="black"/>
<path d="M175.328 279.17C177.858 268.733 171.165 262.691 159.63 262.691H127.67V263.356L136.458 266.984L120.095 332.536L110.771 336.15V336.815H136.357C157.649 336.815 167.537 325.829 170.066 315.726C173.247 302.991 164.906 298.279 158.199 297.831L158.416 297.397C157.866 297.614 172.582 290.256 175.328 279.17ZM135.143 297.614L143.267 264.889H155.452C167.103 264.889 170.5 271.595 168.303 280.702C165.455 291.688 159.297 297.397 148.095 297.498L135.143 297.614ZM162.926 316.174C159.63 329.458 151.289 334.184 136.675 334.502C135.909 334.502 131.182 334.401 125.92 334.401L134.709 299.479H145.464C161.827 299.479 165.773 304.856 162.926 316.174Z" fill="black"/>
<path d="M186.753 337.913C192.029 337.913 206.629 328.359 211.457 305.954C215.851 285.761 208.494 277.955 198.838 277.955C193.561 277.955 179.063 287.408 174.018 309.799C169.725 330.122 177.083 337.913 186.753 337.913ZM189.051 333.186C180.494 333.186 176.316 321.117 179.395 306.286C183.674 286.527 191.364 282.682 195.759 282.682C205.198 282.682 209.375 294.867 206.296 309.698C202.018 329.457 194.212 333.186 189.051 333.186Z" fill="black"/>
<path d="M246.487 332.636L260.104 279.501H254.062C245.822 303.871 232.755 333.186 225.296 333.186C222.882 333.186 218.704 330.121 223.316 317.271L233.203 289.923C234.186 278.836 232.104 278.402 230.456 278.402C226.279 278.402 216.074 289.59 211.246 293.551L211.462 293.883L229.792 282.681L217.172 317.488C211.795 332.318 215.857 338.129 220.902 338.129C232.437 338.129 245.389 307.933 251.648 289.923H252.963L241.544 326.276C240.561 337.363 242.642 337.797 244.29 337.797C248.468 337.797 258.673 326.609 263.515 322.648L263.284 322.316L246.487 332.636Z" fill="black"/>
<path d="M285.912 253.469H285.247L264.721 258.195L264.49 258.846L278.656 258.195L261.642 326.378C260.659 337.479 262.741 337.913 264.389 337.913C268.566 337.913 278.772 326.711 283.6 322.765L283.383 322.432L265.039 333.634L285.912 253.801L285.797 253.917L285.912 253.469Z" fill="black"/>
<path d="M330.827 253.469H330.162L309.621 258.195L309.404 258.846L323.57 258.195L317.861 281.251C315.013 279.82 311.5 279.054 307.973 279.054C292.824 279.054 279.974 308.816 279.974 326.06C279.974 333.085 282.171 338.029 288.329 338.029C299.849 338.029 305.458 316.607 314.348 289.923H315.663L306.557 326.378C305.559 337.479 307.655 337.913 309.303 337.913C313.466 337.913 323.686 326.711 328.514 322.765L328.297 322.432L309.954 333.634L330.827 253.801L330.711 253.917L330.827 253.469ZM291.726 332.97C288.213 332.97 286.681 329.023 286.681 323.198C286.681 308.368 294.371 281.8 304.692 281.8C307.872 281.8 311.269 283.231 314.015 285.761C298.65 332.319 295.571 332.97 291.726 332.97Z" fill="black"/>
<path d="M364.648 287.725C364.648 284.762 363 278.503 353.113 278.503C349.817 278.503 334.553 283.562 328.294 306.068C322.699 326.276 329.941 337.912 341.91 337.912C344.989 337.912 349.485 335.165 356.741 330.337L356.192 329.672C352.781 331.653 351.031 333.416 346.42 333.416C334.769 333.416 331.156 322.214 332.572 309.696C347.736 307.051 364.648 301.674 364.648 287.725ZM349.933 283.114C356.842 283.114 357.724 287.725 357.724 290.471C357.724 302.989 341.361 306.834 332.905 307.933C333.122 306.184 333.57 304.305 334.003 302.44C338.615 284.661 346.189 283.114 349.933 283.114Z" fill="black"/>
<path d="M408.677 282.348C407.03 283.446 405.598 284.328 403.951 284.328C400.438 284.328 396.81 278.619 394.396 278.619C387.486 278.619 375.402 310.462 370.906 326.377H369.576L380.129 290.038C381.111 278.951 379.03 278.503 377.382 278.503C373.205 278.503 362.999 289.705 358.157 293.666L358.388 293.984L375.069 283.779L362.551 336.813H368.593C376.067 312.443 387.92 284.545 392.863 284.545C395.162 284.545 398.241 288.939 400.004 288.939C401.537 288.939 406.148 284.545 408.894 282.782L408.677 282.348Z" fill="black"/>
</svg>
