<svg xmlns="http://www.w3.org/2000/svg" xmlns:xlink="http://www.w3.org/1999/xlink" width="52" zoomAndPan="magnify" viewBox="0 0 39 38.999999" height="52" preserveAspectRatio="xMidYMid meet" version="1.0"><defs><clipPath id="ab231f28c2"><path d="M 0.3125 0.71875 L 38.5625 0.71875 L 38.5625 38.96875 L 0.3125 38.96875 Z M 0.3125 0.71875 " clip-rule="nonzero"/></clipPath><clipPath id="eeb23afe03"><path d="M 6.113281 6.519531 L 32.363281 6.519531 L 32.363281 32.769531 L 6.113281 32.769531 Z M 6.113281 6.519531 " clip-rule="nonzero"/></clipPath></defs><g clip-path="url(#ab231f28c2)"><path fill="#fdf4ea" d="M 38.457031 19.789062 C 25.738281 23.300781 22.894531 26.144531 19.382812 38.863281 C 15.875 26.144531 13.027344 23.300781 0.3125 19.789062 C 13.027344 16.28125 15.875 13.433594 19.382812 0.71875 C 22.894531 13.433594 25.738281 16.28125 38.457031 19.789062 Z M 38.457031 19.789062 " fill-opacity="1" fill-rule="nonzero"/></g><g clip-path="url(#eeb23afe03)"><path fill="#f3a711" d="M 32.65625 19.792969 C 23.808594 22.234375 21.828125 24.214844 19.386719 33.0625 C 16.941406 24.214844 14.960938 22.234375 6.113281 19.792969 C 14.960938 17.347656 16.941406 15.371094 19.386719 6.519531 C 21.828125 15.371094 23.808594 17.347656 32.65625 19.792969 Z M 32.65625 19.792969 " fill-opacity="1" fill-rule="nonzero"/></g></svg>