<svg width="472" height="189" viewBox="0 0 472 189" fill="none" xmlns="http://www.w3.org/2000/svg">
<path d="M76.6155 95.7074L2.12132 21.2132L21.2132 2.12132L115.86 96.7681L26.0691 186.559L6.97724 167.467L76.6155 97.8287L77.6762 96.7681L76.6155 95.7074Z" stroke="#013070" stroke-width="3"/>
<path d="M194.616 95.7074L120.121 21.2132L139.213 2.12132L233.86 96.7681L144.069 186.559L124.977 167.467L194.616 97.8287L195.676 96.7681L194.616 95.7074Z" stroke="#013070" stroke-width="3"/>
<path d="M312.616 95.7074L238.121 21.2132L257.213 2.12132L351.86 96.7681L262.069 186.559L242.977 167.467L312.616 97.8287L313.676 96.7681L312.616 95.7074Z" stroke="#013070" stroke-width="3"/>
<path d="M430.616 95.7074L356.121 21.2132L375.213 2.12132L469.86 96.7681L380.069 186.559L360.977 167.467L430.616 97.8287L431.676 96.7681L430.616 95.7074Z" stroke="#013070" stroke-width="3"/>
</svg>
