<svg width="520" height="284" viewBox="0 0 520 284" fill="none" xmlns="http://www.w3.org/2000/svg">
<rect x="124.195" y="55.8414" width="394.834" height="108.832" fill="#013070"/>
<path d="M172.324 122.545C172.324 126.19 169.246 129.187 165.602 129.187H157.907V115.904H165.602C169.246 115.904 172.324 118.982 172.324 122.545ZM168.517 99.5437C168.517 103.026 165.602 105.942 162.119 105.942H157.907V93.1454H162.119C165.602 93.1454 168.517 95.9801 168.517 99.5437ZM184.716 122.869C184.716 115.418 179.694 110.478 173.539 109.02C177.669 107.157 180.099 102.945 180.099 97.357C180.099 89.8247 174.106 83.5884 164.711 83.5884H145.759V138.663H168.031C178.56 138.663 184.716 132.345 184.716 122.869ZM236.937 111.045C236.937 119.549 229.243 127.324 220.739 127.324C212.235 127.324 204.541 119.549 204.541 111.045C204.541 102.54 212.235 94.8462 220.739 94.8462C229.243 94.8462 236.937 102.54 236.937 111.045ZM249.086 111.126C249.086 95.8991 235.966 82.7785 220.739 82.7785C205.513 82.7785 192.392 95.8991 192.392 111.126C192.392 126.352 205.513 139.473 220.739 139.473C235.966 139.473 249.086 126.352 249.086 111.126ZM292.946 83.5884V115.418C292.946 123.031 290.678 127.324 282.336 127.324C274.075 127.324 271.726 123.031 271.726 115.418V83.5884H259.577V117.2C259.577 131.859 268 139.473 282.336 139.473C296.671 139.473 305.094 131.859 305.094 117.2V83.5884H292.946ZM317.676 138.663H349.587V127.648H329.825V83.5884H317.676V138.663ZM373.338 127.486V94.8462H376.983C386.378 94.8462 392.695 101.973 392.695 111.126C392.695 120.278 386.297 127.486 376.983 127.486H373.338ZM361.351 83.5884V138.663H377.712C393.343 138.663 405.087 126.676 405.087 111.126C405.087 95.5752 393.262 83.5884 377.712 83.5884H361.351ZM448.722 127.648H428.96V116.552H447.912V105.537H428.96V94.6033H448.722V83.5884H416.812V138.663H448.722V127.648ZM474.613 118.982H474.694L487.815 138.663H503.203L487.41 118.415C494.375 116.714 499.963 110.559 499.963 101.245C499.963 90.7967 492.026 83.5884 483.117 83.5884H474.613H471.616H462.464V138.663H474.613V118.982ZM481.092 93.1454C484.656 93.1454 488.382 96.2231 488.382 101.245C488.382 106.509 484.656 109.425 481.092 109.425H474.613V93.1454H481.092Z" fill="white"/>
<path d="M175.551 221.853V176.244H165.49V204.682L149.796 176.244H139.735V221.853H149.796V193.414L165.49 221.853H175.551ZM210.448 204.414H198.912L204.68 188.183L210.448 204.414ZM227.484 221.853L208.972 176.244H200.454L181.943 221.853H192.741L196.028 212.664H213.399L216.685 221.853H227.484ZM247.113 185.366H260.124V176.244H224.04V185.366H237.052V221.853H247.113V185.366ZM276.547 221.853V176.244H266.486V221.853H276.547ZM321.789 198.981C321.789 206.024 315.417 212.463 308.374 212.463C301.332 212.463 294.96 206.024 294.96 198.981C294.96 191.939 301.332 185.567 308.374 185.567C315.417 185.567 321.789 191.939 321.789 198.981ZM331.849 199.048C331.849 186.439 320.984 175.573 308.374 175.573C295.765 175.573 284.899 186.439 284.899 199.048C284.899 211.658 295.765 222.523 308.374 222.523C320.984 222.523 331.849 211.658 331.849 199.048ZM376.018 221.853V176.244H365.957V204.682L350.262 176.244H340.202V221.853H350.262V193.414L365.957 221.853H376.018ZM410.915 204.414H399.378L405.146 188.183L410.915 204.414ZM427.951 221.853L409.439 176.244H400.921L382.409 221.853H393.208L396.494 212.664H413.866L417.152 221.853H427.951ZM434.353 221.853H460.779V212.731H444.413V176.244H434.353V221.853ZM486.887 214.743C481.923 214.743 477.631 212.261 477.363 206.829H467.168C467.235 217.962 476.424 222.926 486.484 222.926C495.807 222.926 505.398 218.968 505.398 208.237C505.398 190.866 479.039 196.701 479.039 188.585C479.039 185.165 482.997 183.823 485.814 183.823C490.844 183.823 493.594 185.366 494.13 190.128H503.856C503.52 179.732 495.069 175.573 485.679 175.573C477.363 175.573 468.643 180 468.643 189.39C468.643 206.225 495.002 200.524 495.002 209.377C495.002 213.469 490.039 214.743 486.887 214.743Z" fill="#013070"/>
<path d="M109.339 194.866L101.423 194.866L101.423 206.858L96.1834 202.666C91.8756 199.232 88.0336 195.506 82.0377 195.506C74.3536 195.506 69.1727 200.687 69.1727 208.371C69.1727 216.87 75.6925 221.295 83.3184 221.469L83.3184 213.261C79.1853 213.087 77.4389 211.166 77.4389 208.313C77.4389 205.694 79.1853 203.831 82.0377 203.831C84.7155 203.831 87.335 206.276 89.3143 207.847L109.339 223.507L109.339 194.866ZM77.0896 161.533C77.0896 155.77 84.599 154.373 89.7218 154.373C94.9609 154.373 102.121 156.003 102.121 161.533C102.121 167.18 95.0773 168.693 89.6053 168.693C84.599 168.693 77.0896 167.18 77.0896 161.533ZM110.038 161.533C110.038 150.124 97.9297 145.641 89.6635 145.641C82.5034 145.641 69.1727 149.425 69.1727 161.533C69.1727 173.642 82.5034 177.425 89.6635 177.425C97.9297 177.425 110.038 172.943 110.038 161.533ZM109.339 102.726L101.422 102.726L101.423 114.718L96.1834 110.527C91.8756 107.092 88.0336 103.367 82.0377 103.367C74.3536 103.367 69.1727 108.547 69.1727 116.232C69.1727 124.731 75.6925 129.155 83.3184 129.329L83.3184 121.121C79.1853 120.947 77.4389 119.026 77.4389 116.173C77.4389 113.554 79.1853 111.691 82.0377 111.691C84.7155 111.691 87.335 114.136 89.3143 115.708L109.339 131.367L109.339 102.726ZM97.6969 86.4498C106.778 86.0423 109.922 79.3479 109.922 71.8967C109.922 64.2126 105.148 57.9838 96.8819 57.9838C93.1563 57.9838 89.5471 59.4974 87.7425 63.3394C86.1708 61.1273 83.0273 59.7302 80.5824 59.7302C72.6072 59.7302 69.1727 65.6097 69.1727 72.7116C69.1727 79.5225 73.364 85.2856 81.0481 85.7513L81.0481 76.9612C78.3121 76.7283 76.8567 75.3312 76.8567 72.4788C76.8567 70.1503 78.2538 68.3457 80.5824 68.3457C83.0855 68.3457 85.0065 69.4517 85.0065 72.1295L85.0065 75.7387L91.7592 75.7387L91.7592 72.1295C91.7592 68.8696 93.3891 66.6575 96.8819 66.6575C99.7343 66.6575 102.063 68.8696 102.063 71.7802C102.063 74.9237 100.957 77.0194 97.6969 77.6597L97.6969 86.4498Z" fill="#013070"/>
<path d="M277.684 43.4427V32.0109C277.684 18.0326 266.352 6.70102 252.374 6.70102H32.3384C18.3602 6.70102 7.02856 18.0326 7.02856 32.0109V252.046C7.02856 266.024 18.3602 277.355 32.3384 277.355H252.374C266.352 277.355 277.684 266.024 277.684 252.046V235.038" stroke="#013070" stroke-width="12.6549" stroke-linejoin="round"/>
</svg>
