<svg width="3592" height="20" viewBox="0 0 3592 20" fill="none" xmlns="http://www.w3.org/2000/svg">
<g clip-path="url(#clip0_7_71)">
<path d="M110 0C110.66 0 111.32 0 112 0C112 0.66 112 1.32 112 2C115.96 2 119.92 2 124 2C124 2.66 124 3.32 124 4C127.96 4 131.92 4 136 4C136 3.34 136 2.68 136 2C137.98 2 139.96 2 142 2C142 1.34 142 0.68 142 0C167.74 0 193.48 0 220 0C220 0.66 220 1.32 220 2C229.24 2 238.48 2 248 2C248 2.66 248 3.32 248 4C251.3 4 254.6 4 258 4C258 3.34 258 2.68 258 2C264.6 2 271.2 2 278 2C278 2.66 278 3.32 278 4C284.6 4 291.2 4 298 4C298 3.34 298 2.68 298 2C299.98 2 301.96 2 304 2C304 1.34 304 0.68 304 0C311.92 0 319.84 0 328 0C328 1.32 328 2.64 328 4C330.64 4 333.28 4 336 4C336 3.34 336 2.68 336 2C341.28 2 346.56 2 352 2C352 2.66 352 3.32 352 4C352.66 4 353.32 4 354 4C354 3.34 354 2.68 354 2C365.22 2 376.44 2 388 2C388 2.66 388 3.32 388 4C389.32 4 390.64 4 392 4C392 3.34 392 2.68 392 2C401.9 2 411.8 2 422 2C422 2.66 422 3.32 422 4C422.66 4 423.32 4 424 4C424 3.34 424 2.68 424 2C435.22 2 446.44 2 458 2C458 2.66 458 3.32 458 4C460.64 4 463.28 4 466 4C466 3.34 466 2.68 466 2C476.56 2 487.12 2 498 2C498 2.66 498 3.32 498 4C499.32 4 500.64 4 502 4C502 3.34 502 2.68 502 2C504.64 2 507.28 2 510 2C510 2.66 510 3.32 510 4C510.66 4 511.32 4 512 4C512 4.66 512 5.32 512 6C513.32 6 514.64 6 516 6C516 5.34 516 4.68 516 4C517.32 4 518.64 4 520 4C520 3.34 520 2.68 520 2C525.28 2 530.56 2 536 2C536 1.34 536 0.68 536 0C536.66 0 537.32 0 538 0C538 0.66 538 1.32 538 2C541.3 2 544.6 2 548 2C548 2.66 548 3.32 548 4C549.32 4 550.64 4 552 4C552 3.34 552 2.68 552 2C558.6 2 565.2 2 572 2C572 1.34 572 0.68 572 0C585.86 0 599.72 0 614 0C614 0.66 614 1.32 614 2C618.62 2 623.24 2 628 2C628 2.66 628 3.32 628 4C628.66 4 629.32 4 630 4C630 3.34 630 2.68 630 2C638.58 2 647.16 2 656 2C656 1.34 656 0.68 656 0C658.64 0 661.28 0 664 0C664 0.66 664 1.32 664 2C665.98 2 667.96 2 670 2C670 2.66 670 3.32 670 4C670.66 4 671.32 4 672 4C672 3.34 672 2.68 672 2C673.98 2 675.96 2 678 2C678 2.66 678 3.32 678 4C678.66 4 679.32 4 680 4C680 3.34 680 2.68 680 2C688.58 2 697.16 2 706 2C706 2.66 706 3.32 706 4C706.66 4 707.32 4 708 4C708 3.34 708 2.68 708 2C713.28 2 718.56 2 724 2C724 2.66 724 3.32 724 4C728.62 4 733.24 4 738 4C738 3.34 738 2.68 738 2C741.3 2 744.6 2 748 2C748 2.66 748 3.32 748 4C748.66 4 749.32 4 750 4C750 3.34 750 2.68 750 2C771.78 2 793.56 2 816 2C816 1.34 816 0.68 816 0C871.44 0 926.88 0 984 0C984 0.66 984 1.32 984 2C987.96 2 991.92 2 996 2C996 2.66 996 3.32 996 4C996.66 4 997.32 4 998 4C998 3.34 998 2.68 998 2C1015.16 2 1032.32 2 1050 2C1050 2.66 1050 3.32 1050 4C1053.96 4 1057.92 4 1062 4C1062 4.66 1062 5.32 1062 6C1063.32 6 1064.64 6 1066 6C1066 5.34 1066 4.68 1066 4C1069.3 4 1072.6 4 1076 4C1076 3.34 1076 2.68 1076 2C1095.14 2 1114.28 2 1134 2C1134 1.34 1134 0.68 1134 0C1134.66 0 1135.32 0 1136 0C1136 1.32 1136 2.64 1136 4C1137.98 4 1139.96 4 1142 4C1142 3.34 1142 2.68 1142 2C1145.3 2 1148.6 2 1152 2C1152 2.66 1152 3.32 1152 4C1152.66 4 1153.32 4 1154 4C1154 3.34 1154 2.68 1154 2C1157.96 2 1161.92 2 1166 2C1166 2.66 1166 3.32 1166 4C1169.96 4 1173.92 4 1178 4C1178 3.34 1178 2.68 1178 2C1180.64 2 1183.28 2 1186 2C1186 1.34 1186 0.68 1186 0C1187.98 0 1189.96 0 1192 0C1192 0.66 1192 1.32 1192 2C1217.08 2 1242.16 2 1268 2C1268 2.66 1268 3.32 1268 4C1269.98 4 1271.96 4 1274 4C1274 3.34 1274 2.68 1274 2C1276.64 2 1279.28 2 1282 2C1282 2.66 1282 3.32 1282 4C1285.3 4 1288.6 4 1292 4C1292 3.34 1292 2.68 1292 2C1298.6 2 1305.2 2 1312 2C1312 1.34 1312 0.68 1312 0C1321.9 0 1331.8 0 1342 0C1342 0.66 1342 1.32 1342 2C1349.26 2 1356.52 2 1364 2C1364 2.66 1364 3.32 1364 4C1365.32 4 1366.64 4 1368 4C1368 3.34 1368 2.68 1368 2C1373.28 2 1378.56 2 1384 2C1384 2.66 1384 3.32 1384 4C1384.66 4 1385.32 4 1386 4C1386 3.34 1386 2.68 1386 2C1392.6 2 1399.2 2 1406 2C1406 1.34 1406 0.68 1406 0C1406.66 0 1407.32 0 1408 0C1408 0.66 1408 1.32 1408 2C1409.32 2 1410.64 2 1412 2C1412 2.66 1412 3.32 1412 4C1412.66 4 1413.32 4 1414 4C1414 3.34 1414 2.68 1414 2C1425.22 2 1436.44 2 1448 2C1448 1.34 1448 0.68 1448 0C1479.02 0 1510.04 0 1542 0C1542 0.66 1542 1.32 1542 2C1547.28 2 1552.56 2 1558 2C1558 2.66 1558 3.32 1558 4C1561.3 4 1564.6 4 1568 4C1568 3.34 1568 2.68 1568 2C1574.6 2 1581.2 2 1588 2C1588 1.34 1588 0.68 1588 0C1616.38 0 1644.76 0 1674 0C1674 0.66 1674 1.32 1674 2C1678.62 2 1683.24 2 1688 2C1688 2.66 1688 3.32 1688 4C1694.6 4 1701.2 4 1708 4C1708 3.34 1708 2.68 1708 2C1726.48 2 1744.96 2 1764 2C1764 2.66 1764 3.32 1764 4C1764.66 4 1765.32 4 1766 4C1766 3.34 1766 2.68 1766 2C1769.96 2 1773.92 2 1778 2C1778 2.66 1778 3.32 1778 4C1778.66 4 1779.32 4 1780 4C1780 3.34 1780 2.68 1780 2C1785.94 2 1791.88 2 1798 2C1798 2.66 1798 3.32 1798 4C1803.28 4 1808.56 4 1814 4C1814 3.34 1814 2.68 1814 2C1815.32 2 1816.64 2 1818 2C1818 2.66 1818 3.32 1818 4C1823.28 4 1828.56 4 1834 4C1834 3.34 1834 2.68 1834 2C1845.22 2 1856.44 2 1868 2C1868 2.66 1868 3.32 1868 4C1868.66 4 1869.32 4 1870 4C1870 3.34 1870 2.68 1870 2C1871.98 2 1873.96 2 1876 2C1876 1.34 1876 0.68 1876 0C1938.7 0 2001.4 0 2066 0C2066 0.66 2066 1.32 2066 2C2067.98 2 2069.96 2 2072 2C2072 2.66 2072 3.32 2072 4C2074.64 4 2077.28 4 2080 4C2080 3.34 2080 2.68 2080 2C2083.96 2 2087.92 2 2092 2C2092 2.66 2092 3.32 2092 4C2093.32 4 2094.64 4 2096 4C2096 3.34 2096 2.68 2096 2C2096.66 2 2097.32 2 2098 2C2098 2.66 2098 3.32 2098 4C2098.66 4 2099.32 4 2100 4C2100 3.34 2100 2.68 2100 2C2107.92 2 2115.84 2 2124 2C2124 2.66 2124 3.32 2124 4C2126.64 4 2129.28 4 2132 4C2132 3.34 2132 2.68 2132 2C2135.96 2 2139.92 2 2144 2C2144 2.66 2144 3.32 2144 4C2147.3 4 2150.6 4 2154 4C2154 3.34 2154 2.68 2154 2C2158.62 2 2163.24 2 2168 2C2168 1.34 2168 0.68 2168 0C2191.1 0 2214.2 0 2238 0C2238 0.66 2238 1.32 2238 2C2248.56 2 2259.12 2 2270 2C2270 2.66 2270 3.32 2270 4C2270.66 4 2271.32 4 2272 4C2272 3.34 2272 2.68 2272 2C2277.28 2 2282.56 2 2288 2C2288 1.34 2288 0.68 2288 0C2295.26 0 2302.52 0 2310 0C2310 0.66 2310 1.32 2310 2C2313.96 2 2317.92 2 2322 2C2322 2.66 2322 3.32 2322 4C2324.64 4 2327.28 4 2330 4C2330 3.34 2330 2.68 2330 2C2334.62 2 2339.24 2 2344 2C2344 2.66 2344 3.32 2344 4C2349.94 4 2355.88 4 2362 4C2362 3.34 2362 2.68 2362 2C2371.24 2 2380.48 2 2390 2C2390 2.66 2390 3.32 2390 4C2392.64 4 2395.28 4 2398 4C2398 3.34 2398 2.68 2398 2C2401.96 2 2405.92 2 2410 2C2410 1.34 2410 0.68 2410 0C2441.02 0 2472.04 0 2504 0C2504 0.66 2504 1.32 2504 2C2515.22 2 2526.44 2 2538 2C2538 2.66 2538 3.32 2538 4C2538.66 4 2539.32 4 2540 4C2540 3.34 2540 2.68 2540 2C2543.96 2 2547.92 2 2552 2C2552 1.34 2552 0.68 2552 0C2553.32 0 2554.64 0 2556 0C2556 0.66 2556 1.32 2556 2C2560.62 2 2565.24 2 2570 2C2570 2.66 2570 3.32 2570 4C2570.66 4 2571.32 4 2572 4C2572 3.34 2572 2.68 2572 2C2577.94 2 2583.88 2 2590 2C2590 1.34 2590 0.68 2590 0C2599.9 0 2609.8 0 2620 0C2620 0.66 2620 1.32 2620 2C2636.5 2 2653 2 2670 2C2670 2.66 2670 3.32 2670 4C2671.32 4 2672.64 4 2674 4C2674 3.34 2674 2.68 2674 2C2687.2 2 2700.4 2 2714 2C2714 2.66 2714 3.32 2714 4C2714.66 4 2715.32 4 2716 4C2716 3.34 2716 2.68 2716 2C2725.24 2 2734.48 2 2744 2C2744 1.34 2744 0.68 2744 0C2749.28 0 2754.56 0 2760 0C2760 0.66 2760 1.32 2760 2C2767.92 2 2775.84 2 2784 2C2784 2.66 2784 3.32 2784 4C2786.64 4 2789.28 4 2792 4C2792 3.34 2792 2.68 2792 2C2802.56 2 2813.12 2 2824 2C2824 2.66 2824 3.32 2824 4C2827.3 4 2830.6 4 2834 4C2834 3.34 2834 2.68 2834 2C2834.66 2 2835.32 2 2836 2C2836 1.34 2836 0.68 2836 0C2840.62 0 2845.24 0 2850 0C2850 0.66 2850 1.32 2850 2C2852.64 2 2855.28 2 2858 2C2858 2.66 2858 3.32 2858 4C2858.66 4 2859.32 4 2860 4C2860 3.34 2860 2.68 2860 2C2877.16 2 2894.32 2 2912 2C2912 1.34 2912 0.68 2912 0C2943.68 0 2975.36 0 3008 0C3008 0.66 3008 1.32 3008 2C3015.92 2 3023.84 2 3032 2C3032 2.66 3032 3.32 3032 4C3032.66 4 3033.32 4 3034 4C3034 3.34 3034 2.68 3034 2C3050.5 2 3067 2 3084 2C3084 2.66 3084 3.32 3084 4C3084.66 4 3085.32 4 3086 4C3086 3.34 3086 2.68 3086 2C3088.64 2 3091.28 2 3094 2C3094 1.34 3094 0.68 3094 0C3101.26 0 3108.52 0 3116 0C3116 1.32 3116 2.64 3116 4C3117.98 4 3119.96 4 3122 4C3122 3.34 3122 2.68 3122 2C3129.92 2 3137.84 2 3146 2C3146 1.34 3146 0.68 3146 0C3159.2 0 3172.4 0 3186 0C3186 0.66 3186 1.32 3186 2C3193.26 2 3200.52 2 3208 2C3208 2.66 3208 3.32 3208 4C3208.66 4 3209.32 4 3210 4C3210 3.34 3210 2.68 3210 2C3215.94 2 3221.88 2 3228 2C3228 1.34 3228 0.68 3228 0C3266.28 0 3304.56 0 3344 0C3344 0.66 3344 1.32 3344 2C3344.66 2 3345.32 2 3346 2C3346 2.66 3346 3.32 3346 4C3347.98 4 3349.96 4 3352 4C3352 3.34 3352 2.68 3352 2C3361.9 2 3371.8 2 3382 2C3382 1.34 3382 0.68 3382 0C3385.3 0 3388.6 0 3392 0C3392 0.66 3392 1.32 3392 2C3393.98 2 3395.96 2 3398 2C3398 2.66 3398 3.32 3398 4C3398.66 4 3399.32 4 3400 4C3400 3.34 3400 2.68 3400 2C3406.6 2 3413.2 2 3420 2C3420 2.66 3420 3.32 3420 4C3421.98 4 3423.96 4 3426 4C3426 3.34 3426 2.68 3426 2C3433.92 2 3441.84 2 3450 2C3450 1.34 3450 0.68 3450 0C3460.56 0 3471.12 0 3482 0C3482 0.66 3482 1.32 3482 2C3501.14 2 3520.28 2 3540 2C3540 2.66 3540 3.32 3540 4C3540.66 4 3541.32 4 3542 4C3542 3.34 3542 2.68 3542 2C3549.26 2 3556.52 2 3564 2C3564 1.34 3564 0.68 3564 0C3573.24 0 3582.48 0 3592 0C3592 4.62 3592 9.24 3592 14C3591.34 14 3590.68 14 3590 14C3590 14.66 3590 15.32 3590 16C3585.38 16 3580.76 16 3576 16C3576 16.66 3576 17.32 3576 18C3568.74 18 3561.48 18 3554 18C3554 17.34 3554 16.68 3554 16C3550.7 16 3547.4 16 3544 16C3544 16.66 3544 17.32 3544 18C3543.34 18 3542.68 18 3542 18C3542 17.34 3542 16.68 3542 16C3539.36 16 3536.72 16 3534 16C3534 16.66 3534 17.32 3534 18C3532.02 18 3530.04 18 3528 18C3528 17.34 3528 16.68 3528 16C3525.36 16 3522.72 16 3520 16C3520 16.66 3520 17.32 3520 18C3517.36 18 3514.72 18 3512 18C3512 17.34 3512 16.68 3512 16C3509.36 16 3506.72 16 3504 16C3504 16.66 3504 17.32 3504 18C3496.74 18 3489.48 18 3482 18C3482 17.34 3482 16.68 3482 16C3476.06 16 3470.12 16 3464 16C3464 15.34 3464 14.68 3464 14C3463.34 14 3462.68 14 3462 14C3462 14.66 3462 15.32 3462 16C3461.34 16 3460.68 16 3460 16C3460 16.66 3460 17.32 3460 18C3454.06 18 3448.12 18 3442 18C3442 17.34 3442 16.68 3442 16C3441.34 16 3440.68 16 3440 16C3440 16.66 3440 17.32 3440 18C3436.7 18 3433.4 18 3430 18C3430 17.34 3430 16.68 3430 16C3424.06 16 3418.12 16 3412 16C3412 16.66 3412 17.32 3412 18C3408.7 18 3405.4 18 3402 18C3402 17.34 3402 16.68 3402 16C3399.36 16 3396.72 16 3394 16C3394 16.66 3394 17.32 3394 18C3388.72 18 3383.44 18 3378 18C3378 17.34 3378 16.68 3378 16C3372.06 16 3366.12 16 3360 16C3360 16.66 3360 17.32 3360 18C3358.68 18 3357.36 18 3356 18C3356 17.34 3356 16.68 3356 16C3354.02 16 3352.04 16 3350 16C3350 15.34 3350 14.68 3350 14C3349.34 14 3348.68 14 3348 14C3348 14.66 3348 15.32 3348 16C3347.34 16 3346.68 16 3346 16C3346 16.66 3346 17.32 3346 18C3341.38 18 3336.76 18 3332 18C3332 17.34 3332 16.68 3332 16C3331.34 16 3330.68 16 3330 16C3330 16.66 3330 17.32 3330 18C3326.7 18 3323.4 18 3320 18C3320 17.34 3320 16.68 3320 16C3318.68 16 3317.36 16 3316 16C3316 16.66 3316 17.32 3316 18C3312.7 18 3309.4 18 3306 18C3306 17.34 3306 16.68 3306 16C3304.02 16 3302.04 16 3300 16C3300 16.66 3300 17.32 3300 18C3293.4 18 3286.8 18 3280 18C3280 17.34 3280 16.68 3280 16C3278.68 16 3277.36 16 3276 16C3276 16.66 3276 17.32 3276 18C3266.76 18 3257.52 18 3248 18C3248 17.34 3248 16.68 3248 16C3246.02 16 3244.04 16 3242 16C3242 16.66 3242 17.32 3242 18C3236.72 18 3231.44 18 3226 18C3226 17.34 3226 16.68 3226 16C3221.38 16 3216.76 16 3212 16C3212 15.34 3212 14.68 3212 14C3210.02 14 3208.04 14 3206 14C3206 14.66 3206 15.32 3206 16C3200.06 16 3194.12 16 3188 16C3188 16.66 3188 17.32 3188 18C3184.04 18 3180.08 18 3176 18C3176 17.34 3176 16.68 3176 16C3168.08 16 3160.16 16 3152 16C3152 16.66 3152 17.32 3152 18C3148.04 18 3144.08 18 3140 18C3140 17.34 3140 16.68 3140 16C3139.34 16 3138.68 16 3138 16C3138 16.66 3138 17.32 3138 18C3136.68 18 3135.36 18 3134 18C3134 17.34 3134 16.68 3134 16C3133.34 16 3132.68 16 3132 16C3132 16.66 3132 17.32 3132 18C3130.02 18 3128.04 18 3126 18C3126 17.34 3126 16.68 3126 16C3116.76 16 3107.52 16 3098 16C3098 16.66 3098 17.32 3098 18C3094.04 18 3090.08 18 3086 18C3086 17.34 3086 16.68 3086 16C3084.02 16 3082.04 16 3080 16C3080 16.66 3080 17.32 3080 18C3068.12 18 3056.24 18 3044 18C3044 17.34 3044 16.68 3044 16C3040.04 16 3036.08 16 3032 16C3032 16.66 3032 17.32 3032 18C3029.36 18 3026.72 18 3024 18C3024 17.34 3024 16.68 3024 16C3021.36 16 3018.72 16 3016 16C3016 16.66 3016 17.32 3016 18C3005.44 18 2994.88 18 2984 18C2984 17.34 2984 16.68 2984 16C2981.36 16 2978.72 16 2976 16C2976 16.66 2976 17.32 2976 18C2974.02 18 2972.04 18 2970 18C2970 17.34 2970 16.68 2970 16C2960.1 16 2950.2 16 2940 16C2940 16.66 2940 17.32 2940 18C2938.68 18 2937.36 18 2936 18C2936 18.66 2936 19.32 2936 20C2935.34 20 2934.68 20 2934 20C2934 19.34 2934 18.68 2934 18C2932.02 18 2930.04 18 2928 18C2928 17.34 2928 16.68 2928 16C2927.34 16 2926.68 16 2926 16C2926 16.66 2926 17.32 2926 18C2922.04 18 2918.08 18 2914 18C2914 17.34 2914 16.68 2914 16C2910.04 16 2906.08 16 2902 16C2902 16.66 2902 17.32 2902 18C2901.34 18 2900.68 18 2900 18C2900 17.34 2900 16.68 2900 16C2896.04 16 2892.08 16 2888 16C2888 16.66 2888 17.32 2888 18C2886.68 18 2885.36 18 2884 18C2884 17.34 2884 16.68 2884 16C2882.68 16 2881.36 16 2880 16C2880 16.66 2880 17.32 2880 18C2874.06 18 2868.12 18 2862 18C2862 17.34 2862 16.68 2862 16C2861.34 16 2860.68 16 2860 16C2860 15.34 2860 14.68 2860 14C2859.34 14 2858.68 14 2858 14C2858 14.66 2858 15.32 2858 16C2856.02 16 2854.04 16 2852 16C2852 16.66 2852 17.32 2852 18C2847.38 18 2842.76 18 2838 18C2838 17.34 2838 16.68 2838 16C2836.68 16 2835.36 16 2834 16C2834 15.34 2834 14.68 2834 14C2830.7 14 2827.4 14 2824 14C2824 14.66 2824 15.32 2824 16C2820.04 16 2816.08 16 2812 16C2812 16.66 2812 17.32 2812 18C2808.7 18 2805.4 18 2802 18C2802 17.34 2802 16.68 2802 16C2798.04 16 2794.08 16 2790 16C2790 15.34 2790 14.68 2790 14C2787.36 14 2784.72 14 2782 14C2782 14.66 2782 15.32 2782 16C2776.72 16 2771.44 16 2766 16C2766 16.66 2766 17.32 2766 18C2764.68 18 2763.36 18 2762 18C2762 17.34 2762 16.68 2762 16C2760.68 16 2759.36 16 2758 16C2758 16.66 2758 17.32 2758 18C2750.74 18 2743.48 18 2736 18C2736 17.34 2736 16.68 2736 16C2733.36 16 2730.72 16 2728 16C2728 16.66 2728 17.32 2728 18C2727.34 18 2726.68 18 2726 18C2726 17.34 2726 16.68 2726 16C2716.1 16 2706.2 16 2696 16C2696 16.66 2696 17.32 2696 18C2691.38 18 2686.76 18 2682 18C2682 17.34 2682 16.68 2682 16C2674.74 16 2667.48 16 2660 16C2660 16.66 2660 17.32 2660 18C2659.34 18 2658.68 18 2658 18C2658 17.34 2658 16.68 2658 16C2654.7 16 2651.4 16 2648 16C2648 16.66 2648 17.32 2648 18C2647.34 18 2646.68 18 2646 18C2646 17.34 2646 16.68 2646 16C2641.38 16 2636.76 16 2632 16C2632 16.66 2632 17.32 2632 18C2630.02 18 2628.04 18 2626 18C2626 17.34 2626 16.68 2626 16C2624.02 16 2622.04 16 2620 16C2620 16.66 2620 17.32 2620 18C2609.44 18 2598.88 18 2588 18C2588 17.34 2588 16.68 2588 16C2587.34 16 2586.68 16 2586 16C2586 16.66 2586 17.32 2586 18C2582.04 18 2578.08 18 2574 18C2574 17.34 2574 16.68 2574 16C2573.34 16 2572.68 16 2572 16C2572 14.68 2572 13.36 2572 12C2571.34 12 2570.68 12 2570 12C2570 13.32 2570 14.64 2570 16C2568.68 16 2567.36 16 2566 16C2566 16.66 2566 17.32 2566 18C2560.06 18 2554.12 18 2548 18C2548 17.34 2548 16.68 2548 16C2538.76 16 2529.52 16 2520 16C2520 16.66 2520 17.32 2520 18C2517.36 18 2514.72 18 2512 18C2512 17.34 2512 16.68 2512 16C2510.02 16 2508.04 16 2506 16C2506 16.66 2506 17.32 2506 18C2498.74 18 2491.48 18 2484 18C2484 17.34 2484 16.68 2484 16C2483.34 16 2482.68 16 2482 16C2482 16.66 2482 17.32 2482 18C2475.4 18 2468.8 18 2462 18C2462 17.34 2462 16.68 2462 16C2460.02 16 2458.04 16 2456 16C2456 16.66 2456 17.32 2456 18C2449.4 18 2442.8 18 2436 18C2436 17.34 2436 16.68 2436 16C2430.72 16 2425.44 16 2420 16C2420 16.66 2420 17.32 2420 18C2414.72 18 2409.44 18 2404 18C2404 17.34 2404 16.68 2404 16C2400.04 16 2396.08 16 2392 16C2392 15.34 2392 14.68 2392 14C2391.34 14 2390.68 14 2390 14C2390 14.66 2390 15.32 2390 16C2384.06 16 2378.12 16 2372 16C2372 16.66 2372 17.32 2372 18C2370.02 18 2368.04 18 2366 18C2366 17.34 2366 16.68 2366 16C2364.02 16 2362.04 16 2360 16C2360 15.34 2360 14.68 2360 14C2359.34 14 2358.68 14 2358 14C2358 14.66 2358 15.32 2358 16C2348.1 16 2338.2 16 2328 16C2328 15.34 2328 14.68 2328 14C2326.02 14 2324.04 14 2322 14C2322 14.66 2322 15.32 2322 16C2314.74 16 2307.48 16 2300 16C2300 16.66 2300 17.32 2300 18C2294.72 18 2289.44 18 2284 18C2284 17.34 2284 16.68 2284 16C2278.72 16 2273.44 16 2268 16C2268 16.66 2268 17.32 2268 18C2265.36 18 2262.72 18 2260 18C2260 17.34 2260 16.68 2260 16C2254.06 16 2248.12 16 2242 16C2242 16.66 2242 17.32 2242 18C2238.04 18 2234.08 18 2230 18C2230 18.66 2230 19.32 2230 20C2228.68 20 2227.36 20 2226 20C2226 19.34 2226 18.68 2226 18C2224.02 18 2222.04 18 2220 18C2220 17.34 2220 16.68 2220 16C2218.68 16 2217.36 16 2216 16C2216 16.66 2216 17.32 2216 18C2212.7 18 2209.4 18 2206 18C2206 17.34 2206 16.68 2206 16C2205.34 16 2204.68 16 2204 16C2204 16.66 2204 17.32 2204 18C2200.7 18 2197.4 18 2194 18C2194 17.34 2194 16.68 2194 16C2192.02 16 2190.04 16 2188 16C2188 16.66 2188 17.32 2188 18C2185.36 18 2182.72 18 2180 18C2180 17.34 2180 16.68 2180 16C2170.76 16 2161.52 16 2152 16C2152 15.34 2152 14.68 2152 14C2148.7 14 2145.4 14 2142 14C2142 14.66 2142 15.32 2142 16C2138.7 16 2135.4 16 2132 16C2132 15.34 2132 14.68 2132 14C2130.68 14 2129.36 14 2128 14C2128 14.66 2128 15.32 2128 16C2123.38 16 2118.76 16 2114 16C2114 16.66 2114 17.32 2114 18C2112.02 18 2110.04 18 2108 18C2108 17.34 2108 16.68 2108 16C2105.36 16 2102.72 16 2100 16C2100 16.66 2100 17.32 2100 18C2099.34 18 2098.68 18 2098 18C2098 17.34 2098 16.68 2098 16C2091.4 16 2084.8 16 2078 16C2078 15.34 2078 14.68 2078 14C2076.02 14 2074.04 14 2072 14C2072 14.66 2072 15.32 2072 16C2069.36 16 2066.72 16 2064 16C2064 16.66 2064 17.32 2064 18C2063.34 18 2062.68 18 2062 18C2062 17.34 2062 16.68 2062 16C2061.34 16 2060.68 16 2060 16C2060 16.66 2060 17.32 2060 18C2042.84 18 2025.68 18 2008 18C2008 17.34 2008 16.68 2008 16C2002.72 16 1997.44 16 1992 16C1992 16.66 1992 17.32 1992 18C1989.36 18 1986.72 18 1984 18C1984 17.34 1984 16.68 1984 16C1982.68 16 1981.36 16 1980 16C1980 16.66 1980 17.32 1980 18C1977.36 18 1974.72 18 1972 18C1972 17.34 1972 16.68 1972 16C1962.76 16 1953.52 16 1944 16C1944 16.66 1944 17.32 1944 18C1943.34 18 1942.68 18 1942 18C1942 17.34 1942 16.68 1942 16C1940.68 16 1939.36 16 1938 16C1938 16.66 1938 17.32 1938 18C1937.34 18 1936.68 18 1936 18C1936 17.34 1936 16.68 1936 16C1935.34 16 1934.68 16 1934 16C1934 16.66 1934 17.32 1934 18C1933.34 18 1932.68 18 1932 18C1932 17.34 1932 16.68 1932 16C1928.7 16 1925.4 16 1922 16C1922 16.66 1922 17.32 1922 18C1918.7 18 1915.4 18 1912 18C1912 17.34 1912 16.68 1912 16C1908.04 16 1904.08 16 1900 16C1900 16.66 1900 17.32 1900 18C1898.02 18 1896.04 18 1894 18C1894 17.34 1894 16.68 1894 16C1888.72 16 1883.44 16 1878 16C1878 16.66 1878 17.32 1878 18C1877.34 18 1876.68 18 1876 18C1876 17.34 1876 16.68 1876 16C1871.38 16 1866.76 16 1862 16C1862 16.66 1862 17.32 1862 18C1859.36 18 1856.72 18 1854 18C1854 17.34 1854 16.68 1854 16C1833.54 16 1813.08 16 1792 16C1792 16.66 1792 17.32 1792 18C1790.02 18 1788.04 18 1786 18C1786 17.34 1786 16.68 1786 16C1780.72 16 1775.44 16 1770 16C1770 16.66 1770 17.32 1770 18C1768.68 18 1767.36 18 1766 18C1766 17.34 1766 16.68 1766 16C1762.7 16 1759.4 16 1756 16C1756 16.66 1756 17.32 1756 18C1752.04 18 1748.08 18 1744 18C1744 17.34 1744 16.68 1744 16C1740.04 16 1736.08 16 1732 16C1732 16.66 1732 17.32 1732 18C1726.72 18 1721.44 18 1716 18C1716 17.34 1716 16.68 1716 16C1710.06 16 1704.12 16 1698 16C1698 15.34 1698 14.68 1698 14C1694.7 14 1691.4 14 1688 14C1688 14.66 1688 15.32 1688 16C1687.34 16 1686.68 16 1686 16C1686 16.66 1686 17.32 1686 18C1682.04 18 1678.08 18 1674 18C1674 17.34 1674 16.68 1674 16C1671.36 16 1668.72 16 1666 16C1666 16.66 1666 17.32 1666 18C1661.38 18 1656.76 18 1652 18C1652 17.34 1652 16.68 1652 16C1644.74 16 1637.48 16 1630 16C1630 16.66 1630 17.32 1630 18C1626.7 18 1623.4 18 1620 18C1620 17.34 1620 16.68 1620 16C1618.68 16 1617.36 16 1616 16C1616 16.66 1616 17.32 1616 18C1609.4 18 1602.8 18 1596 18C1596 18.66 1596 19.32 1596 20C1595.34 20 1594.68 20 1594 20C1594 19.34 1594 18.68 1594 18C1587.4 18 1580.8 18 1574 18C1574 17.34 1574 16.68 1574 16C1568.06 16 1562.12 16 1556 16C1556 16.66 1556 17.32 1556 18C1547.42 18 1538.84 18 1530 18C1530 18.66 1530 19.32 1530 20C1529.34 20 1528.68 20 1528 20C1528 19.34 1528 18.68 1528 18C1518.1 18 1508.2 18 1498 18C1498 17.34 1498 16.68 1498 16C1494.04 16 1490.08 16 1486 16C1486 16.66 1486 17.32 1486 18C1483.36 18 1480.72 18 1478 18C1478 17.34 1478 16.68 1478 16C1470.08 16 1462.16 16 1454 16C1454 16.66 1454 17.32 1454 18C1452.68 18 1451.36 18 1450 18C1450 17.34 1450 16.68 1450 16C1446.04 16 1442.08 16 1438 16C1438 15.34 1438 14.68 1438 14C1437.34 14 1436.68 14 1436 14C1436 14.66 1436 15.32 1436 16C1426.76 16 1417.52 16 1408 16C1408 16.66 1408 17.32 1408 18C1405.36 18 1402.72 18 1400 18C1400 17.34 1400 16.68 1400 16C1391.42 16 1382.84 16 1374 16C1374 16.66 1374 17.32 1374 18C1373.34 18 1372.68 18 1372 18C1372 17.34 1372 16.68 1372 16C1366.06 16 1360.12 16 1354 16C1354 16.66 1354 17.32 1354 18C1352.02 18 1350.04 18 1348 18C1348 17.34 1348 16.68 1348 16C1346.02 16 1344.04 16 1342 16C1342 16.66 1342 17.32 1342 18C1338.04 18 1334.08 18 1330 18C1330 17.34 1330 16.68 1330 16C1328.02 16 1326.04 16 1324 16C1324 16.66 1324 17.32 1324 18C1317.4 18 1310.8 18 1304 18C1304 17.34 1304 16.68 1304 16C1298.72 16 1293.44 16 1288 16C1288 15.34 1288 14.68 1288 14C1287.34 14 1286.68 14 1286 14C1286 14.66 1286 15.32 1286 16C1266.86 16 1247.72 16 1228 16C1228 16.66 1228 17.32 1228 18C1226.02 18 1224.04 18 1222 18C1222 17.34 1222 16.68 1222 16C1214.08 16 1206.16 16 1198 16C1198 16.66 1198 17.32 1198 18C1192.06 18 1186.12 18 1180 18C1180 16.68 1180 15.36 1180 14C1177.36 14 1174.72 14 1172 14C1172 14.66 1172 15.32 1172 16C1166.72 16 1161.44 16 1156 16C1156 16.66 1156 17.32 1156 18C1154.02 18 1152.04 18 1150 18C1150 17.34 1150 16.68 1150 16C1146.7 16 1143.4 16 1140 16C1140 15.34 1140 14.68 1140 14C1139.34 14 1138.68 14 1138 14C1138 14.66 1138 15.32 1138 16C1135.36 16 1132.72 16 1130 16C1130 16.66 1130 17.32 1130 18C1126.04 18 1122.08 18 1118 18C1118 17.34 1118 16.68 1118 16C1115.36 16 1112.72 16 1110 16C1110 15.34 1110 14.68 1110 14C1109.34 14 1108.68 14 1108 14C1108 15.32 1108 16.64 1108 18C1101.4 18 1094.8 18 1088 18C1088 17.34 1088 16.68 1088 16C1087.34 16 1086.68 16 1086 16C1086 16.66 1086 17.32 1086 18C1083.36 18 1080.72 18 1078 18C1078 17.34 1078 16.68 1078 16C1076.02 16 1074.04 16 1072 16C1072 15.34 1072 14.68 1072 14C1071.34 14 1070.68 14 1070 14C1070 14.66 1070 15.32 1070 16C1068.68 16 1067.36 16 1066 16C1066 15.34 1066 14.68 1066 14C1065.34 14 1064.68 14 1064 14C1064 13.34 1064 12.68 1064 12C1063.34 12 1062.68 12 1062 12C1062 12.66 1062 13.32 1062 14C1060.68 14 1059.36 14 1058 14C1058 14.66 1058 15.32 1058 16C1052.72 16 1047.44 16 1042 16C1042 16.66 1042 17.32 1042 18C1036.06 18 1030.12 18 1024 18C1024 17.34 1024 16.68 1024 16C1023.34 16 1022.68 16 1022 16C1022 16.66 1022 17.32 1022 18C1021.34 18 1020.68 18 1020 18C1020 17.34 1020 16.68 1020 16C1018.68 16 1017.36 16 1016 16C1016 16.66 1016 17.32 1016 18C1012.7 18 1009.4 18 1006 18C1006 17.34 1006 16.68 1006 16C999.4 16 992.8 16 986 16C986 16.66 986 17.32 986 18C982.04 18 978.08 18 974 18C974 17.34 974 16.68 974 16C973.34 16 972.68 16 972 16C972 15.34 972 14.68 972 14C970.02 14 968.04 14 966 14C966 14.66 966 15.32 966 16C964.02 16 962.04 16 960 16C960 16.66 960 17.32 960 18C957.36 18 954.72 18 952 18C952 17.34 952 16.68 952 16C951.34 16 950.68 16 950 16C950 16.66 950 17.32 950 18C946.7 18 943.4 18 940 18C940 17.34 940 16.68 940 16C936.7 16 933.4 16 930 16C930 16.66 930 17.32 930 18C929.34 18 928.68 18 928 18C928 17.34 928 16.68 928 16C926.02 16 924.04 16 922 16C922 16.66 922 17.32 922 18C921.34 18 920.68 18 920 18C920 17.34 920 16.68 920 16C918.68 16 917.36 16 916 16C916 16.66 916 17.32 916 18C912.04 18 908.08 18 904 18C904 17.34 904 16.68 904 16C902.02 16 900.04 16 898 16C898 16.66 898 17.32 898 18C893.38 18 888.76 18 884 18C884 17.34 884 16.68 884 16C881.36 16 878.72 16 876 16C876 15.34 876 14.68 876 14C874.02 14 872.04 14 870 14C870 14.66 870 15.32 870 16C866.7 16 863.4 16 860 16C860 16.66 860 17.32 860 18C855.38 18 850.76 18 846 18C846 17.34 846 16.68 846 16C844.68 16 843.36 16 842 16C842 16.66 842 17.32 842 18C837.38 18 832.76 18 828 18C828 17.34 828 16.68 828 16C827.34 16 826.68 16 826 16C826 16.66 826 17.32 826 18C819.4 18 812.8 18 806 18C806 17.34 806 16.68 806 16C799.4 16 792.8 16 786 16C786 16.66 786 17.32 786 18C783.36 18 780.72 18 778 18C778 17.34 778 16.68 778 16C777.34 16 776.68 16 776 16C776 16.66 776 17.32 776 18C772.04 18 768.08 18 764 18C764 17.34 764 16.68 764 16C756.08 16 748.16 16 740 16C740 15.34 740 14.68 740 14C738.02 14 736.04 14 734 14C734 14.66 734 15.32 734 16C725.42 16 716.84 16 708 16C708 16.66 708 17.32 708 18C707.34 18 706.68 18 706 18C706 17.34 706 16.68 706 16C705.34 16 704.68 16 704 16C704 16.66 704 17.32 704 18C700.04 18 696.08 18 692 18C692 17.34 692 16.68 692 16C691.34 16 690.68 16 690 16C690 16.66 690 17.32 690 18C689.34 18 688.68 18 688 18C688 17.34 688 16.68 688 16C683.38 16 678.76 16 674 16C674 16.66 674 17.32 674 18C673.34 18 672.68 18 672 18C672 17.34 672 16.68 672 16C669.36 16 666.72 16 664 16C664 16.66 664 17.32 664 18C661.36 18 658.72 18 656 18C656 18.66 656 19.32 656 20C654.68 20 653.36 20 652 20C652 18.68 652 17.36 652 16C649.36 16 646.72 16 644 16C644 16.66 644 17.32 644 18C640.7 18 637.4 18 634 18C634 17.34 634 16.68 634 16C630.04 16 626.08 16 622 16C622 16.66 622 17.32 622 18C614.74 18 607.48 18 600 18C600 16.68 600 15.36 600 14C599.34 14 598.68 14 598 14C598 14.66 598 15.32 598 16C597.34 16 596.68 16 596 16C596 16.66 596 17.32 596 18C592.7 18 589.4 18 586 18C586 17.34 586 16.68 586 16C585.34 16 584.68 16 584 16C584 16.66 584 17.32 584 18C576.74 18 569.48 18 562 18C562 17.34 562 16.68 562 16C558.7 16 555.4 16 552 16C552 15.34 552 14.68 552 14C550.68 14 549.36 14 548 14C548 14.66 548 15.32 548 16C546.02 16 544.04 16 542 16C542 16.66 542 17.32 542 18C536.72 18 531.44 18 526 18C526 17.34 526 16.68 526 16C524.68 16 523.36 16 522 16C522 15.34 522 14.68 522 14C519.36 14 516.72 14 514 14C514 13.34 514 12.68 514 12C513.34 12 512.68 12 512 12C512 12.66 512 13.32 512 14C511.34 14 510.68 14 510 14C510 14.66 510 15.32 510 16C503.4 16 496.8 16 490 16C490 16.66 490 17.32 490 18C489.34 18 488.68 18 488 18C488 17.34 488 16.68 488 16C487.34 16 486.68 16 486 16C486 16.66 486 17.32 486 18C482.04 18 478.08 18 474 18C474 17.34 474 16.68 474 16C466.08 16 458.16 16 450 16C450 16.66 450 17.32 450 18C446.04 18 442.08 18 438 18C438 17.34 438 16.68 438 16C437.34 16 436.68 16 436 16C436 16.66 436 17.32 436 18C433.36 18 430.72 18 428 18C428 17.34 428 16.68 428 16C424.7 16 421.4 16 418 16C418 16.66 418 17.32 418 18C414.7 18 411.4 18 408 18C408 17.34 408 16.68 408 16C406.02 16 404.04 16 402 16C402 15.34 402 14.68 402 14C401.34 14 400.68 14 400 14C400 14.66 400 15.32 400 16C396.7 16 393.4 16 390 16C390 15.34 390 14.68 390 14C389.34 14 388.68 14 388 14C388 14.66 388 15.32 388 16C385.36 16 382.72 16 380 16C380 16.66 380 17.32 380 18C374.72 18 369.44 18 364 18C364 17.34 364 16.68 364 16C360.7 16 357.4 16 354 16C354 15.34 354 14.68 354 14C353.34 14 352.68 14 352 14C352 14.66 352 15.32 352 16C351.34 16 350.68 16 350 16C350 16.66 350 17.32 350 18C346.04 18 342.08 18 338 18C338 17.34 338 16.68 338 16C334.7 16 331.4 16 328 16C328 16.66 328 17.32 328 18C320.08 18 312.16 18 304 18C304 17.34 304 16.68 304 16C302.02 16 300.04 16 298 16C298 15.34 298 14.68 298 14C296.68 14 295.36 14 294 14C294 14.66 294 15.32 294 16C288.06 16 282.12 16 276 16C276 16.66 276 17.32 276 18C274.02 18 272.04 18 270 18C270 17.34 270 16.68 270 16C264.06 16 258.12 16 252 16C252 15.34 252 14.68 252 14C250.02 14 248.04 14 246 14C246 14.66 246 15.32 246 16C238.08 16 230.16 16 222 16C222 16.66 222 17.32 222 18C218.04 18 214.08 18 210 18C210 17.34 210 16.68 210 16C209.34 16 208.68 16 208 16C208 16.66 208 17.32 208 18C207.34 18 206.68 18 206 18C206 17.34 206 16.68 206 16C204.02 16 202.04 16 200 16C200 16.66 200 17.32 200 18C198.68 18 197.36 18 196 18C196 17.34 196 16.68 196 16C194.68 16 193.36 16 192 16C192 16.66 192 17.32 192 18C188.04 18 184.08 18 180 18C180 17.34 180 16.68 180 16C178.02 16 176.04 16 174 16C174 16.66 174 17.32 174 18C171.36 18 168.72 18 166 18C166 17.34 166 16.68 166 16C161.38 16 156.76 16 152 16C152 16.66 152 17.32 152 18C149.36 18 146.72 18 144 18C144 17.34 144 16.68 144 16C135.42 16 126.84 16 118 16C118 16.66 118 17.32 118 18C112.06 18 106.12 18 100 18C100 17.34 100 16.68 100 16C97.36 16 94.72 16 92 16C92 16.66 92 17.32 92 18C90.68 18 89.36 18 88 18C88 17.34 88 16.68 88 16C86.68 16 85.36 16 84 16C84 16.66 84 17.32 84 18C82.68 18 81.36 18 80 18C80 16.68 80 15.36 80 14C78.68 14 77.36 14 76 14C76 14.66 76 15.32 76 16C69.4 16 62.8 16 56 16C56 16.66 56 17.32 56 18C53.36 18 50.72 18 48 18C48 17.34 48 16.68 48 16C37.44 16 26.88 16 16 16C16 16.66 16 17.32 16 18C15.34 18 14.68 18 14 18C14 17.34 14 16.68 14 16C11.36 16 8.72 16 6 16C6 15.34 6 14.68 6 14C5.34 14 4.68 14 4 14C4 13.34 4 12.68 4 12C3.34 12 2.68 12 2 12C2 11.34 2 10.68 2 10C1.34 10 0.68 10 0 10C0 8.68 0 7.36 0 6C1.32 6 2.64 6 4 6C4 5.34 4 4.68 4 4C4.66 4 5.32 4 6 4C6 3.34 6 2.68 6 2C13.92 2 21.84 2 30 2C30 2.66 30 3.32 30 4C30.66 4 31.32 4 32 4C32 3.34 32 2.68 32 2C35.3 2 38.6 2 42 2C42 2.66 42 3.32 42 4C43.32 4 44.64 4 46 4C46 3.34 46 2.68 46 2C50.62 2 55.24 2 60 2C60 2.66 60 3.32 60 4C62.64 4 65.28 4 68 4C68 3.34 68 2.68 68 2C68.66 2 69.32 2 70 2C70 2.66 70 3.32 70 4C73.96 4 77.92 4 82 4C82 3.34 82 2.68 82 2C82.66 2 83.32 2 84 2C84 2.66 84 3.32 84 4C84.66 4 85.32 4 86 4C86 3.34 86 2.68 86 2C93.92 2 101.84 2 110 2C110 1.34 110 0.68 110 0Z" fill="#F99A6D"/>
</g>
<defs>
<clipPath id="clip0_7_71">
<rect width="3592" height="20" fill="white"/>
</clipPath>
</defs>
</svg>
