<svg width="1514" height="146" viewBox="0 0 1514 146" fill="none" xmlns="http://www.w3.org/2000/svg">
<path d="M16 0C20.62 0 25.24 0 30 0C30 0.66 30 1.32 30 2C30.66 2 31.32 2 32 2C32 2.66 32 3.32 32 4C32.66 4 33.32 4 34 4C34 3.34 34 2.68 34 2C34.66 2 35.32 2 36 2C36 1.34 36 0.68 36 0C38.64 0 41.28 0 44 0C44 0.66 44 1.32 44 2C45.32 2 46.64 2 48 2C48 1.34 48 0.68 48 0C51.3 0 54.6 0 58 0C58 0.66 58 1.32 58 2C59.32 2 60.64 2 62 2C62 1.34 62 0.68 62 0C69.92 0 77.84 0 86 0C86 0.66 86 1.32 86 2C88.64 2 91.28 2 94 2C94 1.34 94 0.68 94 0C107.2 0 120.4 0 134 0C134 0.66 134 1.32 134 2C134.66 2 135.32 2 136 2C136 1.34 136 0.68 136 0C148.54 0 161.08 0 174 0C174 0.66 174 1.32 174 2C175.98 2 177.96 2 180 2C180 1.34 180 0.68 180 0C182.64 0 185.28 0 188 0C188 0.66 188 1.32 188 2C189.98 2 191.96 2 194 2C194 1.34 194 0.68 194 0C195.32 0 196.64 0 198 0C198 0.66 198 1.32 198 2C199.98 2 201.96 2 204 2C204 1.34 204 0.68 204 0C213.24 0 222.48 0 232 0C232 0.66 232 1.32 232 2C232.66 2 233.32 2 234 2C234 1.34 234 0.68 234 0C237.3 0 240.6 0 244 0C244 0.66 244 1.32 244 2C246.64 2 249.28 2 252 2C252 1.34 252 0.68 252 0C257.28 0 262.56 0 268 0C268 0.66 268 1.32 268 2C268.66 2 269.32 2 270 2C270 1.34 270 0.68 270 0C277.26 0 284.52 0 292 0C292 0.66 292 1.32 292 2C293.98 2 295.96 2 298 2C298 1.34 298 0.68 298 0C305.26 0 312.52 0 320 0C320 0.66 320 1.32 320 2C322.64 2 325.28 2 328 2C328 1.34 328 0.68 328 0C339.22 0 350.44 0 362 0C362 0.66 362 1.32 362 2C365.96 2 369.92 2 374 2C374 1.34 374 0.68 374 0C375.32 0 376.64 0 378 0C378 0.66 378 1.32 378 2C379.98 2 381.96 2 384 2C384 1.34 384 0.68 384 0C386.64 0 389.28 0 392 0C392 0.66 392 1.32 392 2C393.98 2 395.96 2 398 2C398 1.34 398 0.68 398 0C403.28 0 408.56 0 414 0C414 0.66 414 1.32 414 2C414.66 2 415.32 2 416 2C416 1.34 416 0.68 416 0C417.98 0 419.96 0 422 0C422 0.66 422 1.32 422 2C423.98 2 425.96 2 428 2C428 1.34 428 0.68 428 0C428.66 0 429.32 0 430 0C430 0.66 430 1.32 430 2C430.66 2 431.32 2 432 2C432 1.34 432 0.68 432 0C433.98 0 435.96 0 438 0C438 0.66 438 1.32 438 2C439.98 2 441.96 2 444 2C444 2.66 444 3.32 444 4C444.66 4 445.32 4 446 4C446 3.34 446 2.68 446 2C446.66 2 447.32 2 448 2C448 1.34 448 0.68 448 0C451.96 0 455.92 0 460 0C460 0.66 460 1.32 460 2C460.66 2 461.32 2 462 2C462 1.34 462 0.68 462 0C465.3 0 468.6 0 472 0C472 0.66 472 1.32 472 2C473.98 2 475.96 2 478 2C478 1.34 478 0.68 478 0C481.96 0 485.92 0 490 0C490 0.66 490 1.32 490 2C491.32 2 492.64 2 494 2C494 1.34 494 0.68 494 0C497.3 0 500.6 0 504 0C504 0.66 504 1.32 504 2C504.66 2 505.32 2 506 2C506 1.34 506 0.68 506 0C507.32 0 508.64 0 510 0C510 0.66 510 1.32 510 2C511.98 2 513.96 2 516 2C516 1.34 516 0.68 516 0C519.3 0 522.6 0 526 0C526 0.66 526 1.32 526 2C526.66 2 527.32 2 528 2C528 1.34 528 0.68 528 0C531.3 0 534.6 0 538 0C538 0.66 538 1.32 538 2C538.66 2 539.32 2 540 2C540 1.34 540 0.68 540 0C543.96 0 547.92 0 552 0C552 0.66 552 1.32 552 2C555.3 2 558.6 2 562 2C562 1.34 562 0.68 562 0C576.52 0 591.04 0 606 0C606 0.66 606 1.32 606 2C607.32 2 608.64 2 610 2C610 1.34 610 0.68 610 0C612.64 0 615.28 0 618 0C618 0.66 618 1.32 618 2C623.28 2 628.56 2 634 2C634 1.34 634 0.68 634 0C638.62 0 643.24 0 648 0C648 0.66 648 1.32 648 2C648.66 2 649.32 2 650 2C650 1.34 650 0.68 650 0C657.92 0 665.84 0 674 0C674 0.66 674 1.32 674 2C674.66 2 675.32 2 676 2C676 1.34 676 0.68 676 0C676.66 0 677.32 0 678 0C678 0.66 678 1.32 678 2C679.98 2 681.96 2 684 2C684 1.34 684 0.68 684 0C691.92 0 699.84 0 708 0C708 0.66 708 1.32 708 2C709.98 2 711.96 2 714 2C714 1.34 714 0.68 714 0C720.6 0 727.2 0 734 0C734 0.66 734 1.32 734 2C736.64 2 739.28 2 742 2C742 1.34 742 0.68 742 0C748.6 0 755.2 0 762 0C762 0.66 762 1.32 762 2C762.66 2 763.32 2 764 2C764 1.34 764 0.68 764 0C766.64 0 769.28 0 772 0C772 0.66 772 1.32 772 2C773.32 2 774.64 2 776 2C776 1.34 776 0.68 776 0C778.64 0 781.28 0 784 0C784 0.66 784 1.32 784 2C785.32 2 786.64 2 788 2C788 1.34 788 0.68 788 0C798.56 0 809.12 0 820 0C820 0.66 820 1.32 820 2C823.3 2 826.6 2 830 2C830 1.34 830 0.68 830 0C841.88 0 853.76 0 866 0C866 0.66 866 1.32 866 2C868.64 2 871.28 2 874 2C874 1.34 874 0.68 874 0C878.62 0 883.24 0 888 0C888 0.66 888 1.32 888 2C893.28 2 898.56 2 904 2C904 1.34 904 0.68 904 0C911.92 0 919.84 0 928 0C928 0.66 928 1.32 928 2C929.32 2 930.64 2 932 2C932 1.34 932 0.68 932 0C940.58 0 949.16 0 958 0C958 0.66 958 1.32 958 2C959.32 2 960.64 2 962 2C962 1.34 962 0.68 962 0C964.64 0 967.28 0 970 0C970 0.66 970 1.32 970 2C976.6 2 983.2 2 990 2C990 1.34 990 0.68 990 0C992.64 0 995.28 0 998 0C998 0.66 998 1.32 998 2C999.32 2 1000.64 2 1002 2C1002 1.34 1002 0.68 1002 0C1004.64 0 1007.28 0 1010 0C1010 0.66 1010 1.32 1010 2C1010.66 2 1011.32 2 1012 2C1012 1.34 1012 0.68 1012 0C1017.94 0 1023.88 0 1030 0C1030 0.66 1030 1.32 1030 2C1030.66 2 1031.32 2 1032 2C1032 1.34 1032 0.68 1032 0C1049.16 0 1066.32 0 1084 0C1084 0.66 1084 1.32 1084 2C1084.66 2 1085.32 2 1086 2C1086 1.34 1086 0.68 1086 0C1093.26 0 1100.52 0 1108 0C1108 0.66 1108 1.32 1108 2C1111.3 2 1114.6 2 1118 2C1118 1.34 1118 0.68 1118 0C1121.3 0 1124.6 0 1128 0C1128 0.66 1128 1.32 1128 2C1129.32 2 1130.64 2 1132 2C1132 1.34 1132 0.68 1132 0C1137.94 0 1143.88 0 1150 0C1150 0.66 1150 1.32 1150 2C1151.32 2 1152.64 2 1154 2C1154 2.66 1154 3.32 1154 4C1154.66 4 1155.32 4 1156 4C1156 3.34 1156 2.68 1156 2C1158.64 2 1161.28 2 1164 2C1164 1.34 1164 0.68 1164 0C1165.32 0 1166.64 0 1168 0C1168 0.66 1168 1.32 1168 2C1171.3 2 1174.6 2 1178 2C1178 1.34 1178 0.68 1178 0C1180.64 0 1183.28 0 1186 0C1186 0.66 1186 1.32 1186 2C1187.32 2 1188.64 2 1190 2C1190 1.34 1190 0.68 1190 0C1192.64 0 1195.28 0 1198 0C1198 0.66 1198 1.32 1198 2C1199.32 2 1200.64 2 1202 2C1202 1.34 1202 0.68 1202 0C1209.92 0 1217.84 0 1226 0C1226 0.66 1226 1.32 1226 2C1226.66 2 1227.32 2 1228 2C1228 1.34 1228 0.68 1228 0C1231.3 0 1234.6 0 1238 0C1238 0.66 1238 1.32 1238 2C1238.66 2 1239.32 2 1240 2C1240 1.34 1240 0.68 1240 0C1241.32 0 1242.64 0 1244 0C1244 0.66 1244 1.32 1244 2C1245.32 2 1246.64 2 1248 2C1248 1.34 1248 0.68 1248 0C1251.3 0 1254.6 0 1258 0C1258 0.66 1258 1.32 1258 2C1259.32 2 1260.64 2 1262 2C1262 1.34 1262 0.68 1262 0C1262.66 0 1263.32 0 1264 0C1264 0.66 1264 1.32 1264 2C1264.66 2 1265.32 2 1266 2C1266 1.34 1266 0.68 1266 0C1267.32 0 1268.64 0 1270 0C1270 0.66 1270 1.32 1270 2C1271.32 2 1272.64 2 1274 2C1274 1.34 1274 0.68 1274 0C1275.32 0 1276.64 0 1278 0C1278 0.66 1278 1.32 1278 2C1280.64 2 1283.28 2 1286 2C1286 1.34 1286 0.68 1286 0C1289.3 0 1292.6 0 1296 0C1296 0.66 1296 1.32 1296 2C1297.98 2 1299.96 2 1302 2C1302 1.34 1302 0.68 1302 0C1306.62 0 1311.24 0 1316 0C1316 0.66 1316 1.32 1316 2C1317.32 2 1318.64 2 1320 2C1320 1.34 1320 0.68 1320 0C1321.98 0 1323.96 0 1326 0C1326 0.66 1326 1.32 1326 2C1334.58 2 1343.16 2 1352 2C1352 1.34 1352 0.68 1352 0C1357.94 0 1363.88 0 1370 0C1370 0.66 1370 1.32 1370 2C1371.98 2 1373.96 2 1376 2C1376 1.34 1376 0.68 1376 0C1377.32 0 1378.64 0 1380 0C1380 0.66 1380 1.32 1380 2C1383.3 2 1386.6 2 1390 2C1390 1.34 1390 0.68 1390 0C1391.98 0 1393.96 0 1396 0C1396 0.66 1396 1.32 1396 2C1397.98 2 1399.96 2 1402 2C1402 1.34 1402 0.68 1402 0C1406.62 0 1411.24 0 1416 0C1416 0.66 1416 1.32 1416 2C1416.66 2 1417.32 2 1418 2C1418 1.34 1418 0.68 1418 0C1425.92 0 1433.84 0 1442 0C1442 0.66 1442 1.32 1442 2C1446.62 2 1451.24 2 1456 2C1456 1.34 1456 0.68 1456 0C1467.88 0 1479.76 0 1492 0C1492 0.66 1492 1.32 1492 2C1496.62 2 1501.24 2 1506 2C1506 1.34 1506 0.68 1506 0C1506.66 0 1507.32 0 1508 0C1508 0.66 1508 1.32 1508 2C1509.32 2 1510.64 2 1512 2C1512 2.66 1512 3.32 1512 4C1512.66 4 1513.32 4 1514 4C1514 18.52 1514 33.04 1514 48C1513.34 48 1512.68 48 1512 48C1512 53.94 1512 59.88 1512 66C1512.66 66 1513.32 66 1514 66C1514 67.32 1514 68.64 1514 70C1513.34 70 1512.68 70 1512 70C1512 74.62 1512 79.24 1512 84C1512.66 84 1513.32 84 1514 84C1514 87.96 1514 91.92 1514 96C1513.34 96 1512.68 96 1512 96C1512 101.28 1512 106.56 1512 112C1512.66 112 1513.32 112 1514 112C1514 117.28 1514 122.56 1514 128C1513.34 128 1512.68 128 1512 128C1512 130.64 1512 133.28 1512 136C1512.66 136 1513.32 136 1514 136C1514 137.32 1514 138.64 1514 140C1513.34 140 1512.68 140 1512 140C1512 140.66 1512 141.32 1512 142C1511.34 142 1510.68 142 1510 142C1510 142.66 1510 143.32 1510 144C1508.02 144 1506.04 144 1504 144C1504 144.66 1504 145.32 1504 146C1501.36 146 1498.72 146 1496 146C1496 145.34 1496 144.68 1496 144C1494.68 144 1493.36 144 1492 144C1492 144.66 1492 145.32 1492 146C1489.36 146 1486.72 146 1484 146C1484 145.34 1484 144.68 1484 144C1483.34 144 1482.68 144 1482 144C1482 144.66 1482 145.32 1482 146C1467.48 146 1452.96 146 1438 146C1438 145.34 1438 144.68 1438 144C1432.72 144 1427.44 144 1422 144C1422 144.66 1422 145.32 1422 146C1414.08 146 1406.16 146 1398 146C1398 145.34 1398 144.68 1398 144C1397.34 144 1396.68 144 1396 144C1396 144.66 1396 145.32 1396 146C1393.36 146 1390.72 146 1388 146C1388 145.34 1388 144.68 1388 144C1386.02 144 1384.04 144 1382 144C1382 144.66 1382 145.32 1382 146C1378.7 146 1375.4 146 1372 146C1372 145.34 1372 144.68 1372 144C1370.68 144 1369.36 144 1368 144C1368 144.66 1368 145.32 1368 146C1363.38 146 1358.76 146 1354 146C1354 145.34 1354 144.68 1354 144C1351.36 144 1348.72 144 1346 144C1346 144.66 1346 145.32 1346 146C1338.08 146 1330.16 146 1322 146C1322 145.34 1322 144.68 1322 144C1318.7 144 1315.4 144 1312 144C1312 144.66 1312 145.32 1312 146C1310.68 146 1309.36 146 1308 146C1308 145.34 1308 144.68 1308 144C1306.02 144 1304.04 144 1302 144C1302 144.66 1302 145.32 1302 146C1300.02 146 1298.04 146 1296 146C1296 145.34 1296 144.68 1296 144C1294.68 144 1293.36 144 1292 144C1292 144.66 1292 145.32 1292 146C1288.7 146 1285.4 146 1282 146C1282 145.34 1282 144.68 1282 144C1281.34 144 1280.68 144 1280 144C1280 144.66 1280 145.32 1280 146C1276.7 146 1273.4 146 1270 146C1270 145.34 1270 144.68 1270 144C1268.68 144 1267.36 144 1266 144C1266 144.66 1266 145.32 1266 146C1260.72 146 1255.44 146 1250 146C1250 145.34 1250 144.68 1250 144C1248.02 144 1246.04 144 1244 144C1244 144.66 1244 145.32 1244 146C1230.14 146 1216.28 146 1202 146C1202 145.34 1202 144.68 1202 144C1200.02 144 1198.04 144 1196 144C1196 144.66 1196 145.32 1196 146C1194.68 146 1193.36 146 1192 146C1192 145.34 1192 144.68 1192 144C1190.68 144 1189.36 144 1188 144C1188 144.66 1188 145.32 1188 146C1186.68 146 1185.36 146 1184 146C1184 145.34 1184 144.68 1184 144C1182.02 144 1180.04 144 1178 144C1178 144.66 1178 145.32 1178 146C1169.42 146 1160.84 146 1152 146C1152 145.34 1152 144.68 1152 144C1150.68 144 1149.36 144 1148 144C1148 144.66 1148 145.32 1148 146C1142.06 146 1136.12 146 1130 146C1130 145.34 1130 144.68 1130 144C1129.34 144 1128.68 144 1128 144C1128 144.66 1128 145.32 1128 146C1123.38 146 1118.76 146 1114 146C1114 145.34 1114 144.68 1114 144C1113.34 144 1112.68 144 1112 144C1112 144.66 1112 145.32 1112 146C1108.04 146 1104.08 146 1100 146C1100 145.34 1100 144.68 1100 144C1098.68 144 1097.36 144 1096 144C1096 144.66 1096 145.32 1096 146C1094.02 146 1092.04 146 1090 146C1090 145.34 1090 144.68 1090 144C1085.38 144 1080.76 144 1076 144C1076 143.34 1076 142.68 1076 142C1074.68 142 1073.36 142 1072 142C1072 142.66 1072 143.32 1072 144C1070.02 144 1068.04 144 1066 144C1066 144.66 1066 145.32 1066 146C1062.7 146 1059.4 146 1056 146C1056 145.34 1056 144.68 1056 144C1049.4 144 1042.8 144 1036 144C1036 144.66 1036 145.32 1036 146C1032.7 146 1029.4 146 1026 146C1026 145.34 1026 144.68 1026 144C1023.36 144 1020.72 144 1018 144C1018 144.66 1018 145.32 1018 146C1014.7 146 1011.4 146 1008 146C1008 145.34 1008 144.68 1008 144C1005.36 144 1002.72 144 1000 144C1000 144.66 1000 145.32 1000 146C998.02 146 996.04 146 994 146C994 145.34 994 144.68 994 144C992.02 144 990.04 144 988 144C988 144.66 988 145.32 988 146C982.72 146 977.44 146 972 146C972 145.34 972 144.68 972 144C970.68 144 969.36 144 968 144C968 144.66 968 145.32 968 146C963.38 146 958.76 146 954 146C954 145.34 954 144.68 954 144C950.7 144 947.4 144 944 144C944 144.66 944 145.32 944 146C940.04 146 936.08 146 932 146C932 145.34 932 144.68 932 144C931.34 144 930.68 144 930 144C930 144.66 930 145.32 930 146C927.36 146 924.72 146 922 146C922 145.34 922 144.68 922 144C919.36 144 916.72 144 914 144C914 144.66 914 145.32 914 146C910.7 146 907.4 146 904 146C904 145.34 904 144.68 904 144C901.36 144 898.72 144 896 144C896 144.66 896 145.32 896 146C895.34 146 894.68 146 894 146C894 145.34 894 144.68 894 144C892.68 144 891.36 144 890 144C890 144.66 890 145.32 890 146C880.1 146 870.2 146 860 146C860 145.34 860 144.68 860 144C857.36 144 854.72 144 852 144C852 144.66 852 145.32 852 146C848.7 146 845.4 146 842 146C842 145.34 842 144.68 842 144C840.68 144 839.36 144 838 144C838 144.66 838 145.32 838 146C835.36 146 832.72 146 830 146C830 145.34 830 144.68 830 144C829.34 144 828.68 144 828 144C828 144.66 828 145.32 828 146C818.76 146 809.52 146 800 146C800 145.34 800 144.68 800 144C795.38 144 790.76 144 786 144C786 144.66 786 145.32 786 146C785.34 146 784.68 146 784 146C784 145.34 784 144.68 784 144C782.68 144 781.36 144 780 144C780 144.66 780 145.32 780 146C779.34 146 778.68 146 778 146C778 145.34 778 144.68 778 144C774.7 144 771.4 144 768 144C768 144.66 768 145.32 768 146C764.04 146 760.08 146 756 146C756 145.34 756 144.68 756 144C754.68 144 753.36 144 752 144C752 144.66 752 145.32 752 146C744.08 146 736.16 146 728 146C728 145.34 728 144.68 728 144C725.36 144 722.72 144 720 144C720 144.66 720 145.32 720 146C717.36 146 714.72 146 712 146C712 145.34 712 144.68 712 144C706.72 144 701.44 144 696 144C696 144.66 696 145.32 696 146C687.42 146 678.84 146 670 146C670 145.34 670 144.68 670 144C665.38 144 660.76 144 656 144C656 144.66 656 145.32 656 146C654.68 146 653.36 146 652 146C652 145.34 652 144.68 652 144C647.38 144 642.76 144 638 144C638 144.66 638 145.32 638 146C637.34 146 636.68 146 636 146C636 145.34 636 144.68 636 144C630.72 144 625.44 144 620 144C620 144.66 620 145.32 620 146C616.7 146 613.4 146 610 146C610 145.34 610 144.68 610 144C607.36 144 604.72 144 602 144C602 144.66 602 145.32 602 146C599.36 146 596.72 146 594 146C594 145.34 594 144.68 594 144C591.36 144 588.72 144 586 144C586 144.66 586 145.32 586 146C584.68 146 583.36 146 582 146C582 145.34 582 144.68 582 144C579.36 144 576.72 144 574 144C574 144.66 574 145.32 574 146C571.36 146 568.72 146 566 146C566 145.34 566 144.68 566 144C562.04 144 558.08 144 554 144C554 144.66 554 145.32 554 146C550.04 146 546.08 146 542 146C542 145.34 542 144.68 542 144C541.34 144 540.68 144 540 144C540 144.66 540 145.32 540 146C534.72 146 529.44 146 524 146C524 145.34 524 144.68 524 144C523.34 144 522.68 144 522 144C522 144.66 522 145.32 522 146C520.68 146 519.36 146 518 146C518 145.34 518 144.68 518 144C516.68 144 515.36 144 514 144C514 144.66 514 145.32 514 146C506.74 146 499.48 146 492 146C492 145.34 492 144.68 492 144C488.04 144 484.08 144 480 144C480 144.66 480 145.32 480 146C475.38 146 470.76 146 466 146C466 145.34 466 144.68 466 144C463.36 144 460.72 144 458 144C458 144.66 458 145.32 458 146C452.06 146 446.12 146 440 146C440 145.34 440 144.68 440 144C436.7 144 433.4 144 430 144C430 144.66 430 145.32 430 146C422.08 146 414.16 146 406 146C406 145.34 406 144.68 406 144C404.02 144 402.04 144 400 144C400 144.66 400 145.32 400 146C393.4 146 386.8 146 380 146C380 145.34 380 144.68 380 144C378.02 144 376.04 144 374 144C374 144.66 374 145.32 374 146C366.74 146 359.48 146 352 146C352 145.34 352 144.68 352 144C345.4 144 338.8 144 332 144C332 144.66 332 145.32 332 146C326.72 146 321.44 146 316 146C316 145.34 316 144.68 316 144C313.36 144 310.72 144 308 144C308 144.66 308 145.32 308 146C307.34 146 306.68 146 306 146C306 145.34 306 144.68 306 144C305.34 144 304.68 144 304 144C304 144.66 304 145.32 304 146C288.16 146 272.32 146 256 146C256 145.34 256 144.68 256 144C255.34 144 254.68 144 254 144C254 144.66 254 145.32 254 146C250.7 146 247.4 146 244 146C244 145.34 244 144.68 244 144C238.72 144 233.44 144 228 144C228 144.66 228 145.32 228 146C224.04 146 220.08 146 216 146C216 145.34 216 144.68 216 144C215.34 144 214.68 144 214 144C214 144.66 214 145.32 214 146C210.7 146 207.4 146 204 146C204 145.34 204 144.68 204 144C202.02 144 200.04 144 198 144C198 144.66 198 145.32 198 146C196.68 146 195.36 146 194 146C194 145.34 194 144.68 194 144C189.38 144 184.76 144 180 144C180 144.66 180 145.32 180 146C168.78 146 157.56 146 146 146C146 145.34 146 144.68 146 144C144.68 144 143.36 144 142 144C142 144.66 142 145.32 142 146C138.04 146 134.08 146 130 146C130 145.34 130 144.68 130 144C128.68 144 127.36 144 126 144C126 144.66 126 145.32 126 146C124.68 146 123.36 146 122 146C122 145.34 122 144.68 122 144C116.72 144 111.44 144 106 144C106 144.66 106 145.32 106 146C105.34 146 104.68 146 104 146C104 145.34 104 144.68 104 144C100.04 144 96.08 144 92 144C92 144.66 92 145.32 92 146C89.36 146 86.72 146 84 146C84 145.34 84 144.68 84 144C83.34 144 82.68 144 82 144C82 144.66 82 145.32 82 146C80.02 146 78.04 146 76 146C76 145.34 76 144.68 76 144C74.68 144 73.36 144 72 144C72 144.66 72 145.32 72 146C68.7 146 65.4 146 62 146C62 145.34 62 144.68 62 144C58.7 144 55.4 144 52 144C52 144.66 52 145.32 52 146C46.06 146 40.12 146 34 146C34 145.34 34 144.68 34 144C28.06 144 22.12 144 16 144C16 144.66 16 145.32 16 146C13.36 146 10.72 146 8 146C8 145.34 8 144.68 8 144C6.68 144 5.36 144 4 144C4 142.68 4 141.36 4 140C3.34 140 2.68 140 2 140C2 136.04 2 132.08 2 128C1.34 128 0.68 128 0 128C0 126.68 0 125.36 0 124C0.66 124 1.32 124 2 124C2 123.34 2 122.68 2 122C1.34 122 0.68 122 0 122C0 120.68 0 119.36 0 118C0.66 118 1.32 118 2 118C2 107.44 2 96.88 2 86C2.66 86 3.32 86 4 86C4 85.34 4 84.68 4 84C3.34 84 2.68 84 2 84C2 72.78 2 61.56 2 50C2.66 50 3.32 50 4 50C4 49.34 4 48.68 4 48C3.34 48 2.68 48 2 48C2 42.72 2 37.44 2 32C1.34 32 0.68 32 0 32C0 31.34 0 30.68 0 30C0.66 30 1.32 30 2 30C2 26.04 2 22.08 2 18C2.66 18 3.32 18 4 18C4 17.34 4 16.68 4 16C3.34 16 2.68 16 2 16C2 13.36 2 10.72 2 8C2.66 8 3.32 8 4 8C4 6.68 4 5.36 4 4C4.66 4 5.32 4 6 4C6 3.34 6 2.68 6 2C9.3 2 12.6 2 16 2C16 1.34 16 0.68 16 0ZM18 14C18 25.22 18 36.44 18 48C17.34 48 16.68 48 16 48C16 53.28 16 58.56 16 64C23.26 64 30.52 64 38 64C38 63.34 38 62.68 38 62C40.64 62 43.28 62 46 62C46 62.66 46 63.32 46 64C51.94 64 57.88 64 64 64C64 64.66 64 65.32 64 66C66.64 66 69.28 66 72 66C72 65.34 72 64.68 72 64C72.66 64 73.32 64 74 64C74 64.66 74 65.32 74 66C75.98 66 77.96 66 80 66C80 65.34 80 64.68 80 64C83.96 64 87.92 64 92 64C92 63.34 92 62.68 92 62C95.96 62 99.92 62 104 62C104 62.66 104 63.32 104 64C108.62 64 113.24 64 118 64C118 64.66 118 65.32 118 66C120.64 66 123.28 66 126 66C126 65.34 126 64.68 126 64C125.34 64 124.68 64 124 64C124 63.34 124 62.68 124 62C122.68 62 121.36 62 120 62C120 61.34 120 60.68 120 60C119.34 60 118.68 60 118 60C118 59.34 118 58.68 118 58C117.34 58 116.68 58 116 58C116 57.34 116 56.68 116 56C115.34 56 114.68 56 114 56C114 54.68 114 53.36 114 52C113.34 52 112.68 52 112 52C112 51.34 112 50.68 112 50C113.32 50 114.64 50 116 50C116 49.34 116 48.68 116 48C116.66 48 117.32 48 118 48C118 48.66 118 49.32 118 50C119.98 50 121.96 50 124 50C124 50.66 124 51.32 124 52C125.32 52 126.64 52 128 52C128 52.66 128 53.32 128 54C128.66 54 129.32 54 130 54C130 54.66 130 55.32 130 56C131.98 56 133.96 56 136 56C136 56.66 136 57.32 136 58C138.64 58 141.28 58 144 58C144 57.34 144 56.68 144 56C144.66 56 145.32 56 146 56C146 53.36 146 50.72 146 48C144.68 48 143.36 48 142 48C142 47.34 142 46.68 142 46C138.7 46 135.4 46 132 46C132 45.34 132 44.68 132 44C130.02 44 128.04 44 126 44C126 43.34 126 42.68 126 42C124.68 42 123.36 42 122 42C122 40.68 122 39.36 122 38C121.34 38 120.68 38 120 38C120 37.34 120 36.68 120 36C119.34 36 118.68 36 118 36C118 33.36 118 30.72 118 28C118.66 28 119.32 28 120 28C120 27.34 120 26.68 120 26C120.66 26 121.32 26 122 26C122 25.34 122 24.68 122 24C122.66 24 123.32 24 124 24C124 23.34 124 22.68 124 22C125.32 22 126.64 22 128 22C128 21.34 128 20.68 128 20C128.66 20 129.32 20 130 20C130 19.34 130 18.68 130 18C137.92 18 145.84 18 154 18C154 18.66 154 19.32 154 20C156.64 20 159.28 20 162 20C162 23.3 162 26.6 162 30C161.34 30 160.68 30 160 30C160 30.66 160 31.32 160 32C158.02 32 156.04 32 154 32C154 31.34 154 30.68 154 30C152.68 30 151.36 30 150 30C150 29.34 150 28.68 150 28C148.02 28 146.04 28 144 28C144 27.34 144 26.68 144 26C141.36 26 138.72 26 136 26C136 26.66 136 27.32 136 28C134.68 28 133.36 28 132 28C132 28.66 132 29.32 132 30C131.34 30 130.68 30 130 30C130 30.66 130 31.32 130 32C129.34 32 128.68 32 128 32C128 32.66 128 33.32 128 34C128.66 34 129.32 34 130 34C130 34.66 130 35.32 130 36C133.96 36 137.92 36 142 36C142 36.66 142 37.32 142 38C145.3 38 148.6 38 152 38C152 38.66 152 39.32 152 40C152.66 40 153.32 40 154 40C154 41.32 154 42.64 154 44C154.66 44 155.32 44 156 44C156 44.66 156 45.32 156 46C156.66 46 157.32 46 158 46C158 47.32 158 48.64 158 50C158.66 50 159.32 50 160 50C160 52.64 160 55.28 160 58C159.34 58 158.68 58 158 58C158 58.66 158 59.32 158 60C157.34 60 156.68 60 156 60C156 60.66 156 61.32 156 62C155.34 62 154.68 62 154 62C154 62.66 154 63.32 154 64C173.8 64 193.6 64 214 64C214 63.34 214 62.68 214 62C214.66 62 215.32 62 216 62C216 62.66 216 63.32 216 64C225.9 64 235.8 64 246 64C246 61.36 246 58.72 246 56C246.66 56 247.32 56 248 56C248 52.7 248 49.4 248 46C247.34 46 246.68 46 246 46C246 37.42 246 28.84 246 20C246.66 20 247.32 20 248 20C248 18.02 248 16.04 248 14C246.02 14 244.04 14 242 14C242 14.66 242 15.32 242 16C241.34 16 240.68 16 240 16C240 15.34 240 14.68 240 14C234.72 14 229.44 14 224 14C224 14.66 224 15.32 224 16C222.68 16 221.36 16 220 16C220 15.34 220 14.68 220 14C217.36 14 214.72 14 212 14C212 14.66 212 15.32 212 16C210.02 16 208.04 16 206 16C206 15.34 206 14.68 206 14C199.4 14 192.8 14 186 14C186 14.66 186 15.32 186 16C184.68 16 183.36 16 182 16C182 15.34 182 14.68 182 14C179.36 14 176.72 14 174 14C174 14.66 174 15.32 174 16C173.34 16 172.68 16 172 16C172 15.34 172 14.68 172 14C171.34 14 170.68 14 170 14C170 14.66 170 15.32 170 16C165.38 16 160.76 16 156 16C156 15.34 156 14.68 156 14C155.34 14 154.68 14 154 14C154 14.66 154 15.32 154 16C152.02 16 150.04 16 148 16C148 15.34 148 14.68 148 14C136.78 14 125.56 14 114 14C114 14.66 114 15.32 114 16C112.02 16 110.04 16 108 16C108 15.34 108 14.68 108 14C106.68 14 105.36 14 104 14C104 14.66 104 15.32 104 16C102.68 16 101.36 16 100 16C100 15.34 100 14.68 100 14C92.74 14 85.48 14 78 14C78 14.66 78 15.32 78 16C77.34 16 76.68 16 76 16C76 15.34 76 14.68 76 14C58.84 14 41.68 14 24 14C24 14.66 24 15.32 24 16C22.68 16 21.36 16 20 16C20 15.34 20 14.68 20 14C19.34 14 18.68 14 18 14ZM514 14C514 25.22 514 36.44 514 48C513.34 48 512.68 48 512 48C512 53.28 512 58.56 512 64C517.28 64 522.56 64 528 64C528 63.34 528 62.68 528 62C529.98 62 531.96 62 534 62C534 62.66 534 63.32 534 64C544.56 64 555.12 64 566 64C566 63.34 566 62.68 566 62C567.32 62 568.64 62 570 62C570 62.66 570 63.32 570 64C576.6 64 583.2 64 590 64C590 63.34 590 62.68 590 62C590.66 62 591.32 62 592 62C592 62.66 592 63.32 592 64C593.98 64 595.96 64 598 64C598 64.66 598 65.32 598 66C598.66 66 599.32 66 600 66C600 65.34 600 64.68 600 64C603.96 64 607.92 64 612 64C612 63.34 612 62.68 612 62C612.66 62 613.32 62 614 62C614 62.66 614 63.32 614 64C617.96 64 621.92 64 626 64C626 64.66 626 65.32 626 66C627.98 66 629.96 66 632 66C632 65.34 632 64.68 632 64C641.24 64 650.48 64 660 64C660 63.34 660 62.68 660 62C662.64 62 665.28 62 668 62C668 62.66 668 63.32 668 64C669.32 64 670.64 64 672 64C672 64.66 672 65.32 672 66C672.66 66 673.32 66 674 66C674 65.34 674 64.68 674 64C682.58 64 691.16 64 700 64C700 64.66 700 65.32 700 66C701.98 66 703.96 66 706 66C706 65.34 706 64.68 706 64C711.94 64 717.88 64 724 64C724 63.34 724 62.68 724 62C724.66 62 725.32 62 726 62C726 62.66 726 63.32 726 64C732.6 64 739.2 64 746 64C746 62.02 746 60.04 746 58C746.66 58 747.32 58 748 58C748 53.38 748 48.76 748 44C747.34 44 746.68 44 746 44C746 40.04 746 36.08 746 32C745.34 32 744.68 32 744 32C744 31.34 744 30.68 744 30C744.66 30 745.32 30 746 30C746 26.7 746 23.4 746 20C746.66 20 747.32 20 748 20C748 18.02 748 16.04 748 14C742.72 14 737.44 14 732 14C732 14.66 732 15.32 732 16C730.02 16 728.04 16 726 16C726 15.34 726 14.68 726 14C724.02 14 722.04 14 720 14C720 14.66 720 15.32 720 16C719.34 16 718.68 16 718 16C718 15.34 718 14.68 718 14C714.04 14 710.08 14 706 14C706 14.66 706 15.32 706 16C705.34 16 704.68 16 704 16C704 15.34 704 14.68 704 14C703.34 14 702.68 14 702 14C702 14.66 702 15.32 702 16C700.68 16 699.36 16 698 16C698 15.34 698 14.68 698 14C696.02 14 694.04 14 692 14C692 14.66 692 15.32 692 16C691.34 16 690.68 16 690 16C690 15.34 690 14.68 690 14C683.4 14 676.8 14 670 14C670 14.66 670 15.32 670 16C668.68 16 667.36 16 666 16C666 15.34 666 14.68 666 14C658.74 14 651.48 14 644 14C644 14.66 644 15.32 644 16C643.34 16 642.68 16 642 16C642 15.34 642 14.68 642 14C629.46 14 616.92 14 604 14C604 14.66 604 15.32 604 16C602.68 16 601.36 16 600 16C600 15.34 600 14.68 600 14C597.36 14 594.72 14 592 14C592 14.66 592 15.32 592 16C590.02 16 588.04 16 586 16C586 15.34 586 14.68 586 14C581.38 14 576.76 14 572 14C572 14.66 572 15.32 572 16C569.36 16 566.72 16 564 16C564 15.34 564 14.68 564 14C559.38 14 554.76 14 550 14C550 14.66 550 15.32 550 16C549.34 16 548.68 16 548 16C548 15.34 548 14.68 548 14C539.42 14 530.84 14 522 14C522 14.66 522 15.32 522 16C521.34 16 520.68 16 520 16C520 15.34 520 14.68 520 14C518.02 14 516.04 14 514 14ZM1110 12C1110 12.66 1110 13.32 1110 14C1107.36 14 1104.72 14 1102 14C1102 14.66 1102 15.32 1102 16C1100.68 16 1099.36 16 1098 16C1098 15.34 1098 14.68 1098 14C1097.34 14 1096.68 14 1096 14C1096 14.66 1096 15.32 1096 16C1095.34 16 1094.68 16 1094 16C1094 15.34 1094 14.68 1094 14C1087.4 14 1080.8 14 1074 14C1074 14.66 1074 15.32 1074 16C1073.34 16 1072.68 16 1072 16C1072 15.34 1072 14.68 1072 14C1070.02 14 1068.04 14 1066 14C1066 14.66 1066 15.32 1066 16C1063.36 16 1060.72 16 1058 16C1058 15.34 1058 14.68 1058 14C1056.68 14 1055.36 14 1054 14C1054 14.66 1054 15.32 1054 16C1053.34 16 1052.68 16 1052 16C1052 15.34 1052 14.68 1052 14C1050.02 14 1048.04 14 1046 14C1046 14.66 1046 15.32 1046 16C1045.34 16 1044.68 16 1044 16C1044 15.34 1044 14.68 1044 14C1042.68 14 1041.36 14 1040 14C1040 14.66 1040 15.32 1040 16C1039.34 16 1038.68 16 1038 16C1038 15.34 1038 14.68 1038 14C1037.34 14 1036.68 14 1036 14C1036 14.66 1036 15.32 1036 16C1035.34 16 1034.68 16 1034 16C1034 15.34 1034 14.68 1034 14C1032.02 14 1030.04 14 1028 14C1028 14.66 1028 15.32 1028 16C1025.36 16 1022.72 16 1020 16C1020 15.34 1020 14.68 1020 14C1019.34 14 1018.68 14 1018 14C1018 14.66 1018 15.32 1018 16C1017.34 16 1016.68 16 1016 16C1016 15.34 1016 14.68 1016 14C1015.34 14 1014.68 14 1014 14C1014 25.22 1014 36.44 1014 48C1013.34 48 1012.68 48 1012 48C1012 53.28 1012 58.56 1012 64C1017.28 64 1022.56 64 1028 64C1028 63.34 1028 62.68 1028 62C1028.66 62 1029.32 62 1030 62C1030 62.66 1030 63.32 1030 64C1032.64 64 1035.28 64 1038 64C1038 64.66 1038 65.32 1038 66C1038.66 66 1039.32 66 1040 66C1040 65.34 1040 64.68 1040 64C1046.6 64 1053.2 64 1060 64C1060 63.34 1060 62.68 1060 62C1061.32 62 1062.64 62 1064 62C1064 62.66 1064 63.32 1064 64C1067.96 64 1071.92 64 1076 64C1076 64.66 1076 65.32 1076 66C1077.32 66 1078.64 66 1080 66C1080 65.34 1080 64.68 1080 64C1089.24 64 1098.48 64 1108 64C1108 63.34 1108 62.68 1108 62C1108.66 62 1109.32 62 1110 62C1110 62.66 1110 63.32 1110 64C1112.64 64 1115.28 64 1118 64C1118 63.34 1118 62.68 1118 62C1117.34 62 1116.68 62 1116 62C1116 61.34 1116 60.68 1116 60C1114.02 60 1112.04 60 1110 60C1110 58.68 1110 57.36 1110 56C1109.34 56 1108.68 56 1108 56C1108 55.34 1108 54.68 1108 54C1107.34 54 1106.68 54 1106 54C1106 52.02 1106 50.04 1106 48C1106.66 48 1107.32 48 1108 48C1108 47.34 1108 46.68 1108 46C1108.66 46 1109.32 46 1110 46C1110 44.02 1110 42.04 1110 40C1110.66 40 1111.32 40 1112 40C1112 38.02 1112 36.04 1112 34C1111.34 34 1110.68 34 1110 34C1110 33.34 1110 32.68 1110 32C1109.34 32 1108.68 32 1108 32C1108 31.34 1108 30.68 1108 30C1108.66 30 1109.32 30 1110 30C1110 28.68 1110 27.36 1110 26C1110.66 26 1111.32 26 1112 26C1112 25.34 1112 24.68 1112 24C1112.66 24 1113.32 24 1114 24C1114 22.68 1114 21.36 1114 20C1114.66 20 1115.32 20 1116 20C1116 19.34 1116 18.68 1116 18C1117.98 18 1119.96 18 1122 18C1122 17.34 1122 16.68 1122 16C1124.64 16 1127.28 16 1130 16C1130 15.34 1130 14.68 1130 14C1124.06 14 1118.12 14 1112 14C1112 13.34 1112 12.68 1112 12C1111.34 12 1110.68 12 1110 12ZM1154 12C1154 12.66 1154 13.32 1154 14C1148.06 14 1142.12 14 1136 14C1136 14.66 1136 15.32 1136 16C1137.32 16 1138.64 16 1140 16C1140 18.64 1140 21.28 1140 24C1139.34 24 1138.68 24 1138 24C1138 24.66 1138 25.32 1138 26C1133.38 26 1128.76 26 1124 26C1124 26.66 1124 27.32 1124 28C1122.68 28 1121.36 28 1120 28C1120 29.32 1120 30.64 1120 32C1120.66 32 1121.32 32 1122 32C1122 32.66 1122 33.32 1122 34C1124.64 34 1127.28 34 1130 34C1130 34.66 1130 35.32 1130 36C1132.64 36 1135.28 36 1138 36C1138 36.66 1138 37.32 1138 38C1138.66 38 1139.32 38 1140 38C1140 39.32 1140 40.64 1140 42C1139.34 42 1138.68 42 1138 42C1138 42.66 1138 43.32 1138 44C1137.34 44 1136.68 44 1136 44C1136 44.66 1136 45.32 1136 46C1131.38 46 1126.76 46 1122 46C1122 46.66 1122 47.32 1122 48C1121.34 48 1120.68 48 1120 48C1120 49.32 1120 50.64 1120 52C1121.98 52 1123.96 52 1126 52C1126 52.66 1126 53.32 1126 54C1127.32 54 1128.64 54 1130 54C1130 53.34 1130 52.68 1130 52C1132.64 52 1135.28 52 1138 52C1138 51.34 1138 50.68 1138 50C1139.32 50 1140.64 50 1142 50C1142 49.34 1142 48.68 1142 48C1142.66 48 1143.32 48 1144 48C1144 46.68 1144 45.36 1144 44C1147.3 44 1150.6 44 1154 44C1154 44.66 1154 45.32 1154 46C1154.66 46 1155.32 46 1156 46C1156 47.98 1156 49.96 1156 52C1155.34 52 1154.68 52 1154 52C1154 52.66 1154 53.32 1154 54C1153.34 54 1152.68 54 1152 54C1152 54.66 1152 55.32 1152 56C1151.34 56 1150.68 56 1150 56C1150 56.66 1150 57.32 1150 58C1148.02 58 1146.04 58 1144 58C1144 58.66 1144 59.32 1144 60C1142.68 60 1141.36 60 1140 60C1140 60.66 1140 61.32 1140 62C1134.72 62 1129.44 62 1124 62C1124 62.66 1124 63.32 1124 64C1133.24 64 1142.48 64 1152 64C1152 63.34 1152 62.68 1152 62C1153.32 62 1154.64 62 1156 62C1156 62.66 1156 63.32 1156 64C1158.64 64 1161.28 64 1164 64C1164 64.66 1164 65.32 1164 66C1164.66 66 1165.32 66 1166 66C1166 65.34 1166 64.68 1166 64C1169.3 64 1172.6 64 1176 64C1176 63.34 1176 62.68 1176 62C1176.66 62 1177.32 62 1178 62C1178 62.66 1178 63.32 1178 64C1179.98 64 1181.96 64 1184 64C1184 64.66 1184 65.32 1184 66C1185.98 66 1187.96 66 1190 66C1190 65.34 1190 64.68 1190 64C1193.96 64 1197.92 64 1202 64C1202 63.34 1202 62.68 1202 62C1204.64 62 1207.28 62 1210 62C1210 62.66 1210 63.32 1210 64C1211.98 64 1213.96 64 1216 64C1216 64.66 1216 65.32 1216 66C1217.32 66 1218.64 66 1220 66C1220 65.34 1220 64.68 1220 64C1225.28 64 1230.56 64 1236 64C1236 63.34 1236 62.68 1236 62C1237.32 62 1238.64 62 1240 62C1240 62.66 1240 63.32 1240 64C1240.66 64 1241.32 64 1242 64C1242 63.34 1242 62.68 1242 62C1242.66 62 1243.32 62 1244 62C1244 62.66 1244 63.32 1244 64C1245.32 64 1246.64 64 1248 64C1248 61.36 1248 58.72 1248 56C1248.66 56 1249.32 56 1250 56C1250 52.7 1250 49.4 1250 46C1249.34 46 1248.68 46 1248 46C1248 37.42 1248 28.84 1248 20C1248.66 20 1249.32 20 1250 20C1250 18.02 1250 16.04 1250 14C1244.72 14 1239.44 14 1234 14C1234 14.66 1234 15.32 1234 16C1233.34 16 1232.68 16 1232 16C1232 15.34 1232 14.68 1232 14C1229.36 14 1226.72 14 1224 14C1224 14.66 1224 15.32 1224 16C1223.34 16 1222.68 16 1222 16C1222 15.34 1222 14.68 1222 14C1221.34 14 1220.68 14 1220 14C1220 14.66 1220 15.32 1220 16C1218.68 16 1217.36 16 1216 16C1216 15.34 1216 14.68 1216 14C1215.34 14 1214.68 14 1214 14C1214 14.66 1214 15.32 1214 16C1212.68 16 1211.36 16 1210 16C1210 15.34 1210 14.68 1210 14C1192.18 14 1174.36 14 1156 14C1156 13.34 1156 12.68 1156 12C1155.34 12 1154.68 12 1154 12ZM266 76C266 76.66 266 77.32 266 78C264.02 78 262.04 78 260 78C260 79.98 260 81.96 260 84C260.66 84 261.32 84 262 84C262 87.96 262 91.92 262 96C261.34 96 260.68 96 260 96C260 100.62 260 105.24 260 110C260.66 110 261.32 110 262 110C262 116.6 262 123.2 262 130C261.34 130 260.68 130 260 130C260 130.66 260 131.32 260 132C267.26 132 274.52 132 282 132C282 131.34 282 130.68 282 130C283.32 130 284.64 130 286 130C286 130.66 286 131.32 286 132C287.32 132 288.64 132 290 132C290 131.34 290 130.68 290 130C291.98 130 293.96 130 296 130C296 130.66 296 131.32 296 132C303.26 132 310.52 132 318 132C318 131.34 318 130.68 318 130C319.98 130 321.96 130 324 130C324 130.66 324 131.32 324 132C333.9 132 343.8 132 354 132C354 131.34 354 130.68 354 130C358.62 130 363.24 130 368 130C368 129.34 368 128.68 368 128C366.02 128 364.04 128 362 128C362 127.34 362 126.68 362 126C360.02 126 358.04 126 356 126C356 125.34 356 124.68 356 124C355.34 124 354.68 124 354 124C354 123.34 354 122.68 354 122C353.34 122 352.68 122 352 122C352 120.68 352 119.36 352 118C351.34 118 350.68 118 350 118C350 114.04 350 110.08 350 106C349.34 106 348.68 106 348 106C348 104.68 348 103.36 348 102C348.66 102 349.32 102 350 102C350 101.34 350 100.68 350 100C350.66 100 351.32 100 352 100C352 98.02 352 96.04 352 94C352.66 94 353.32 94 354 94C354 92.68 354 91.36 354 90C354.66 90 355.32 90 356 90C356 89.34 356 88.68 356 88C356.66 88 357.32 88 358 88C358 87.34 358 86.68 358 86C359.98 86 361.96 86 364 86C364 84.68 364 83.36 364 82C365.98 82 367.96 82 370 82C370 81.34 370 80.68 370 80C374.62 80 379.24 80 384 80C384 79.34 384 78.68 384 78C374.76 78 365.52 78 356 78C356 77.34 356 76.68 356 76C355.34 76 354.68 76 354 76C354 76.66 354 77.32 354 78C330.24 78 306.48 78 282 78C282 77.34 282 76.68 282 76C276.72 76 271.44 76 266 76ZM390 76C390 76.66 390 77.32 390 78C388.68 78 387.36 78 386 78C386 78.66 386 79.32 386 80C387.98 80 389.96 80 392 80C392 80.66 392 81.32 392 82C392.66 82 393.32 82 394 82C394 83.98 394 85.96 394 88C393.34 88 392.68 88 392 88C392 88.66 392 89.32 392 90C390.68 90 389.36 90 388 90C388 90.66 388 91.32 388 92C386.68 92 385.36 92 384 92C384 91.34 384 90.68 384 90C380.7 90 377.4 90 374 90C374 90.66 374 91.32 374 92C372.02 92 370.04 92 368 92C368 92.66 368 93.32 368 94C367.34 94 366.68 94 366 94C366 94.66 366 95.32 366 96C365.34 96 364.68 96 364 96C364 97.32 364 98.64 364 100C363.34 100 362.68 100 362 100C362 100.66 362 101.32 362 102C361.34 102 360.68 102 360 102C360 102.66 360 103.32 360 104C360.66 104 361.32 104 362 104C362 104.66 362 105.32 362 106C361.34 106 360.68 106 360 106C360 106.66 360 107.32 360 108C359.34 108 358.68 108 358 108C358 108.66 358 109.32 358 110C358.66 110 359.32 110 360 110C360 110.66 360 111.32 360 112C360.66 112 361.32 112 362 112C362 112.66 362 113.32 362 114C362.66 114 363.32 114 364 114C364 115.32 364 116.64 364 118C365.98 118 367.96 118 370 118C370 118.66 370 119.32 370 120C370.66 120 371.32 120 372 120C372 120.66 372 121.32 372 122C375.96 122 379.92 122 384 122C384 121.34 384 120.68 384 120C386.64 120 389.28 120 392 120C392 119.34 392 118.68 392 118C393.98 118 395.96 118 398 118C398 117.34 398 116.68 398 116C399.98 116 401.96 116 404 116C404 116.66 404 117.32 404 118C404.66 118 405.32 118 406 118C406 120.64 406 123.28 406 126C404.68 126 403.36 126 402 126C402 126.66 402 127.32 402 128C400.02 128 398.04 128 396 128C396 128.66 396 129.32 396 130C396.66 130 397.32 130 398 130C398 130.66 398 131.32 398 132C413.18 132 428.36 132 444 132C444 131.34 444 130.68 444 130C445.32 130 446.64 130 448 130C448 130.66 448 131.32 448 132C448.66 132 449.32 132 450 132C450 131.34 450 130.68 450 130C452.64 130 455.28 130 458 130C458 130.66 458 131.32 458 132C458.66 132 459.32 132 460 132C460 132.66 460 133.32 460 134C460.66 134 461.32 134 462 134C462 133.34 462 132.68 462 132C463.98 132 465.96 132 468 132C468 131.34 468 130.68 468 130C470.64 130 473.28 130 476 130C476 130.66 476 131.32 476 132C483.26 132 490.52 132 498 132C498 130.02 498 128.04 498 126C497.34 126 496.68 126 496 126C496 123.36 496 120.72 496 118C496.66 118 497.32 118 498 118C498 115.36 498 112.72 498 110C497.34 110 496.68 110 496 110C496 108.68 496 107.36 496 106C496.66 106 497.32 106 498 106C498 96.76 498 87.52 498 78C495.36 78 492.72 78 490 78C490 77.34 490 76.68 490 76C488.68 76 487.36 76 486 76C486 76.66 486 77.32 486 78C482.04 78 478.08 78 474 78C474 77.34 474 76.68 474 76C473.34 76 472.68 76 472 76C472 76.66 472 77.32 472 78C468.7 78 465.4 78 462 78C462 77.34 462 76.68 462 76C459.36 76 456.72 76 454 76C454 76.66 454 77.32 454 78C446.08 78 438.16 78 430 78C430 77.34 430 76.68 430 76C428.68 76 427.36 76 426 76C426 76.66 426 77.32 426 78C415.44 78 404.88 78 394 78C394 77.34 394 76.68 394 76C392.68 76 391.36 76 390 76ZM772 76C772 76.66 772 77.32 772 78C768.7 78 765.4 78 762 78C762 95.82 762 113.64 762 132C772.56 132 783.12 132 794 132C794 132.66 794 133.32 794 134C794.66 134 795.32 134 796 134C796 133.34 796 132.68 796 132C812.5 132 829 132 846 132C846 131.34 846 130.68 846 130C847.32 130 848.64 130 850 130C850 130.66 850 131.32 850 132C853.96 132 857.92 132 862 132C862 131.34 862 130.68 862 130C862.66 130 863.32 130 864 130C864 129.34 864 128.68 864 128C863.34 128 862.68 128 862 128C862 126.68 862 125.36 862 124C861.34 124 860.68 124 860 124C860 123.34 860 122.68 860 122C859.34 122 858.68 122 858 122C858 121.34 858 120.68 858 120C857.34 120 856.68 120 856 120C856 116.7 856 113.4 856 110C856.66 110 857.32 110 858 110C858 109.34 858 108.68 858 108C857.34 108 856.68 108 856 108C856 106.02 856 104.04 856 102C856.66 102 857.32 102 858 102C858 101.34 858 100.68 858 100C858.66 100 859.32 100 860 100C860 98.68 860 97.36 860 96C859.34 96 858.68 96 858 96C858 95.34 858 94.68 858 94C857.34 94 856.68 94 856 94C856 92.68 856 91.36 856 90C855.34 90 854.68 90 854 90C854 89.34 854 88.68 854 88C854.66 88 855.32 88 856 88C856 87.34 856 86.68 856 86C856.66 86 857.32 86 858 86C858 85.34 858 84.68 858 84C860.64 84 863.28 84 866 84C866 84.66 866 85.32 866 86C866.66 86 867.32 86 868 86C868 86.66 868 87.32 868 88C870.64 88 873.28 88 876 88C876 87.34 876 86.68 876 86C876.66 86 877.32 86 878 86C878 85.34 878 84.68 878 84C881.3 84 884.6 84 888 84C888 83.34 888 82.68 888 82C889.98 82 891.96 82 894 82C894 82.66 894 83.32 894 84C894.66 84 895.32 84 896 84C896 84.66 896 85.32 896 86C898.64 86 901.28 86 904 86C904 86.66 904 87.32 904 88C904.66 88 905.32 88 906 88C906 88.66 906 89.32 906 90C907.98 90 909.96 90 912 90C912 90.66 912 91.32 912 92C912.66 92 913.32 92 914 92C914 94.64 914 97.28 914 100C911.36 100 908.72 100 906 100C906 99.34 906 98.68 906 98C905.34 98 904.68 98 904 98C904 97.34 904 96.68 904 96C902.02 96 900.04 96 898 96C898 95.34 898 94.68 898 94C894.04 94 890.08 94 886 94C886 94.66 886 95.32 886 96C883.36 96 880.72 96 878 96C878 96.66 878 97.32 878 98C877.34 98 876.68 98 876 98C876 98.66 876 99.32 876 100C875.34 100 874.68 100 874 100C874 100.66 874 101.32 874 102C874.66 102 875.32 102 876 102C876 103.98 876 105.96 876 108C876.66 108 877.32 108 878 108C878 109.98 878 111.96 878 114C878.66 114 879.32 114 880 114C880 114.66 880 115.32 880 116C880.66 116 881.32 116 882 116C882 119.3 882 122.6 882 126C881.34 126 880.68 126 880 126C880 127.32 880 128.64 880 130C880.66 130 881.32 130 882 130C882 130.66 882 131.32 882 132C883.32 132 884.64 132 886 132C886 131.34 886 130.68 886 130C886.66 130 887.32 130 888 130C888 130.66 888 131.32 888 132C893.94 132 899.88 132 906 132C906 131.34 906 130.68 906 130C907.98 130 909.96 130 912 130C912 130.66 912 131.32 912 132C912.66 132 913.32 132 914 132C914 132.66 914 133.32 914 134C915.32 134 916.64 134 918 134C918 133.34 918 132.68 918 132C924.6 132 931.2 132 938 132C938 131.34 938 130.68 938 130C939.32 130 940.64 130 942 130C942 130.66 942 131.32 942 132C943.32 132 944.64 132 946 132C946 132.66 946 133.32 946 134C947.32 134 948.64 134 950 134C950 133.34 950 132.68 950 132C958.58 132 967.16 132 976 132C976 131.34 976 130.68 976 130C977.32 130 978.64 130 980 130C980 130.66 980 131.32 980 132C983.3 132 986.6 132 990 132C990 132.66 990 133.32 990 134C990.66 134 991.32 134 992 134C992 133.34 992 132.68 992 132C994.64 132 997.28 132 1000 132C1000 131.34 1000 130.68 1000 130C999.34 130 998.68 130 998 130C998 124.06 998 118.12 998 112C998.66 112 999.32 112 1000 112C1000 111.34 1000 110.68 1000 110C999.34 110 998.68 110 998 110C998 108.02 998 106.04 998 104C998.66 104 999.32 104 1000 104C1000 102.68 1000 101.36 1000 100C999.34 100 998.68 100 998 100C998 95.38 998 90.76 998 86C998.66 86 999.32 86 1000 86C1000 84.68 1000 83.36 1000 82C999.34 82 998.68 82 998 82C998 81.34 998 80.68 998 80C998.66 80 999.32 80 1000 80C1000 79.34 1000 78.68 1000 78C994.06 78 988.12 78 982 78C982 77.34 982 76.68 982 76C979.36 76 976.72 76 974 76C974 76.66 974 77.32 974 78C966.74 78 959.48 78 952 78C952 77.34 952 76.68 952 76C951.34 76 950.68 76 950 76C950 76.66 950 77.32 950 78C935.48 78 920.96 78 906 78C906 77.34 906 76.68 906 76C902.7 76 899.4 76 896 76C896 76.66 896 77.32 896 78C890.06 78 884.12 78 878 78C878 77.34 878 76.68 878 76C876.68 76 875.36 76 874 76C874 76.66 874 77.32 874 78C866.74 78 859.48 78 852 78C852 77.34 852 76.68 852 76C851.34 76 850.68 76 850 76C850 76.66 850 77.32 850 78C847.36 78 844.72 78 842 78C842 77.34 842 76.68 842 76C839.36 76 836.72 76 834 76C834 76.66 834 77.32 834 78C828.06 78 822.12 78 816 78C816 77.34 816 76.68 816 76C814.68 76 813.36 76 812 76C812 76.66 812 77.32 812 78C811.34 78 810.68 78 810 78C810 77.34 810 76.68 810 76C808.02 76 806.04 76 804 76C804 76.66 804 77.32 804 78C796.74 78 789.48 78 782 78C782 77.34 782 76.68 782 76C780.02 76 778.04 76 776 76C776 76.66 776 77.32 776 78C775.34 78 774.68 78 774 78C774 77.34 774 76.68 774 76C773.34 76 772.68 76 772 76ZM1280 76C1280 76.66 1280 77.32 1280 78C1274.72 78 1269.44 78 1264 78C1264 79.98 1264 81.96 1264 84C1264.66 84 1265.32 84 1266 84C1266 87.96 1266 91.92 1266 96C1265.34 96 1264.68 96 1264 96C1264 101.28 1264 106.56 1264 112C1264.66 112 1265.32 112 1266 112C1266 117.28 1266 122.56 1266 128C1265.34 128 1264.68 128 1264 128C1264 129.32 1264 130.64 1264 132C1267.96 132 1271.92 132 1276 132C1276 131.34 1276 130.68 1276 130C1276.66 130 1277.32 130 1278 130C1278 130.66 1278 131.32 1278 132C1293.18 132 1308.36 132 1324 132C1324 131.34 1324 130.68 1324 130C1328.62 130 1333.24 130 1338 130C1338 130.66 1338 131.32 1338 132C1345.26 132 1352.52 132 1360 132C1360 131.34 1360 130.68 1360 130C1361.98 130 1363.96 130 1366 130C1366 130.66 1366 131.32 1366 132C1369.3 132 1372.6 132 1376 132C1376 131.34 1376 130.68 1376 130C1374.02 130 1372.04 130 1370 130C1370 129.34 1370 128.68 1370 128C1367.36 128 1364.72 128 1362 128C1362 127.34 1362 126.68 1362 126C1360.68 126 1359.36 126 1358 126C1358 125.34 1358 124.68 1358 124C1357.34 124 1356.68 124 1356 124C1356 123.34 1356 122.68 1356 122C1355.34 122 1354.68 122 1354 122C1354 120.68 1354 119.36 1354 118C1354.66 118 1355.32 118 1356 118C1356 116.68 1356 115.36 1356 114C1358.64 114 1361.28 114 1364 114C1364 114.66 1364 115.32 1364 116C1365.32 116 1366.64 116 1368 116C1368 116.66 1368 117.32 1368 118C1369.32 118 1370.64 118 1372 118C1372 118.66 1372 119.32 1372 120C1377.94 120 1383.88 120 1390 120C1390 119.34 1390 118.68 1390 118C1391.98 118 1393.96 118 1396 118C1396 117.34 1396 116.68 1396 116C1396.66 116 1397.32 116 1398 116C1398 114.02 1398 112.04 1398 110C1396.68 110 1395.36 110 1394 110C1394 109.34 1394 108.68 1394 108C1390.7 108 1387.4 108 1384 108C1384 107.34 1384 106.68 1384 106C1380.04 106 1376.08 106 1372 106C1372 105.34 1372 104.68 1372 104C1370.68 104 1369.36 104 1368 104C1368 103.34 1368 102.68 1368 102C1367.34 102 1366.68 102 1366 102C1366 100.68 1366 99.36 1366 98C1365.34 98 1364.68 98 1364 98C1364 96.68 1364 95.36 1364 94C1364.66 94 1365.32 94 1366 94C1366 92.68 1366 91.36 1366 90C1366.66 90 1367.32 90 1368 90C1368 88.68 1368 87.36 1368 86C1368.66 86 1369.32 86 1370 86C1370 84.68 1370 83.36 1370 82C1370.66 82 1371.32 82 1372 82C1372 81.34 1372 80.68 1372 80C1379.26 80 1386.52 80 1394 80C1394 81.32 1394 82.64 1394 84C1394.66 84 1395.32 84 1396 84C1396 85.32 1396 86.64 1396 88C1395.34 88 1394.68 88 1394 88C1394 88.66 1394 89.32 1394 90C1393.34 90 1392.68 90 1392 90C1392 90.66 1392 91.32 1392 92C1390.02 92 1388.04 92 1386 92C1386 91.34 1386 90.68 1386 90C1384.02 90 1382.04 90 1380 90C1380 90.66 1380 91.32 1380 92C1379.34 92 1378.68 92 1378 92C1378 93.32 1378 94.64 1378 96C1378.66 96 1379.32 96 1380 96C1380 96.66 1380 97.32 1380 98C1387.26 98 1394.52 98 1402 98C1402 98.66 1402 99.32 1402 100C1402.66 100 1403.32 100 1404 100C1404 100.66 1404 101.32 1404 102C1404.66 102 1405.32 102 1406 102C1406 103.32 1406 104.64 1406 106C1406.66 106 1407.32 106 1408 106C1408 107.32 1408 108.64 1408 110C1408.66 110 1409.32 110 1410 110C1410 112.64 1410 115.28 1410 118C1409.34 118 1408.68 118 1408 118C1408 119.32 1408 120.64 1408 122C1407.34 122 1406.68 122 1406 122C1406 122.66 1406 123.32 1406 124C1404.68 124 1403.36 124 1402 124C1402 124.66 1402 125.32 1402 126C1401.34 126 1400.68 126 1400 126C1400 126.66 1400 127.32 1400 128C1396.7 128 1393.4 128 1390 128C1390 128.66 1390 129.32 1390 130C1386.04 130 1382.08 130 1378 130C1378 130.66 1378 131.32 1378 132C1389.88 132 1401.76 132 1414 132C1414 131.34 1414 130.68 1414 130C1415.98 130 1417.96 130 1420 130C1420 130.66 1420 131.32 1420 132C1424.62 132 1429.24 132 1434 132C1434 132.66 1434 133.32 1434 134C1434.66 134 1435.32 134 1436 134C1436 133.34 1436 132.68 1436 132C1437.32 132 1438.64 132 1440 132C1440 131.34 1440 130.68 1440 130C1441.98 130 1443.96 130 1446 130C1446 130.66 1446 131.32 1446 132C1448.64 132 1451.28 132 1454 132C1454 131.34 1454 130.68 1454 130C1455.32 130 1456.64 130 1458 130C1458 130.66 1458 131.32 1458 132C1460.64 132 1463.28 132 1466 132C1466 131.34 1466 130.68 1466 130C1467.32 130 1468.64 130 1470 130C1470 130.66 1470 131.32 1470 132C1472.64 132 1475.28 132 1478 132C1478 131.34 1478 130.68 1478 130C1478.66 130 1479.32 130 1480 130C1480 130.66 1480 131.32 1480 132C1485.94 132 1491.88 132 1498 132C1498 131.34 1498 130.68 1498 130C1497.34 130 1496.68 130 1496 130C1496 124.72 1496 119.44 1496 114C1496.66 114 1497.32 114 1498 114C1498 112.68 1498 111.36 1498 110C1497.34 110 1496.68 110 1496 110C1496 108.68 1496 107.36 1496 106C1496.66 106 1497.32 106 1498 106C1498 104.02 1498 102.04 1498 100C1497.34 100 1496.68 100 1496 100C1496 96.04 1496 92.08 1496 88C1496.66 88 1497.32 88 1498 88C1498 84.7 1498 81.4 1498 78C1496.68 78 1495.36 78 1494 78C1494 77.34 1494 76.68 1494 76C1490.04 76 1486.08 76 1482 76C1482 76.66 1482 77.32 1482 78C1480.02 78 1478.04 78 1476 78C1476 77.34 1476 76.68 1476 76C1474.68 76 1473.36 76 1472 76C1472 76.66 1472 77.32 1472 78C1466.72 78 1461.44 78 1456 78C1456 77.34 1456 76.68 1456 76C1452.04 76 1448.08 76 1444 76C1444 76.66 1444 77.32 1444 78C1440.04 78 1436.08 78 1432 78C1432 77.34 1432 76.68 1432 76C1431.34 76 1430.68 76 1430 76C1430 76.66 1430 77.32 1430 78C1422.74 78 1415.48 78 1408 78C1408 77.34 1408 76.68 1408 76C1407.34 76 1406.68 76 1406 76C1406 76.66 1406 77.32 1406 78C1394.12 78 1382.24 78 1370 78C1370 77.34 1370 76.68 1370 76C1368.68 76 1367.36 76 1366 76C1366 76.66 1366 77.32 1366 78C1364.02 78 1362.04 78 1360 78C1360 77.34 1360 76.68 1360 76C1354.72 76 1349.44 76 1344 76C1344 76.66 1344 77.32 1344 78C1342.02 78 1340.04 78 1338 78C1338 77.34 1338 76.68 1338 76C1336.68 76 1335.36 76 1334 76C1334 76.66 1334 77.32 1334 78C1320.8 78 1307.6 78 1294 78C1294 77.34 1294 76.68 1294 76C1293.34 76 1292.68 76 1292 76C1292 76.66 1292 77.32 1292 78C1288.7 78 1285.4 78 1282 78C1282 77.34 1282 76.68 1282 76C1281.34 76 1280.68 76 1280 76Z" fill="#0F6A5D"/>
<path d="M622 16C624.64 16 627.28 16 630 16C630 16.66 630 17.32 630 18C633.3 18 636.6 18 640 18C640 18.66 640 19.32 640 20C641.98 20 643.96 20 646 20C646 20.66 646 21.32 646 22C646.66 22 647.32 22 648 22C648 22.66 648 23.32 648 24C648.66 24 649.32 24 650 24C650 24.66 650 25.32 650 26C650.66 26 651.32 26 652 26C652 26.66 652 27.32 652 28C653.32 28 654.64 28 656 28C656 33.28 656 38.56 656 44C654.68 44 653.36 44 652 44C652 44.66 652 45.32 652 46C651.34 46 650.68 46 650 46C650 47.32 650 48.64 650 50C650.66 50 651.32 50 652 50C652 50.66 652 51.32 652 52C650.68 52 649.36 52 648 52C648 52.66 648 53.32 648 54C647.34 54 646.68 54 646 54C646 54.66 646 55.32 646 56C643.36 56 640.72 56 638 56C638 56.66 638 57.32 638 58C634.7 58 631.4 58 628 58C628 57.34 628 56.68 628 56C624.04 56 620.08 56 616 56C616 55.34 616 54.68 616 54C614.68 54 613.36 54 612 54C612 53.34 612 52.68 612 52C611.34 52 610.68 52 610 52C610 51.34 610 50.68 610 50C608.68 50 607.36 50 606 50C606 49.34 606 48.68 606 48C605.34 48 604.68 48 604 48C604 47.34 604 46.68 604 46C603.34 46 602.68 46 602 46C602 45.34 602 44.68 602 44C601.34 44 600.68 44 600 44C600 40.04 600 36.08 600 32C600.66 32 601.32 32 602 32C602 30.68 602 29.36 602 28C602.66 28 603.32 28 604 28C604 27.34 604 26.68 604 26C604.66 26 605.32 26 606 26C606 25.34 606 24.68 606 24C606.66 24 607.32 24 608 24C608 23.34 608 22.68 608 22C609.32 22 610.64 22 612 22C612 20.68 612 19.36 612 18C615.3 18 618.6 18 622 18C622 17.34 622 16.68 622 16ZM620 26C620 26.66 620 27.32 620 28C618.68 28 617.36 28 616 28C616 28.66 616 29.32 616 30C615.34 30 614.68 30 614 30C614 30.66 614 31.32 614 32C613.34 32 612.68 32 612 32C612 35.3 612 38.6 612 42C612.66 42 613.32 42 614 42C614 42.66 614 43.32 614 44C615.32 44 616.64 44 618 44C618 44.66 618 45.32 618 46C619.98 46 621.96 46 624 46C624 46.66 624 47.32 624 48C628.62 48 633.24 48 638 48C638 47.34 638 46.68 638 46C638.66 46 639.32 46 640 46C640 45.34 640 44.68 640 44C640.66 44 641.32 44 642 44C642 42.02 642 40.04 642 38C642.66 38 643.32 38 644 38C644 36.68 644 35.36 644 34C643.34 34 642.68 34 642 34C642 33.34 642 32.68 642 32C641.34 32 640.68 32 640 32C640 31.34 640 30.68 640 30C639.34 30 638.68 30 638 30C638 29.34 638 28.68 638 28C636.02 28 634.04 28 632 28C632 27.34 632 26.68 632 26C628.04 26 624.08 26 620 26Z" fill="#0F6A5D"/>
</svg>
