<svg width="210" height="168" viewBox="0 0 210 168" fill="none" xmlns="http://www.w3.org/2000/svg">
<g clip-path="url(#clip0_1_1594)">
<path d="M97 1C104.92 1 112.84 1 121 1C121 1.66 121 2.32 121 3C122.32 3 123.64 3 125 3C125 3.66 125 4.32 125 5C126.98 5 128.96 5 131 5C131 5.66 131 6.32 131 7C132.32 7 133.64 7 135 7C135 7.66 135 8.32 135 9C135.66 9 136.32 9 137 9C137 12.96 137 16.92 137 21C136.34 21 135.68 21 135 21C135 21.66 135 22.32 135 23C134.34 23 133.68 23 133 23C133 23.66 133 24.32 133 25C132.34 25 131.68 25 131 25C131 25.66 131 26.32 131 27C130.34 27 129.68 27 129 27C129 27.66 129 28.32 129 29C127.68 29 126.36 29 125 29C125 29.66 125 30.32 125 31C122.36 31 119.72 31 117 31C117 30.34 117 29.68 117 29C116.34 29 115.68 29 115 29C115 29.66 115 30.32 115 31C111.7 31 108.4 31 105 31C105 31.66 105 32.32 105 33C103.02 33 101.04 33 99 33C99 34.32 99 35.64 99 37C104.94 37 110.88 37 117 37C117 36.34 117 35.68 117 35C120.96 35 124.92 35 129 35C129 34.34 129 33.68 129 33C130.98 33 132.96 33 135 33C135 32.34 135 31.68 135 31C136.98 31 138.96 31 141 31C141 31.66 141 32.32 141 33C142.32 33 143.64 33 145 33C145 32.34 145 31.68 145 31C147.64 31 150.28 31 153 31C153 31.66 153 32.32 153 33C156.3 33 159.6 33 163 33C163 33.66 163 34.32 163 35C163.66 35 164.32 35 165 35C165 35.66 165 36.32 165 37C166.32 37 167.64 37 169 37C169 37.66 169 38.32 169 39C170.32 39 171.64 39 173 39C173 39.66 173 40.32 173 41C173.66 41 174.32 41 175 41C175 42.98 175 44.96 175 47C175.66 47 176.32 47 177 47C177 50.96 177 54.92 177 59C176.34 59 175.68 59 175 59C175 59.66 175 60.32 175 61C174.34 61 173.68 61 173 61C173 61.66 173 62.32 173 63C171.68 63 170.36 63 169 63C169 63.66 169 64.32 169 65C167.02 65 165.04 65 163 65C163 65.66 163 66.32 163 67C162.34 67 161.68 67 161 67C161 67.66 161 68.32 161 69C159.02 69 157.04 69 155 69C155 68.34 155 67.68 155 67C154.34 67 153.68 67 153 67C153 67.66 153 68.32 153 69C150.36 69 147.72 69 145 69C145 69.66 145 70.32 145 71C144.34 71 143.68 71 143 71C143 70.34 143 69.68 143 69C141.68 69 140.36 69 139 69C139 69.66 139 70.32 139 71C133.06 71 127.12 71 121 71C121 71.66 121 72.32 121 73C122.98 73 124.96 73 127 73C127 73.66 127 74.32 127 75C128.98 75 130.96 75 133 75C133 74.34 133 73.68 133 73C139.6 73 146.2 73 153 73C153 73.66 153 74.32 153 75C153.66 75 154.32 75 155 75C155 75.66 155 76.32 155 77C156.98 77 158.96 77 161 77C161 77.66 161 78.32 161 79C161.66 79 162.32 79 163 79C163 83.62 163 88.24 163 93C162.34 93 161.68 93 161 93C161 93.66 161 94.32 161 95C160.34 95 159.68 95 159 95C159 96.32 159 97.64 159 99C157.68 99 156.36 99 155 99C155 99.66 155 100.32 155 101C152.36 101 149.72 101 147 101C147 101.66 147 102.32 147 103C144.36 103 141.72 103 139 103C139 103.66 139 104.32 139 105C135.04 105 131.08 105 127 105C127 106.32 127 107.64 127 109C127.66 109 128.32 109 129 109C129 109.66 129 110.32 129 111C142.86 111 156.72 111 171 111C171 110.34 171 109.68 171 109C171.66 109 172.32 109 173 109C173 109.66 173 110.32 173 111C174.98 111 176.96 111 179 111C179 110.34 179 109.68 179 109C179.66 109 180.32 109 181 109C181 109.66 181 110.32 181 111C181.66 111 182.32 111 183 111C183 110.34 183 109.68 183 109C183.66 109 184.32 109 185 109C185 109.66 185 110.32 185 111C186.98 111 188.96 111 191 111C191 111.66 191 112.32 191 113C192.32 113 193.64 113 195 113C195 113.66 195 114.32 195 115C196.32 115 197.64 115 199 115C199 115.66 199 116.32 199 117C199.66 117 200.32 117 201 117C201 117.66 201 118.32 201 119C201.66 119 202.32 119 203 119C203 119.66 203 120.32 203 121C204.32 121 205.64 121 207 121C207 122.32 207 123.64 207 125C207.66 125 208.32 125 209 125C210.523 128.047 210.142 131.221 210.133 134.562C210.134 135.31 210.135 136.057 210.136 136.826C210.136 138.407 210.135 139.987 210.13 141.567C210.125 143.99 210.13 146.413 210.137 148.836C210.136 150.37 210.135 151.904 210.133 153.438C210.135 154.165 210.137 154.892 210.139 155.641C210.115 160.77 210.115 160.77 209 163C207.68 163 206.36 163 205 163C205 163.66 205 164.32 205 165C201.7 165 198.4 165 195 165C195 164.34 195 163.68 195 163C192.36 163 189.72 163 187 163C187 163.66 187 164.32 187 165C179.08 165 171.16 165 163 165C163 164.34 163 163.68 163 163C161.68 163 160.36 163 159 163C159 163.66 159 164.32 159 165C152.4 165 145.8 165 139 165C139 164.34 139 163.68 139 163C138.34 163 137.68 163 137 163C137 163.66 137 164.32 137 165C133.04 165 129.08 165 125 165C125 165.66 125 166.32 125 167C123.68 167 122.36 167 121 167C121 166.34 121 165.68 121 165C119.68 165 118.36 165 117 165C117 165.66 117 166.32 117 167C111.496 167.779 106.182 168.145 100.628 168.129C99.4361 168.132 99.4361 168.132 98.2202 168.135C95.6208 168.139 93.0214 168.136 90.4219 168.133C88.6044 168.133 86.787 168.134 84.9695 168.136C81.1737 168.137 77.3779 168.135 73.582 168.13C68.7175 168.125 63.853 168.128 58.9884 168.134C55.2413 168.138 51.4941 168.136 47.7469 168.134C45.9528 168.133 44.1586 168.134 42.3645 168.136C39.8611 168.139 37.3578 168.135 34.8545 168.129C33.7448 168.132 33.7448 168.132 32.6126 168.136C29.2669 168.122 26.1986 168.043 23 167C23 166.34 23 165.68 23 165C20.36 165 17.72 165 15 165C15 164.34 15 163.68 15 163C13.68 163 12.36 163 11 163C11 162.34 11 161.68 11 161C10.34 161 9.68 161 9 161C9 159.68 9 158.36 9 157C8.34 157 7.68 157 7 157C7 155.68 7 154.36 7 153C6.34 153 5.68 153 5 153C5 147.72 5 142.44 5 137C4.34 137 3.68 137 3 137C3 135.68 3 134.36 3 133C3.66 133 4.32 133 5 133C5 131.68 5 130.36 5 129C4.34 129 3.68 129 3 129C3 125.7 3 122.4 3 119C2.34 119 1.68 119 1 119C1 117.68 1 116.36 1 115C1.66 115 2.32 115 3 115C3 113.02 3 111.04 3 109C3.66 109 4.32 109 5 109C5 105.04 5 101.08 5 97C5.66 97 6.32 97 7 97C7 95.68 7 94.36 7 93C6.34 93 5.68 93 5 93C5 91.68 5 90.36 5 89C5.66 89 6.32 89 7 89C7 85.7 7 82.4 7 79C7.66 79 8.32 79 9 79C9 75.7 9 72.4 9 69C9.66 69 10.32 69 11 69C11 67.02 11 65.04 11 63C11.66 63 12.32 63 13 63C13 61.02 13 59.04 13 57C13.66 57 14.32 57 15 57C15 55.02 15 53.04 15 51C15.66 51 16.32 51 17 51C17 49.68 17 48.36 17 47C17.66 47 18.32 47 19 47C19 45.02 19 43.04 19 41C19.66 41 20.32 41 21 41C21 40.34 21 39.68 21 39C21.66 39 22.32 39 23 39C23 37.68 23 36.36 23 35C23.66 35 24.32 35 25 35C25 34.34 25 33.68 25 33C25.66 33 26.32 33 27 33C27 32.34 27 31.68 27 31C27.66 31 28.32 31 29 31C29 30.34 29 29.68 29 29C29.66 29 30.32 29 31 29C31 28.34 31 27.68 31 27C31.66 27 32.32 27 33 27C33 25.68 33 24.36 33 23C34.32 23 35.64 23 37 23C37 22.34 37 21.68 37 21C38.32 21 39.64 21 41 21C41 19.68 41 18.36 41 17C42.98 17 44.96 17 47 17C47 16.34 47 15.68 47 15C48.32 15 49.64 15 51 15C51 14.34 51 13.68 51 13C52.32 13 53.64 13 55 13C55 12.34 55 11.68 55 11C55.66 11 56.32 11 57 11C57 10.34 57 9.68 57 9C58.98 9 60.96 9 63 9C63 8.34 63 7.68 63 7C64.98 7 66.96 7 69 7C69 6.34 69 5.68 69 5C72.96 5 76.92 5 81 5C81 4.34 81 3.68 81 3C86.28 3 91.56 3 97 3C97 2.34 97 1.68 97 1Z" fill="#0F6A5D"/>
</g>
<defs>
<clipPath id="clip0_1_1594">
<rect width="210" height="168" fill="white"/>
</clipPath>
</defs>
</svg>
