<svg width="96" height="96" viewBox="0 0 96 96" fill="none" xmlns="http://www.w3.org/2000/svg">
<path d="M16.0512 11.7905C19.1342 8.70752 28.3832 1 43.7983 1C59.2133 1 89.2725 4.08301 94.6678 35.6838C100.063 67.2846 87.731 73.4506 81.565 78.8458C76.6322 83.162 62.5532 84.7549 56.1303 85.0118C52.2765 101.198 30.6955 93.4901 18.3635 85.0118C6.03147 76.5336 -2.44679 56.4941 0.636209 41.8498C3.71921 27.2055 11.4267 16.415 16.0512 11.7905Z" fill="#D34A4E"/>
<path d="M40.7152 36.4546C41.3318 16.7233 48.1658 10.7629 51.5058 10.249C73.0868 5.31622 84.1342 16.9289 86.9603 23.3518C95.4385 41.8498 91.5848 66.5138 83.1065 74.2213C74.6283 81.9288 63.067 82.6996 55.3595 81.9288C52.2765 89.6364 48.4228 91.1779 45.3397 88.0949C42.2567 85.0119 39.9445 61.1186 40.7152 36.4546Z" fill="#F8E491"/>
<path d="M80.7943 31.83C80.5374 32.8577 80.6401 34.913 83.1065 34.913" stroke="#F0CA7D" stroke-linecap="round"/>
<path d="M59.984 43.3913C59.7271 44.6759 59.6757 47.245 61.5255 47.245M60.7548 65.7431C60.4978 66.5138 60.2923 68.0553 61.5255 68.0553M45.3397 34.913C45.0828 35.4269 44.8773 36.6087 46.1105 37.2253M45.3398 61.1185C45.0828 62.1462 45.0315 64.2016 46.8813 64.2016" stroke="#F0CA7D" stroke-linecap="round"/>
<path d="M63.067 16.415C62.5532 16.9288 61.8338 18.2648 63.067 19.498" stroke="#F0CA7D" stroke-linecap="round"/>
<path d="M52.2765 11.7905C52.0196 25.664 52.2765 58.6522 55.3595 79.6166" stroke="#F0CA7D" stroke-linecap="round"/>
</svg>
