<svg width="97" height="96" viewBox="0 0 97 96" fill="none" xmlns="http://www.w3.org/2000/svg">
<path d="M15.4127 25C17.4127 23 23.4127 18 33.4127 18C43.4127 18 62.9127 20 66.4127 40.5C69.9127 61 61.9127 65 57.9127 68.5C54.7127 71.3 45.5794 72.3333 41.4127 72.5C38.9127 83 24.9127 78 16.9127 72.5C8.91272 67 3.41272 54 5.41272 44.5C7.41272 35 12.4127 28 15.4127 25Z" fill="#D34A4E"/>
<path d="M31.4127 41C31.8127 28.2 36.2461 24.3333 38.4127 24C52.4127 20.8 59.5794 28.3333 61.4127 32.5C66.9127 44.5 64.4127 60.5 58.9127 65.5C53.4127 70.5 45.9127 71 40.9127 70.5C38.9127 75.5 36.4127 76.5 34.4127 74.5C32.4127 72.5 30.9127 57 31.4127 41Z" fill="#F8E491"/>
<path d="M91.4127 58.5L50.4127 54.5C50.9127 60 50.9127 74.5 68.9127 77C83.3127 79 90.0794 65.5 91.4127 58.5Z" fill="#D34A4E"/>
<path d="M89.9127 59.5L51.9127 56C52.9127 72 60.9127 73.6364 70.9127 75C80.9127 76.3636 87.4127 68.5 89.9127 59.5Z" fill="#F8E491"/>
<path d="M59.9127 61.5C59.7461 62.3333 59.7127 64 60.9127 64" stroke="#F0CA7D" stroke-linecap="round"/>
<path d="M73.9127 69C73.7461 69.6667 73.7127 71 74.9127 71" stroke="#F0CA7D" stroke-linecap="round"/>
<path d="M57.4127 38C57.2461 38.6667 57.3127 40 58.9127 40" stroke="#F0CA7D" stroke-linecap="round"/>
<path d="M43.9127 45.5C43.746 46.3333 43.7127 48 44.9127 48M44.4127 60C44.246 60.5 44.1127 61.5 44.9127 61.5M34.4127 40C34.246 40.3333 34.1127 41.1 34.9127 41.5M34.4127 57C34.2461 57.6667 34.2127 59 35.4127 59" stroke="#F0CA7D" stroke-linecap="round"/>
<path d="M45.9127 28C45.5794 28.3333 45.1127 29.2 45.9127 30" stroke="#F0CA7D" stroke-linecap="round"/>
<path d="M38.9127 25C38.7461 34 38.9127 55.4 40.9127 69" stroke="#F0CA7D" stroke-linecap="round"/>
</svg>
