<svg width="700" height="482" viewBox="0 0 700 482" fill="none" xmlns="http://www.w3.org/2000/svg">
<g clip-path="url(#clip0_2_78)">
<path d="M0 450.19V0.690012C5.81 -0.129988 12.87 0.500012 17.17 0.500012H693.11C693.386 0.501012 693.634 0.677012 693.73 0.940012C701.66 22.51 702.79 48.98 692.27 69.6C679.33 94.98 655.19 110.23 627.75 114.77C598.49 119.61 567.93 116.84 539.58 125.84C526.04 130.14 511.97 138.45 503.12 149.25C482.64 174.28 494.96 204.3 502.03 231.6C507.277 251.833 507.317 271.943 502.15 291.93C487.75 347.65 442.29 389.52 387.41 404.44C335.76 418.48 276.46 411.62 227.73 392.05C201.217 381.397 182.643 374.12 172.01 370.22C155.87 364.29 135.96 359.44 118.52 359.05C63.37 357.82 16.91 397.56 2.75 449.76C1.783 453.327 1.213 459.743 1.04 469.01C1.033 469.343 1.02 469.347 1 469.02L0 450.19Z" fill="#AC6DC1"/>
<path d="M76.4373 221.938L76.9595 222.853C77.5586 223.903 78.1224 224.578 78.651 224.878C79.1796 225.178 79.7418 225.158 80.3376 224.818C80.9334 224.478 81.2365 224.004 81.247 223.396C81.2575 222.789 80.9632 221.96 80.3641 220.91L79.842 219.995L76.4373 221.938ZM82.9487 218.222L83.3858 218.988C84.1306 220.293 85.0208 220.65 86.0564 220.059C87.0919 219.468 87.2373 218.52 86.4926 217.215L86.0554 216.449L82.9487 218.222ZM86.8672 210.457L90.413 216.671C91.2549 218.146 91.5398 219.469 91.2677 220.64C90.9955 221.811 90.1927 222.776 88.8592 223.537C88.0506 223.999 87.2918 224.234 86.5827 224.244C85.8959 224.26 85.1981 224.075 84.4893 223.69C84.7158 224.35 84.8259 224.955 84.8195 225.504C84.8354 226.059 84.7459 226.562 84.5512 227.011C84.3646 227.475 84.0908 227.885 83.73 228.242C83.3692 228.598 82.9476 228.914 82.4653 229.189C81.7134 229.618 80.9698 229.864 80.2344 229.926C79.507 230.003 78.8071 229.913 78.1347 229.658C77.4703 229.416 76.8445 229.012 76.2574 228.444C75.6702 227.876 75.1337 227.167 74.648 226.316L70.8229 219.613L86.8672 210.457Z" fill="#351F59"/>
<path d="M89.2517 232.525C88.6457 232.941 88.1655 233.439 87.8109 234.019C87.4564 234.6 87.2246 235.214 87.1157 235.864C87.0067 236.513 87.0201 237.167 87.156 237.827C87.3145 238.491 87.5925 239.112 87.99 239.691C88.3875 240.27 88.8629 240.746 89.4161 241.119C89.9921 241.497 90.6026 241.751 91.2477 241.883C91.9021 242.028 92.5637 242.039 93.2325 241.917C93.9014 241.795 94.5388 241.526 95.1448 241.11C95.7507 240.694 96.231 240.195 96.5855 239.615C96.9401 239.035 97.1672 238.414 97.2669 237.751C97.3759 237.101 97.3511 236.445 97.1926 235.781C97.0568 235.121 96.7901 234.502 96.3926 233.923C95.9951 233.344 95.5084 232.866 94.9324 232.489C94.3792 232.116 93.78 231.863 93.1349 231.732C92.4897 231.6 91.8328 231.595 91.1639 231.718C90.4951 231.84 89.8577 232.109 89.2517 232.525ZM86.4092 228.384C87.5403 227.608 88.7339 227.096 89.99 226.847C91.2596 226.59 92.5121 226.582 93.7477 226.824C94.9833 227.065 96.1543 227.559 97.2608 228.305C98.3901 229.055 99.3799 230.05 100.23 231.289C101.072 232.514 101.639 233.788 101.934 235.112C102.241 236.426 102.286 237.703 102.067 238.943C101.858 240.196 101.405 241.369 100.708 242.461C100.025 243.544 99.1184 244.474 97.9873 245.25C96.8562 246.027 95.6558 246.544 94.3863 246.801C93.1302 247.049 91.8797 247.046 90.6349 246.791C89.3993 246.549 88.2169 246.054 87.0877 245.303C85.9719 244.544 84.9935 243.551 84.1523 242.326C83.3018 241.087 82.7227 239.811 82.4149 238.496C82.1298 237.186 82.0966 235.912 82.3153 234.672C82.534 233.432 82.9849 232.271 83.6678 231.188C84.3643 230.095 85.2781 229.161 86.4092 228.384Z" fill="#351F59"/>
<path d="M109.702 245.015L101.915 251.361C101.497 251.701 101.077 252.064 100.655 252.451C100.255 252.84 99.9398 253.254 99.7091 253.695C99.4887 254.149 99.4038 254.639 99.4545 255.167C99.5178 255.684 99.8023 256.253 100.308 256.874C100.813 257.494 101.308 257.881 101.791 258.035C102.298 258.191 102.796 258.207 103.284 258.083C103.773 257.958 104.243 257.734 104.694 257.408C105.168 257.085 105.614 256.753 106.032 256.413L113.819 250.067L116.837 253.771L108.537 260.534C106.308 262.35 104.264 263.163 102.402 262.973C100.551 262.796 98.7641 261.65 97.0411 259.535C95.318 257.421 94.5514 255.433 94.7413 253.572C94.9312 251.71 96.1404 249.872 98.3689 248.056L106.669 241.293L109.702 245.015Z" fill="#351F59"/>
<path d="M121.981 259.289L111.445 269.113L115.371 273.324L112.396 276.098L105.195 268.375L118.706 255.777L121.981 259.289Z" fill="#351F59"/>
<path d="M120.436 278.336L121.238 279.093C121.844 279.665 122.474 280.08 123.129 280.338C123.783 280.597 124.428 280.711 125.062 280.681C125.709 280.662 126.328 280.506 126.92 280.211C127.536 279.916 128.101 279.496 128.617 278.949C129.122 278.415 129.503 277.832 129.763 277.2C130.022 276.569 130.142 275.93 130.123 275.283C130.116 274.648 129.965 274.011 129.669 273.373C129.374 272.734 128.929 272.135 128.335 271.574L127.533 270.817L120.436 278.336ZM126.832 264.564L131.999 269.441C132.914 270.304 133.595 271.295 134.044 272.414C134.504 273.545 134.739 274.699 134.75 275.878C134.784 277.055 134.587 278.216 134.158 279.361C133.74 280.494 133.111 281.506 132.27 282.397C131.44 283.276 130.466 283.962 129.348 284.457C128.253 284.951 127.111 285.22 125.923 285.266C124.746 285.323 123.58 285.155 122.424 284.761C121.281 284.378 120.246 283.749 119.32 282.875L114.153 277.998L126.832 264.564Z" fill="#351F59"/>
<path d="M145.626 286.665L141.214 283.042L139.255 285.428L143.421 288.848L140.84 291.992L136.674 288.572L134.653 291.033L139.065 294.656L136.485 297.799L128.361 291.13L140.083 276.852L148.206 283.521L145.626 286.665Z" fill="#351F59"/>
<path d="M149.079 294.457L149.82 294.98C150.594 295.526 151.3 295.785 151.94 295.757C152.58 295.729 153.112 295.415 153.536 294.814C153.96 294.214 154.078 293.607 153.89 292.995C153.703 292.383 153.222 291.804 152.448 291.257L151.708 290.734L149.079 294.457ZM151.812 308.893L146.929 305.445L147.285 296.999L143.186 302.802L139.264 300.033L149.919 284.942L156.023 289.253C156.864 289.846 157.508 290.491 157.956 291.187C158.414 291.87 158.692 292.567 158.791 293.276C158.903 293.995 158.861 294.706 158.666 295.407C158.483 296.118 158.166 296.794 157.714 297.435C156.904 298.582 155.964 299.318 154.895 299.643C153.848 299.964 152.695 299.869 151.436 299.36L151.812 308.893Z" fill="#351F59"/>
<path d="M167.512 296.822L157.715 312.483L153.644 309.937L163.44 294.275L167.512 296.822Z" fill="#351F59"/>
<path d="M161.036 314.689L169.646 298.346L173.895 300.584L176.477 314.71L181.742 304.718L185.968 306.945L177.358 323.288L173.131 321.061L170.549 306.935L165.285 316.928L161.036 314.689Z" fill="#351F59"/>
<path d="M193.516 318.774L202.386 322.259C202.028 323.171 201.664 323.985 201.296 324.7C200.927 325.415 200.503 326.047 200.024 326.596C199.353 327.367 198.606 327.995 197.784 328.479C196.968 328.948 196.095 329.272 195.165 329.451C194.256 329.62 193.313 329.653 192.335 329.55C191.358 329.447 190.383 329.204 189.41 328.822C188.072 328.296 186.935 327.595 185.998 326.718C185.077 325.847 184.377 324.861 183.897 323.76C183.423 322.644 183.183 321.444 183.178 320.161C183.179 318.863 183.446 317.538 183.977 316.185C184.503 314.847 185.197 313.707 186.058 312.764C186.941 311.812 187.933 311.097 189.034 310.617C190.151 310.143 191.358 309.906 192.656 309.907C193.954 309.909 195.295 310.181 196.678 310.724C198.472 311.429 199.893 312.435 200.942 313.742C201.99 315.049 202.59 316.671 202.741 318.608L197.81 318.698C197.785 317.6 197.534 316.72 197.057 316.059C196.595 315.403 195.961 314.918 195.155 314.601C194.486 314.338 193.827 314.228 193.179 314.272C192.536 314.3 191.924 314.472 191.344 314.788C190.785 315.095 190.262 315.53 189.778 316.094C189.308 316.665 188.915 317.352 188.598 318.158C188.312 318.888 188.137 319.6 188.075 320.295C188.027 320.996 188.104 321.649 188.305 322.255C188.506 322.86 188.837 323.402 189.298 323.882C189.765 324.346 190.371 324.724 191.115 325.017C191.556 325.19 192 325.312 192.446 325.382C192.898 325.437 193.326 325.421 193.729 325.333C194.153 325.237 194.54 325.055 194.89 324.789C195.24 324.523 195.552 324.154 195.825 323.682L192.154 322.24L193.516 318.774Z" fill="#351F59"/>
<path d="M225.543 326.301C224.781 324.723 223.606 323.742 222.018 323.36C221.319 323.192 220.638 323.162 219.973 323.27C219.324 323.383 218.732 323.61 218.196 323.951C217.664 324.277 217.198 324.71 216.799 325.253C216.415 325.799 216.14 326.421 215.971 327.12C215.799 327.834 215.759 328.522 215.852 329.183C215.961 329.847 216.176 330.454 216.498 331.001C216.835 331.553 217.267 332.027 217.793 332.422C218.32 332.818 218.924 333.098 219.607 333.263C221.1 333.622 222.594 333.31 224.091 332.327L222.76 337.853L222.244 337.905C221.468 337.987 220.757 338.009 220.111 337.971C219.461 337.948 218.834 337.865 218.231 337.719C216.992 337.421 215.857 336.904 214.824 336.168C213.812 335.42 212.97 334.52 212.3 333.468C211.649 332.404 211.201 331.229 210.956 329.944C210.715 328.642 210.761 327.301 211.094 325.919C211.427 324.538 211.985 323.337 212.769 322.316C213.572 321.283 214.502 320.457 215.558 319.838C216.634 319.207 217.8 318.799 219.054 318.614C220.312 318.413 221.568 318.463 222.823 318.766C223.537 318.938 224.217 319.185 224.861 319.509C225.525 319.82 226.2 320.226 226.886 320.727L225.543 326.301Z" fill="#351F59"/>
<path d="M231.491 330.441C231.39 331.169 231.434 331.86 231.624 332.513C231.814 333.166 232.112 333.751 232.519 334.269C232.925 334.787 233.418 335.218 233.997 335.562C234.594 335.892 235.241 336.106 235.936 336.202C236.632 336.298 237.304 336.268 237.952 336.11C238.619 335.939 239.219 335.659 239.751 335.271C240.299 334.886 240.753 334.404 241.113 333.828C241.473 333.251 241.704 332.599 241.805 331.871C241.906 331.142 241.861 330.452 241.671 329.799C241.481 329.146 241.175 328.56 240.753 328.039C240.346 327.521 239.844 327.097 239.247 326.767C238.668 326.423 238.031 326.203 237.335 326.107C236.639 326.01 235.958 326.048 235.291 326.219C234.643 326.377 234.053 326.649 233.521 327.037C232.989 327.425 232.543 327.908 232.182 328.484C231.822 329.061 231.592 329.713 231.491 330.441ZM226.516 329.752C226.704 328.393 227.13 327.166 227.793 326.071C228.458 324.959 229.296 324.028 230.307 323.278C231.318 322.527 232.472 321.995 233.768 321.68C235.084 321.351 236.486 321.289 237.974 321.496C239.446 321.7 240.771 322.139 241.947 322.813C243.125 323.471 244.099 324.298 244.868 325.295C245.653 326.294 246.214 327.419 246.552 328.67C246.892 329.904 246.968 331.201 246.78 332.56C246.591 333.919 246.165 335.154 245.5 336.266C244.837 337.361 243.992 338.283 242.965 339.031C241.954 339.781 240.791 340.321 239.475 340.65C238.162 340.963 236.77 341.017 235.297 340.813C233.809 340.607 232.475 340.175 231.297 339.517C230.137 338.845 229.172 338.01 228.404 337.013C227.635 336.016 227.08 334.901 226.74 333.666C226.402 332.416 226.328 331.111 226.516 329.752Z" fill="#351F59"/>
<path d="M247.871 341.962L251.435 323.567L256.187 323.677L259.657 333.609L263.559 323.848L268.311 323.958L271.018 342.499L266.241 342.388L264.896 331.721L260.29 342.25L258.379 342.206L254.486 331.48L252.648 342.073L247.871 341.962Z" fill="#351F59"/>
<path d="M278.296 331.866L279.885 331.75C281.644 331.621 282.468 330.791 282.356 329.26C282.243 327.729 281.308 327.027 279.548 327.156L277.96 327.272L278.296 331.866ZM279.026 341.835L274.237 342.186L272.889 323.762L280.512 323.204C282.581 323.053 284.2 323.475 285.37 324.47C286.557 325.464 287.222 326.938 287.365 328.893C287.508 330.848 287.065 332.403 286.036 333.56C285.023 334.715 283.482 335.368 281.413 335.519L278.579 335.727L279.026 341.835Z" fill="#351F59"/>
<path d="M299.371 325.145L293.714 325.908L294.127 328.968L299.469 328.246L300.013 332.277L294.671 332.998L295.097 336.154L300.755 335.391L301.299 339.421L290.883 340.827L288.411 322.52L298.827 321.114L299.371 325.145Z" fill="#351F59"/>
<path d="M308.996 323.389L311.654 337.548L306.935 338.434L304.276 324.276L300.4 325.003L299.649 321.006L312.122 318.664L312.873 322.661L308.996 323.389Z" fill="#351F59"/>
<path d="M318.233 317.211L322.36 335.217L317.68 336.29L313.553 318.284L318.233 317.211Z" fill="#351F59"/>
<path d="M329.208 318.575L332.95 332.486L328.313 333.733L324.571 319.822L320.762 320.846L319.705 316.919L331.961 313.623L333.017 317.55L329.208 318.575Z" fill="#351F59"/>
<path d="M337.978 311.727L343.403 329.386L338.813 330.796L333.388 313.137L337.978 311.727Z" fill="#351F59"/>
<path d="M348.015 318.179C348.264 318.871 348.624 319.462 349.096 319.951C349.567 320.441 350.103 320.821 350.704 321.091C351.304 321.361 351.941 321.514 352.613 321.55C353.295 321.564 353.967 321.453 354.628 321.215C355.289 320.977 355.87 320.638 356.371 320.197C356.882 319.735 357.282 319.209 357.573 318.619C357.879 318.022 358.058 317.385 358.109 316.707C358.16 316.029 358.061 315.344 357.812 314.653C357.563 313.961 357.203 313.37 356.732 312.88C356.26 312.391 355.716 312.013 355.1 311.749C354.5 311.479 353.858 311.337 353.176 311.322C352.504 311.286 351.837 311.387 351.176 311.625C350.515 311.863 349.929 312.213 349.419 312.675C348.918 313.115 348.522 313.631 348.231 314.222C347.94 314.812 347.769 315.447 347.718 316.125C347.667 316.803 347.766 317.488 348.015 318.179ZM343.289 319.88C342.825 318.589 342.631 317.305 342.709 316.027C342.782 314.734 343.092 313.52 343.638 312.386C344.185 311.252 344.959 310.244 345.961 309.362C346.973 308.46 348.186 307.754 349.6 307.245C350.998 306.742 352.375 306.516 353.73 306.566C355.079 306.601 356.325 306.881 357.469 307.407C358.629 307.927 359.649 308.662 360.529 309.613C361.403 310.548 362.073 311.661 362.538 312.952C363.002 314.243 363.198 315.535 363.126 316.828C363.048 318.106 362.728 319.315 362.166 320.455C361.619 321.589 360.84 322.607 359.828 323.509C358.811 324.396 357.603 325.091 356.204 325.595C354.791 326.104 353.409 326.341 352.06 326.306C350.72 326.25 349.479 325.959 348.335 325.433C347.191 324.908 346.181 324.177 345.307 323.242C344.426 322.292 343.754 321.171 343.289 319.88Z" fill="#351F59"/>
<path d="M368.575 320.445L361.263 303.48L365.673 301.58L378.288 308.441L373.818 298.069L378.205 296.178L385.517 313.143L381.13 315.034L368.514 308.172L372.985 318.544L368.575 320.445Z" fill="#351F59"/>
<path d="M0 450.19L1 469.02C1.02 469.347 1.033 469.343 1.04 469.01C1.213 459.743 1.783 453.327 2.75 449.76C16.91 397.56 63.37 357.82 118.52 359.05C135.96 359.44 155.87 364.29 172.01 370.22C182.643 374.12 201.217 381.397 227.73 392.05C276.46 411.62 335.76 418.48 387.41 404.44C442.29 389.52 487.75 347.65 502.15 291.93C507.317 271.943 507.277 251.833 502.03 231.6C494.96 204.3 482.64 174.28 503.12 149.25C511.97 138.45 526.04 130.14 539.58 125.84C567.93 116.84 598.49 119.61 627.75 114.77C655.19 110.23 679.33 94.98 692.27 69.6C702.79 48.98 701.66 22.51 693.73 0.940012C693.634 0.677012 693.386 0.501012 693.11 0.500012H17.17C12.87 0.500012 5.81 -0.129988 0 0.690012" stroke="#D6B6E0" stroke-width="2"/>
<path d="M205.04 90.71C216.97 56.51 191.46 33.52 160.06 28.91C127.08 24.06 94.59 36.67 78.31 66.79C61.37 98.13 63.96 151.36 105.12 163.99C132.18 172.3 152.63 152.76 162.49 129.51C162.706 128.995 163.174 128.631 163.72 128.55C170.37 127.55 170.12 132.56 168.54 137.04C164.98 147.16 163.6 157.39 173.58 164.2C181.033 169.287 189.263 170.977 198.27 169.27C210.64 166.93 219.97 156.08 215.87 143.47C211.6 130.33 199.18 121.94 200.16 106.71C200.49 101.61 203.22 95.91 205.04 90.71Z" stroke="#D6B6E0" stroke-width="2"/>
<path d="M295.09 238.07C276.41 235.23 258.21 241.01 240.9 230.31C234.71 226.48 230.26 219.92 232.47 212.71C233.86 208.2 240.02 201.99 242.81 199.06C264.4 176.39 296.95 148.07 296.31 117.56C296 102.96 287.61 85.83 275.25 77.6C256.95 65.42 231.24 70.81 218.44 88.71C201.87 111.88 228.53 133.71 222.62 156.24C220.97 162.54 215.1 170.07 210.33 174.34C196.43 186.79 174.88 198.13 164.13 216.78C149.83 241.58 157.63 273.84 188.52 279.68C201.85 282.2 217.96 277.17 228.95 272.48C235.69 269.607 242.097 269.453 248.17 272.02C253.29 274.18 258.28 279.12 262.83 281.36C274.443 287.08 286.56 287.463 299.18 282.51C323.27 273.05 321.35 242.08 295.09 238.07Z" stroke="#D6B6E0" stroke-width="2"/>
<path d="M293.53 146.51C281.3 167.55 283.29 197.49 293.93 218.68C302.757 236.26 316.773 247.477 335.98 252.33C376.17 262.5 431.7 239.69 435.37 192.67C435.97 184.94 434.83 178.45 425.93 177.83C403.85 176.28 396.66 190.82 387.19 206.97C382.77 214.51 376.44 221.5 367.02 221.72C360.16 221.87 348.84 213.11 357.8 206.8C373.52 195.72 390.04 180.13 391.73 159.7C393.26 141.08 384.48 128.13 366.71 122.76C340.65 114.89 308.19 121.3 293.53 146.51Z" stroke="#D6B6E0" stroke-width="2"/>
<path d="M143.82 84.6C145.65 78.71 140.84 75.27 135.52 76.07C128.52 77.11 123.727 80.89 121.14 87.41C118.64 93.72 122.53 103.49 130.59 99.38C134.79 97.25 142.49 88.87 143.82 84.6Z" stroke="#D4B8DD" stroke-width="2"/>
<path d="M327.29 165.76C313.4 172.97 324.05 187.1 332.1 176.37C334.36 173.37 336.35 171.09 339.92 169.36C344.33 167.21 357.22 161.85 351.85 154.59C350.08 152.18 347.85 152.91 345.67 154.48C339.817 158.673 333.69 162.433 327.29 165.76Z" stroke="#D4B8DD" stroke-width="2"/>
<path d="M160.06 28.91C191.46 33.52 216.97 56.51 205.04 90.71C203.22 95.91 200.49 101.61 200.16 106.71C199.18 121.94 211.6 130.33 215.87 143.47C219.97 156.08 210.64 166.93 198.27 169.27C189.263 170.977 181.033 169.287 173.58 164.2C163.6 157.39 164.98 147.16 168.54 137.04C170.12 132.56 170.37 127.55 163.72 128.55C163.174 128.631 162.706 128.995 162.49 129.51C152.63 152.76 132.18 172.3 105.12 163.99C63.96 151.36 61.37 98.13 78.31 66.79C94.59 36.67 127.08 24.06 160.06 28.91ZM143.82 84.6C145.65 78.71 140.84 75.27 135.52 76.07C128.52 77.11 123.727 80.89 121.14 87.41C118.64 93.72 122.53 103.49 130.59 99.38C134.79 97.25 142.49 88.87 143.82 84.6Z" fill="white"/>
<path d="M240.9 230.31C258.21 241.01 276.41 235.23 295.09 238.07C321.35 242.08 323.27 273.05 299.18 282.51C286.56 287.463 274.443 287.08 262.83 281.36C258.28 279.12 253.29 274.18 248.17 272.02C242.097 269.453 235.69 269.607 228.95 272.48C217.96 277.17 201.85 282.2 188.52 279.68C157.63 273.84 149.83 241.58 164.13 216.78C174.88 198.13 196.43 186.79 210.33 174.34C215.1 170.07 220.97 162.54 222.62 156.24C228.53 133.71 201.87 111.88 218.44 88.71C231.24 70.81 256.95 65.42 275.25 77.6C287.61 85.83 296 102.96 296.31 117.56C296.95 148.07 264.4 176.39 242.81 199.06C240.02 201.99 233.86 208.2 232.47 212.71C230.26 219.92 234.71 226.48 240.9 230.31Z" fill="white"/>
<path d="M293.53 146.51C308.19 121.3 340.65 114.89 366.71 122.76C384.48 128.13 393.26 141.08 391.73 159.7C390.04 180.13 373.52 195.72 357.8 206.8C348.84 213.11 360.16 221.87 367.02 221.72C376.44 221.5 382.77 214.51 387.19 206.97C396.66 190.82 403.85 176.28 425.93 177.83C434.83 178.45 435.97 184.94 435.37 192.67C431.7 239.69 376.17 262.5 335.98 252.33C316.773 247.477 302.757 236.26 293.93 218.68C283.29 197.49 281.3 167.55 293.53 146.51ZM327.29 165.76C313.4 172.97 324.05 187.1 332.1 176.37C334.36 173.37 336.35 171.09 339.92 169.36C344.33 167.21 357.22 161.85 351.85 154.59C350.08 152.18 347.85 152.91 345.67 154.48C339.817 158.673 333.69 162.433 327.29 165.76Z" fill="white"/>
</g>
<defs>
<clipPath id="clip0_2_78">
<rect width="700" height="482" fill="white"/>
</clipPath>
</defs>
</svg>
