<svg width="512" height="512" viewBox="0 0 512 512" fill="none" xmlns="http://www.w3.org/2000/svg">
<circle cx="256" cy="256" r="256" fill="#AC6DC1"/>
<path d="M205.212 181.873C219.319 141.433 189.154 114.248 152.025 108.797C113.028 103.063 74.6106 117.973 55.3603 153.589C35.3296 190.646 38.3922 253.588 87.0618 268.522C119.059 278.349 143.24 255.244 154.899 227.752C155.154 227.143 155.708 226.712 156.353 226.617C164.216 225.434 163.921 231.358 162.053 236.655C157.843 248.622 156.211 260.718 168.012 268.771C176.825 274.786 186.556 276.784 197.207 274.766C211.834 271.999 222.866 259.169 218.018 244.259C212.969 228.721 198.283 218.801 199.442 200.792C199.832 194.761 203.06 188.021 205.212 181.873Z" stroke="#D6B6E0" stroke-width="2"/>
<path d="M311.691 356.118C289.603 352.76 268.083 359.595 247.615 346.942C240.295 342.414 235.033 334.657 237.647 326.131C239.29 320.799 246.574 313.456 249.873 309.991C275.402 283.185 313.891 249.698 313.134 213.621C312.767 196.358 302.847 176.102 288.232 166.371C266.593 151.969 236.192 158.342 221.057 179.508C201.464 206.905 232.988 232.718 225.999 259.359C224.048 266.808 217.107 275.712 211.467 280.761C195.031 295.482 169.549 308.891 156.838 330.944C139.929 360.269 149.152 398.414 185.678 405.32C201.44 408.3 220.489 402.352 233.484 396.806C241.454 393.409 249.03 393.227 256.211 396.262C262.265 398.816 268.165 404.658 273.546 407.306C287.277 414.07 301.605 414.523 316.528 408.666C345.013 397.48 342.742 360.86 311.691 356.118Z" stroke="#D6B6E0" stroke-width="2"/>
<path d="M309.847 247.853C295.385 272.732 297.739 308.134 310.32 333.191C320.757 353.978 337.33 367.242 360.042 372.98C407.564 385.005 473.226 358.034 477.565 302.435C478.275 293.295 476.927 285.621 466.403 284.888C440.294 283.055 431.793 300.248 420.595 319.344C415.368 328.26 407.884 336.525 396.745 336.785C388.633 336.963 375.248 326.604 385.843 319.143C404.431 306.042 423.965 287.607 425.963 263.45C427.772 241.433 417.39 226.12 396.378 219.77C365.564 210.464 327.181 218.044 309.847 247.853Z" stroke="#D6B6E0" stroke-width="2"/>
<path d="M132.822 174.648C134.986 167.683 129.299 163.616 123.008 164.562C114.731 165.791 109.064 170.261 106.005 177.971C103.048 185.432 107.648 196.984 117.179 192.125C122.145 189.606 131.25 179.697 132.822 174.648Z" stroke="#D4B8DD" stroke-width="2"/>
<path d="M349.766 270.615C333.342 279.141 345.935 295.849 355.454 283.161C358.126 279.614 360.479 276.918 364.701 274.872C369.915 272.33 385.157 265.992 378.807 257.407C376.714 254.558 374.077 255.421 371.5 257.277C364.579 262.235 357.334 266.681 349.766 270.615Z" stroke="#D4B8DD" stroke-width="2"/>
<path d="M152.025 108.797C189.154 114.248 219.319 141.433 205.212 181.873C203.06 188.021 199.832 194.761 199.442 200.792C198.283 218.801 212.969 228.721 218.018 244.259C222.866 259.169 211.834 271.999 197.207 274.766C186.556 276.784 176.825 274.786 168.012 268.771C156.211 260.718 157.843 248.622 162.053 236.655C163.921 231.358 164.216 225.434 156.353 226.617C155.708 226.712 155.154 227.143 154.899 227.752C143.24 255.244 119.059 278.349 87.0618 268.522C38.3922 253.588 35.3296 190.646 55.3603 153.589C74.6106 117.973 113.028 103.063 152.025 108.797ZM132.822 174.648C134.986 167.683 129.299 163.616 123.008 164.562C114.731 165.791 109.064 170.261 106.005 177.971C103.048 185.432 107.648 196.984 117.179 192.124C122.145 189.606 131.25 179.697 132.822 174.648Z" fill="white"/>
<path d="M247.615 346.942C268.083 359.595 289.603 352.76 311.691 356.118C342.743 360.86 345.013 397.48 316.528 408.666C301.605 414.523 287.277 414.07 273.546 407.306C268.166 404.658 262.265 398.816 256.211 396.262C249.03 393.227 241.454 393.409 233.484 396.806C220.489 402.352 201.44 408.3 185.678 405.32C149.152 398.414 139.929 360.269 156.838 330.944C169.549 308.891 195.031 295.482 211.467 280.761C217.107 275.712 224.048 266.808 225.999 259.358C232.988 232.718 201.464 206.905 221.057 179.508C236.192 158.342 266.593 151.969 288.232 166.371C302.847 176.102 312.767 196.358 313.134 213.621C313.891 249.698 275.402 283.185 249.873 309.991C246.574 313.455 239.29 320.799 237.647 326.131C235.033 334.657 240.295 342.414 247.615 346.942Z" fill="white"/>
<path d="M309.847 247.853C327.182 218.044 365.564 210.464 396.378 219.77C417.39 226.12 427.772 241.433 425.963 263.45C423.965 287.607 404.431 306.042 385.843 319.143C375.248 326.604 388.633 336.963 396.745 336.785C407.884 336.525 415.368 328.26 420.595 319.344C431.793 300.248 440.294 283.055 466.403 284.888C476.927 285.621 478.275 293.295 477.565 302.435C473.226 358.034 407.564 385.005 360.042 372.98C337.33 367.242 320.757 353.978 310.32 333.191C297.739 308.134 295.385 272.732 309.847 247.853ZM349.766 270.615C333.342 279.141 345.935 295.849 355.454 283.161C358.126 279.614 360.479 276.918 364.701 274.872C369.915 272.33 385.157 265.992 378.807 257.407C376.714 254.558 374.077 255.421 371.5 257.277C364.579 262.235 357.334 266.681 349.766 270.615Z" fill="white"/>
</svg>
