<svg width="208" height="166" viewBox="0 0 208 166" fill="none" xmlns="http://www.w3.org/2000/svg">
<g clip-path="url(#clip0_1_1600)">
<path d="M95 1C102.92 1 110.84 1 119 1C119 1.66 119 2.32 119 3C120.32 3 121.64 3 123 3C123 3.66 123 4.32 123 5C124.98 5 126.96 5 129 5C129 5.66 129 6.32 129 7C130.32 7 131.64 7 133 7C133 7.66 133 8.32 133 9C133.66 9 134.32 9 135 9C135 12.96 135 16.92 135 21C134.34 21 133.68 21 133 21C133 21.66 133 22.32 133 23C132.34 23 131.68 23 131 23C131 23.66 131 24.32 131 25C130.34 25 129.68 25 129 25C129 25.66 129 26.32 129 27C128.34 27 127.68 27 127 27C127 27.66 127 28.32 127 29C125.68 29 124.36 29 123 29C123 29.66 123 30.32 123 31C120.36 31 117.72 31 115 31C115 30.34 115 29.68 115 29C114.34 29 113.68 29 113 29C113 29.66 113 30.32 113 31C109.7 31 106.4 31 103 31C103 31.66 103 32.32 103 33C101.02 33 99.04 33 97 33C97 34.32 97 35.64 97 37C102.94 37 108.88 37 115 37C115 36.34 115 35.68 115 35C118.96 35 122.92 35 127 35C127 34.34 127 33.68 127 33C128.98 33 130.96 33 133 33C133 32.34 133 31.68 133 31C134.98 31 136.96 31 139 31C139 31.66 139 32.32 139 33C140.32 33 141.64 33 143 33C143 32.34 143 31.68 143 31C145.64 31 148.28 31 151 31C151 31.66 151 32.32 151 33C154.3 33 157.6 33 161 33C161 33.66 161 34.32 161 35C161.66 35 162.32 35 163 35C163 35.66 163 36.32 163 37C164.32 37 165.64 37 167 37C167 37.66 167 38.32 167 39C168.32 39 169.64 39 171 39C171 39.66 171 40.32 171 41C171.66 41 172.32 41 173 41C173 42.98 173 44.96 173 47C173.66 47 174.32 47 175 47C175 50.96 175 54.92 175 59C174.34 59 173.68 59 173 59C173 59.66 173 60.32 173 61C172.34 61 171.68 61 171 61C171 61.66 171 62.32 171 63C169.68 63 168.36 63 167 63C167 63.66 167 64.32 167 65C165.02 65 163.04 65 161 65C161 65.66 161 66.32 161 67C160.34 67 159.68 67 159 67C159 67.66 159 68.32 159 69C157.02 69 155.04 69 153 69C153 68.34 153 67.68 153 67C152.34 67 151.68 67 151 67C151 67.66 151 68.32 151 69C148.36 69 145.72 69 143 69C143 69.66 143 70.32 143 71C142.34 71 141.68 71 141 71C141 70.34 141 69.68 141 69C139.68 69 138.36 69 137 69C137 69.66 137 70.32 137 71C133.04 71 129.08 71 125 71C125 70.34 125 69.68 125 69C123.02 69 121.04 69 119 69C119 69.66 119 70.32 119 71C118.34 71 117.68 71 117 71C117 71.66 117 72.32 117 73C119.64 73 122.28 73 125 73C125 73.66 125 74.32 125 75C126.98 75 128.96 75 131 75C131 74.34 131 73.68 131 73C137.6 73 144.2 73 151 73C151 73.66 151 74.32 151 75C151.66 75 152.32 75 153 75C153 75.66 153 76.32 153 77C154.98 77 156.96 77 159 77C159 77.66 159 78.32 159 79C159.66 79 160.32 79 161 79C161 83.62 161 88.24 161 93C160.34 93 159.68 93 159 93C159 93.66 159 94.32 159 95C158.34 95 157.68 95 157 95C157 96.32 157 97.64 157 99C155.02 99 153.04 99 151 99C151 99.66 151 100.32 151 101C149.02 101 147.04 101 145 101C145 101.66 145 102.32 145 103C142.36 103 139.72 103 137 103C137 103.66 137 104.32 137 105C135.02 105 133.04 105 131 105C131 104.34 131 103.68 131 103C130.34 103 129.68 103 129 103C129 103.66 129 104.32 129 105C127.68 105 126.36 105 125 105C125 106.32 125 107.64 125 109C125.66 109 126.32 109 127 109C127 109.66 127 110.32 127 111C128.98 111 130.96 111 133 111C133 111.66 133 112.32 133 113C136.96 113 140.92 113 145 113C145 112.34 145 111.68 145 111C152.92 111 160.84 111 169 111C169 110.34 169 109.68 169 109C169.66 109 170.32 109 171 109C171 109.66 171 110.32 171 111C172.98 111 174.96 111 177 111C177 110.34 177 109.68 177 109C177.66 109 178.32 109 179 109C179 109.66 179 110.32 179 111C179.66 111 180.32 111 181 111C181 110.34 181 109.68 181 109C181.66 109 182.32 109 183 109C183 109.66 183 110.32 183 111C184.98 111 186.96 111 189 111C189 111.66 189 112.32 189 113C190.32 113 191.64 113 193 113C193 113.66 193 114.32 193 115C194.32 115 195.64 115 197 115C197 115.66 197 116.32 197 117C197.66 117 198.32 117 199 117C199 117.66 199 118.32 199 119C199.66 119 200.32 119 201 119C201 119.66 201 120.32 201 121C202.32 121 203.64 121 205 121C205 122.32 205 123.64 205 125C205.66 125 206.32 125 207 125C208.523 128.047 208.142 131.221 208.133 134.562C208.134 135.31 208.135 136.057 208.136 136.826C208.136 138.407 208.135 139.987 208.13 141.567C208.125 143.99 208.13 146.413 208.137 148.836C208.136 150.37 208.135 151.904 208.133 153.438C208.135 154.165 208.137 154.892 208.139 155.641C208.115 160.77 208.115 160.77 207 163C205.68 163 204.36 163 203 163C203 163.66 203 164.32 203 165C199.7 165 196.4 165 193 165C193 164.34 193 163.68 193 163C190.36 163 187.72 163 185 163C185 163.66 185 164.32 185 165C177.08 165 169.16 165 161 165C161 164.34 161 163.68 161 163C156.38 163 151.76 163 147 163C147 163.66 147 164.32 147 165C143.7 165 140.4 165 137 165C137 164.34 137 163.68 137 163C136.34 163 135.68 163 135 163C135 163.66 135 164.32 135 165C133.68 165 132.36 165 131 165C131 164.34 131 163.68 131 163C130.34 163 129.68 163 129 163C129 163.66 129 164.32 129 165C123.66 166.104 118.507 166.141 113.083 166.129C112.1 166.131 111.117 166.133 110.104 166.135C106.864 166.139 103.623 166.136 100.383 166.133C98.1237 166.133 95.8646 166.134 93.6054 166.136C88.8729 166.137 84.1403 166.135 79.4077 166.13C73.353 166.125 67.2983 166.128 61.2436 166.134C56.5784 166.138 51.9132 166.136 47.248 166.134C45.0161 166.133 42.7843 166.134 40.5524 166.136C37.427 166.139 34.3017 166.135 31.1763 166.129C30.2607 166.131 29.3451 166.133 28.4018 166.136C23.1779 166.118 18.1703 165.756 13 165C13 164.34 13 163.68 13 163C11.68 163 10.36 163 9 163C9 162.34 9 161.68 9 161C8.34 161 7.68 161 7 161C7 159.68 7 158.36 7 157C6.34 157 5.68 157 5 157C5 155.68 5 154.36 5 153C4.34 153 3.68 153 3 153C3 147.72 3 142.44 3 137C2.34 137 1.68 137 1 137C1 135.68 1 134.36 1 133C1.66 133 2.32 133 3 133C3 131.68 3 130.36 3 129C2.34 129 1.68 129 1 129C1 127.68 1 126.36 1 125C1.66 125 2.32 125 3 125C3 117.08 3 109.16 3 101C3.66 101 4.32 101 5 101C5 100.34 5 99.68 5 99C4.34 99 3.68 99 3 99C3 98.34 3 97.68 3 97C3.66 97 4.32 97 5 97C5 95.68 5 94.36 5 93C4.34 93 3.68 93 3 93C3 91.68 3 90.36 3 89C3.66 89 4.32 89 5 89C5 85.7 5 82.4 5 79C5.66 79 6.32 79 7 79C7 75.7 7 72.4 7 69C7.66 69 8.32 69 9 69C9 67.02 9 65.04 9 63C9.66 63 10.32 63 11 63C11 61.02 11 59.04 11 57C11.66 57 12.32 57 13 57C13 55.02 13 53.04 13 51C13.66 51 14.32 51 15 51C15 49.68 15 48.36 15 47C15.66 47 16.32 47 17 47C17 45.02 17 43.04 17 41C17.66 41 18.32 41 19 41C19 40.34 19 39.68 19 39C19.66 39 20.32 39 21 39C21 37.68 21 36.36 21 35C21.66 35 22.32 35 23 35C23 34.34 23 33.68 23 33C23.66 33 24.32 33 25 33C25 32.34 25 31.68 25 31C25.66 31 26.32 31 27 31C27 30.34 27 29.68 27 29C27.66 29 28.32 29 29 29C29 28.34 29 27.68 29 27C29.66 27 30.32 27 31 27C31 25.68 31 24.36 31 23C32.32 23 33.64 23 35 23C35 22.34 35 21.68 35 21C36.32 21 37.64 21 39 21C39 19.68 39 18.36 39 17C40.98 17 42.96 17 45 17C45 16.34 45 15.68 45 15C46.32 15 47.64 15 49 15C49 14.34 49 13.68 49 13C50.32 13 51.64 13 53 13C53 12.34 53 11.68 53 11C53.66 11 54.32 11 55 11C55 10.34 55 9.68 55 9C56.98 9 58.96 9 61 9C61 8.34 61 7.68 61 7C62.98 7 64.96 7 67 7C67 6.34 67 5.68 67 5C70.96 5 74.92 5 79 5C79 4.34 79 3.68 79 3C84.28 3 89.56 3 95 3C95 2.34 95 1.68 95 1ZM87 11C87 11.66 87 12.32 87 13C81.72 13 76.44 13 71 13C71 13.66 71 14.32 71 15C69.68 15 68.36 15 67 15C67 15.66 67 16.32 67 17C65.68 17 64.36 17 63 17C63 17.66 63 18.32 63 19C60.36 19 57.72 19 55 19C55 19.66 55 20.32 55 21C53.68 21 52.36 21 51 21C51 21.66 51 22.32 51 23C50.34 23 49.68 23 49 23C49 23.66 49 24.32 49 25C48.34 25 47.68 25 47 25C47 25.66 47 26.32 47 27C45.02 27 43.04 27 41 27C41 28.32 41 29.64 41 31C39.68 31 38.36 31 37 31C37 31.66 37 32.32 37 33C36.34 33 35.68 33 35 33C35 34.32 35 35.64 35 37C34.34 37 33.68 37 33 37C33 37.66 33 38.32 33 39C32.34 39 31.68 39 31 39C31 39.66 31 40.32 31 41C30.34 41 29.68 41 29 41C29 42.32 29 43.64 29 45C28.34 45 27.68 45 27 45C27 46.32 27 47.64 27 49C26.34 49 25.68 49 25 49C25 50.98 25 52.96 25 55C24.34 55 23.68 55 23 55C23 56.32 23 57.64 23 59C22.34 59 21.68 59 21 59C21 60.32 21 61.64 21 63C20.34 63 19.68 63 19 63C19 66.3 19 69.6 19 73C18.34 73 17.68 73 17 73C17 76.3 17 79.6 17 83C16.34 83 15.68 83 15 83C15 90.26 15 97.52 15 105C14.34 105 13.68 105 13 105C13 118.2 13 131.4 13 145C13.66 145 14.32 145 15 145C15 146.98 15 148.96 15 151C15.66 151 16.32 151 17 151C17 152.98 17 154.96 17 157C19.64 157 22.28 157 25 157C25 156.34 25 155.68 25 155C25.66 155 26.32 155 27 155C27 155.66 27 156.32 27 157C31.62 157 36.24 157 41 157C41 156.34 41 155.68 41 155C41.66 155 42.32 155 43 155C43 155.66 43 156.32 43 157C48.28 157 53.56 157 59 157C59 156.34 59 155.68 59 155C60.32 155 61.64 155 63 155C63 155.66 63 156.32 63 157C63.66 157 64.32 157 65 157C65 156.34 65 155.68 65 155C67.64 155 70.28 155 73 155C73 155.66 73 156.32 73 157C74.98 157 76.96 157 79 157C79 156.34 79 155.68 79 155C86.26 155 93.52 155 101 155C101 154.34 101 153.68 101 153C101.66 153 102.32 153 103 153C103 153.66 103 154.32 103 155C104.32 155 105.64 155 107 155C107 154.34 107 153.68 107 153C110.3 153 113.6 153 117 153C117 153.66 117 154.32 117 155C117.66 155 118.32 155 119 155C119 154.34 119 153.68 119 153C126.92 153 134.84 153 143 153C143 153.66 143 154.32 143 155C147.62 155 152.24 155 157 155C157 154.34 157 153.68 157 153C157.66 153 158.32 153 159 153C159 153.66 159 154.32 159 155C159.66 155 160.32 155 161 155C161 154.34 161 153.68 161 153C172.88 153 184.76 153 197 153C197 148.38 197 143.76 197 139C196.34 139 195.68 139 195 139C195 135.7 195 132.4 195 129C194.34 129 193.68 129 193 129C193 127.68 193 126.36 193 125C191.68 125 190.36 125 189 125C189 124.34 189 123.68 189 123C187.68 123 186.36 123 185 123C185 122.34 185 121.68 185 121C177.74 121 170.48 121 163 121C163 121.66 163 122.32 163 123C156.4 123 149.8 123 143 123C143 122.34 143 121.68 143 121C142.34 121 141.68 121 141 121C141 121.66 141 122.32 141 123C139.02 123 137.04 123 135 123C135 122.34 135 121.68 135 121C133.68 121 132.36 121 131 121C131 121.66 131 122.32 131 123C129.68 123 128.36 123 127 123C127 122.34 127 121.68 127 121C125.02 121 123.04 121 121 121C121 120.34 121 119.68 121 119C119.68 119 118.36 119 117 119C117 118.34 117 117.68 117 117C116.34 117 115.68 117 115 117C115 116.34 115 115.68 115 115C114.34 115 113.68 115 113 115C113 113.02 113 111.04 113 109C112.34 109 111.68 109 111 109C111 107.68 111 106.36 111 105C111.66 105 112.32 105 113 105C113 103.68 113 102.36 113 101C113.66 101 114.32 101 115 101C115 99.68 115 98.36 115 97C116.32 97 117.64 97 119 97C119 96.34 119 95.68 119 95C120.98 95 122.96 95 125 95C125 94.34 125 93.68 125 93C131.6 93 138.2 93 145 93C145 92.34 145 91.68 145 91C145.66 91 146.32 91 147 91C147 90.34 147 89.68 147 89C147.66 89 148.32 89 149 89C149 87.68 149 86.36 149 85C137.78 85 126.56 85 115 85C115 84.34 115 83.68 115 83C114.34 83 113.68 83 113 83C113 82.34 113 81.68 113 81C111.68 81 110.36 81 109 81C109 80.34 109 79.68 109 79C108.34 79 107.68 79 107 79C107 78.34 107 77.68 107 77C106.34 77 105.68 77 105 77C105 76.34 105 75.68 105 75C104.34 75 103.68 75 103 75C103 72.36 103 69.72 103 67C103.66 67 104.32 67 105 67C105 66.34 105 65.68 105 65C105.66 65 106.32 65 107 65C107 63.68 107 62.36 107 61C108.32 61 109.64 61 111 61C111 60.34 111 59.68 111 59C116.28 59 121.56 59 127 59C127 58.34 127 57.68 127 57C127.66 57 128.32 57 129 57C129 57.66 129 58.32 129 59C136.26 59 143.52 59 151 59C151 58.34 151 57.68 151 57C153.64 57 156.28 57 159 57C159 56.34 159 55.68 159 55C159.66 55 160.32 55 161 55C161 54.34 161 53.68 161 53C161.66 53 162.32 53 163 53C163 51.02 163 49.04 163 47C162.34 47 161.68 47 161 47C161 46.34 161 45.68 161 45C159.68 45 158.36 45 157 45C157 44.34 157 43.68 157 43C155.02 43 153.04 43 151 43C151 42.34 151 41.68 151 41C148.36 41 145.72 41 143 41C143 41.66 143 42.32 143 43C140.36 43 137.72 43 135 43C135 43.66 135 44.32 135 45C133.68 45 132.36 45 131 45C131 44.34 131 43.68 131 43C130.34 43 129.68 43 129 43C129 43.66 129 44.32 129 45C127.68 45 126.36 45 125 45C125 45.66 125 46.32 125 47C119.72 47 114.44 47 109 47C109 47.66 109 48.32 109 49C106.36 49 103.72 49 101 49C101 48.34 101 47.68 101 47C97.04 47 93.08 47 89 47C89 46.34 89 45.68 89 45C88.34 45 87.68 45 87 45C87 44.34 87 43.68 87 43C86.34 43 85.68 43 85 43C85 42.34 85 41.68 85 41C84.34 41 83.68 41 83 41C83 40.34 83 39.68 83 39C82.34 39 81.68 39 81 39C81 36.36 81 33.72 81 31C81.66 31 82.32 31 83 31C83 30.34 83 29.68 83 29C83.66 29 84.32 29 85 29C85 28.34 85 27.68 85 27C85.66 27 86.32 27 87 27C87 26.34 87 25.68 87 25C87.66 25 88.32 25 89 25C89 24.34 89 23.68 89 23C91.64 23 94.28 23 97 23C97 22.34 97 21.68 97 21C102.94 21 108.88 21 115 21C115 20.34 115 19.68 115 19C116.98 19 118.96 19 121 19C121 18.34 121 17.68 121 17C121.66 17 122.32 17 123 17C123 15.02 123 13.04 123 11C111.12 11 99.24 11 87 11Z" fill="#0F6A5D"/>
</g>
<defs>
<clipPath id="clip0_1_1600">
<rect width="208" height="166" fill="white"/>
</clipPath>
</defs>
</svg>
