<svg
  version="1.2"
  xmlns="http://www.w3.org/2000/svg"
  viewBox="0 0 400 400"
  width="400"
  height="400"
>
  <style>
    .s0 {
      fill: #facc15;
    }
  </style>
  <path
    id="Path 0"
    fill-rule="evenodd"
    class="s0"
    d="m201.5 126c1.7-0.1 3.5 0.5 4.2 1.2 0.9 1 1.3 18.1 1.8 137.3l4.5 7.5h-18.8c-17.1 0.1-18.9-0.1-23.7-3.8l-0.5-59c-0.5-57.2-0.6-59.1-2.5-61.1-1.1-1.2-2.8-2.4-3.8-2.6-0.9-0.3-1.7-1.2-1.7-2 0-0.9 3.5-3.1 8.8-5.6 4.8-2.3 13.2-5.9 18.7-8 5.5-2.1 11.3-3.9 13-3.9zm136 0c2.6 0 5.7 1 9 2.9 2.7 1.5 6.2 4.6 7.7 6.7 1.5 2.2 3.2 5.5 3.8 7.4 0.6 1.9 1.1 7.2 1 11.7 0 4.6-0.7 11.8-1.6 16-0.9 4.3-4 15-7 23.8-3.1 8.8-6.6 19.8-7.8 24.5-1.3 4.7-3 8.9-3.7 9.4-0.8 0.5-2.2 0.6-3.2 0.3-1-0.4-2.1-2.5-2.7-5-0.5-2.3-4.1-13.7-8-25.2-3.8-11.6-7.7-25.3-8.6-30.5-0.9-5.7-1.4-12.5-1.2-17 0.3-4.9 1.2-8.9 2.5-11.5 1.2-2.2 3.6-5.4 5.5-7.2 1.8-1.8 4.9-3.9 6.8-4.7 1.9-0.8 5.3-1.5 7.5-1.6zm-265.3 2h31.4c17.3 0 31.4 0.1 31.4 0.2 0 0.2-0.6 1.6-1.5 3.3-0.8 1.6-1.5 4.3-1.5 6 0 1.6 1.8 12.4 4 24 2.1 11.5 5.5 28 7.5 36.5 2 8.5 6.1 24.3 9.1 35 3.1 10.7 6.5 22 7.6 25 1.2 3 3.4 7.4 7.8 14h-59l2.3-3.8c1.8-3.1 2.2-5.1 2.2-12.7 0-5-0.9-14.7-4-34.5h-10.2c-9.3 0-10.3 0.2-9.9 1.7 0.2 1 2.1 6.5 4.1 12.3 2.5 7.1 3.9 13 4.3 18 0.3 4.3 0 9.1-0.7 11.2-0.6 2.1-2.3 4.7-3.8 5.8-2.7 2-4.2 2.1-54.8 2.1l2.2-2.3c1.2-1.3 3.3-4.8 4.7-7.8 1.4-3 4.1-10.9 6.1-17.5 2-6.6 5.9-20.6 8.6-31 2.7-10.5 6.9-29.4 9.5-42 2.5-12.7 4.8-26.2 5.1-30 0.5-5.2 0.2-7.8-0.9-10.3zm7.1 34.3c-1.1 2.1-1.9 6.7-2.2 13.2-0.3 8.2 0 11.7 1.8 19 1.3 5 3.2 11.4 4.4 14.3l2.1 5.3 22.5-0.1c-1-5.8-2.9-14.2-5-22.5-2-8.2-5.1-18.3-6.8-22.5-1.7-4.1-4.2-8.7-5.6-10.2-1.4-1.5-3.1-2.8-3.8-2.8-0.7 0-2.3 0.7-3.5 1.5-1.3 0.9-3 3-3.9 4.8zm188.1 6.8c3.3 0 8.7 0.6 12 1.5 3.3 0.8 8.5 3 11.4 4.7 3.5 2.1 7 5.4 9.8 9.2 2.5 3.3 5.1 8.3 5.9 11 0.8 2.8 1.5 8 1.5 11.5 0 5.1-0.5 7.3-2.3 10-1.3 2.1-4.4 4.6-7.3 6-4.8 2.5-5.7 2.6-49.5 3l0.1 2.3c0 1.3 1.6 3.6 3.7 5.5 2.1 1.8 7.3 5.1 11.7 7.3 4.4 2.2 10.5 4.7 13.5 5.5 3.1 0.8 7.6 1.4 10 1.5 2.5 0 6.1-0.5 8-1.2 2-0.6 5-2.2 6.8-3.5 1.8-1.3 3.9-2.4 4.7-2.4 1 0 1.5 1 1.5 2.8 0.1 1.5-0.6 4.8-1.4 7.2-0.8 2.5-3.5 6.8-5.9 9.5-2.4 2.8-7 6.5-10.3 8.2-3.2 1.7-8.2 3.6-11.1 4.2-2.9 0.7-8.1 1.2-11.5 1.2-3.5 0-9-0.7-12.3-1.6-3.3-0.8-8.9-2.9-12.4-4.7-3.7-1.9-9-5.8-12.5-9.3-3.3-3.3-7.5-8.7-9.2-12-1.7-3.3-3.7-8.4-4.4-11.5-0.8-3.5-1.1-9.2-0.7-16 0.4-7.8 1.2-12.2 3.1-17.5 1.4-3.8 4.3-9.4 6.4-12.4 2-3 6-7.2 8.7-9.4 2.8-2.2 7.1-4.8 9.5-5.9 2.5-1.1 7.2-2.6 10.5-3.3 3.3-0.7 8.7-1.3 12-1.4zm-32.1 21.8c-1.8 2.4-2.4 4.5-2.4 8.4 0 3.6 0.8 6.9 2.5 10.5 2 4.2 3.4 5.7 6.8 7.2 2.6 1.3 6.4 2 9.7 2 3.1 0 8.5-0.4 12-1 3.6-0.6 7.9-1.9 9.5-2.8 1.7-1 3.6-3 4.3-4.5 0.9-2 1-3.7 0.2-6.9-0.6-2.3-2.3-5.8-3.8-7.8-1.6-1.9-5.7-5-9.3-6.9-5.1-2.7-7.7-3.5-13.4-3.8-4.4-0.2-8.2 0.2-10.4 1.1-1.8 0.8-4.4 2.8-5.7 4.5zm101.9 46.2c2.7 0 6.4 0.8 8.7 1.9 2.3 1.2 5.2 3.9 6.8 6.2 2.2 3.5 2.7 5.3 2.7 10.3 0 5-0.5 6.8-3 10.4-1.7 2.5-4.7 5.1-7 6.2-2.2 1.1-5.9 1.9-8.2 1.9-2.4 0-5.5-0.4-7-1-1.5-0.6-4-2.3-5.6-3.8-1.6-1.4-3.5-4-4.4-5.7-0.9-1.6-1.6-5.2-1.6-8 0-3.5 0.7-6.2 2.5-9.5 1.7-3 3.9-5.2 6.9-6.7 2.8-1.4 6.2-2.2 9.2-2.2z"
  />
</svg>
