<svg width="256" height="258" viewBox="0 0 256 258" fill="none" xmlns="http://www.w3.org/2000/svg">
<rect width="256" height="256" fill="white"/>
<rect width="128" height="178.424" fill="#013070"/>
<path d="M78.853 110.06C78.853 116.057 73.7894 120.987 67.7931 120.987H55.1343V99.1339H67.7931C73.7894 99.1339 78.853 104.197 78.853 110.06ZM72.5902 72.2172C72.5902 77.947 67.7931 82.744 62.0633 82.744H55.1343V61.6903H62.0633C67.7931 61.6903 72.5902 66.3541 72.5902 72.2172ZM99.2404 110.593C99.2404 98.3344 90.9788 90.2061 80.8517 87.8075C87.6475 84.7428 91.6451 77.8137 91.6451 68.6194C91.6451 56.227 81.7845 45.9667 66.3274 45.9667H35.1466V136.577H71.7907C89.1133 136.577 99.2404 126.184 99.2404 110.593Z" fill="white"/>
<path d="M227.838 136.051V45.4398H207.85V101.938L176.67 45.4398H156.682V136.051H176.67V79.552L207.85 136.051H227.838Z" fill="#013070"/>
<path d="M45.2174 256.475L45.2174 244.688H27.3646L33.6044 236.889C38.7176 230.476 44.2641 224.756 44.2641 215.829C44.2641 204.39 36.551 196.677 25.1114 196.677C12.4585 196.677 5.87205 206.383 5.61206 217.736H17.8316C18.0916 211.583 20.9515 208.983 25.198 208.983C29.0979 208.983 31.8711 211.583 31.8711 215.829C31.8711 219.816 28.2313 223.716 25.8914 226.662L2.57883 256.475H45.2174ZM94.8411 208.463C103.421 208.463 105.501 219.643 105.501 227.269C105.501 235.069 103.074 245.728 94.8411 245.728C86.4347 245.728 84.1815 235.242 84.1815 227.096C84.1815 219.643 86.4347 208.463 94.8411 208.463ZM94.8411 257.515C111.827 257.515 118.5 239.489 118.5 227.182C118.5 216.523 112.867 196.677 94.8411 196.677C76.8151 196.677 71.1819 216.523 71.1819 227.182C71.1819 239.489 77.855 257.515 94.8411 257.515ZM182.39 256.475V244.688H164.537L170.777 236.889C175.89 230.476 181.436 224.756 181.436 215.829C181.436 204.39 173.723 196.677 162.284 196.677C149.631 196.677 143.044 206.383 142.784 217.736H155.004C155.264 211.583 158.124 208.983 162.37 208.983C166.27 208.983 169.043 211.583 169.043 215.829C169.043 219.816 165.404 223.716 163.064 226.662L139.751 256.475H182.39ZM206.621 239.142C207.228 252.662 217.194 257.341 228.287 257.341C239.727 257.341 249 250.235 249 237.929C249 232.382 246.746 227.009 241.026 224.323C244.32 221.983 246.4 217.303 246.4 213.663C246.4 201.79 237.647 196.677 227.074 196.677C216.934 196.677 208.354 202.917 207.661 214.356H220.747C221.094 210.283 223.174 208.116 227.42 208.116C230.887 208.116 233.573 210.196 233.573 213.663C233.573 217.389 231.927 220.249 227.94 220.249H222.567V230.302H227.94C232.793 230.302 236.087 232.729 236.087 237.929C236.087 242.175 232.793 245.642 228.46 245.642C223.78 245.642 220.66 243.995 219.707 239.142H206.621Z" fill="#013070"/>
</svg>
