<svg width="1390" height="1390" viewBox="0 0 1390 1390" fill="none" xmlns="http://www.w3.org/2000/svg">
<path d="M661.119 57.6388C991.119 44.4388 1138.45 239.639 1159.62 287.639C1394.62 625.639 1309.03 965.362 1187.12 1098.64C1010.12 1292.14 802.119 1363.77 520.12 1320.14C38.6196 1245.64 63.1196 705.639 99.1196 545.139C135.12 384.639 248.619 74.1388 661.119 57.6388Z" fill="white"/>
<path d="M1017.09 928.52C980.985 928.52 953.355 920.828 934.203 905.444C915.051 890.06 903.121 868.396 898.411 840.453C897.155 832.29 895.899 823.655 894.644 814.55C893.388 805.445 892.289 795.869 891.347 785.822C890.405 775.775 889.463 765.258 888.521 754.269C887.893 743.28 887.265 731.663 886.637 719.418C886.323 707.174 886.01 694.458 885.696 681.271C885.382 667.771 885.225 653.642 885.225 638.886C885.225 612.826 883.184 593.988 879.102 582.372C875.021 570.755 865.131 564.946 849.432 564.946C834.362 564.946 819.448 566.045 804.692 568.243C789.936 570.441 774.394 571.54 758.068 571.54C741.114 571.54 725.886 567.458 712.386 559.295C699.199 551.132 688.838 539.515 681.303 524.445C673.768 509.06 670 491.164 670 470.756C670 447.523 678.32 427.743 694.96 411.416C711.601 394.776 733.735 381.119 761.364 370.444C788.994 359.769 819.448 351.449 852.729 345.483C886.323 339.204 920.232 334.965 954.454 332.768C988.677 330.256 1020.23 329 1049.12 329C1081.14 329 1113.32 329.628 1145.66 330.884C1178 331.826 1208.77 334.651 1237.97 339.361C1267.17 343.756 1293.07 350.978 1315.67 361.025C1338.28 370.758 1356.18 384.258 1369.36 401.526C1382.55 418.795 1389.14 440.929 1389.14 467.931C1389.14 491.792 1385.53 512.357 1378.31 529.625C1371.09 546.579 1360.26 559.609 1345.81 568.714C1331.69 577.819 1313.95 582.372 1292.6 582.372C1274.07 582.372 1261.67 582.372 1255.39 582.372C1249.11 582.058 1240.95 581.901 1230.9 581.901C1218.34 581.901 1208.77 584.255 1202.17 588.965C1195.9 593.674 1191.5 601.524 1188.99 612.512C1186.48 623.187 1184.44 637.944 1182.87 656.782C1181.92 667.143 1180.82 677.661 1179.57 688.336C1178.63 698.696 1177.37 709.214 1175.8 719.889C1174.23 730.25 1172.35 740.611 1170.15 750.972C1168.27 761.019 1166.07 770.909 1163.56 780.642C1161.36 790.061 1158.85 799.166 1156.02 807.957C1153.51 816.434 1150.53 824.44 1147.07 831.976C1143.93 839.511 1140.64 846.261 1137.18 852.226C1126.82 869.809 1116.78 884.251 1107.04 895.554C1097.31 906.857 1085.54 915.177 1071.72 920.514C1057.91 925.852 1039.7 928.52 1017.09 928.52Z" fill="black"/>
<path d="M411.552 1060C380.756 1060 356.959 1053.42 340.161 1040.26C323.829 1027.1 309.598 1009.71 297.466 988.084C295.599 984.793 293.966 981.503 292.566 978.213C291.166 974.922 289.766 971.632 288.367 968.342C287.433 965.051 286.5 961.761 285.567 958.471C285.1 954.71 284.4 951.185 283.467 947.895C278.801 923.923 272.502 906.531 264.569 895.72C256.637 884.909 245.905 878.093 232.373 875.273C218.841 871.983 200.877 870.338 178.479 870.338C170.08 870.338 161.915 870.103 153.982 869.633C146.05 869.163 138.351 868.693 130.885 868.223C123.419 867.282 115.953 866.107 108.487 864.697C101.488 862.817 94.7224 860.937 88.1898 859.057C62.5261 851.066 41.2952 838.14 24.4972 820.278C8.16572 801.946 0 777.034 0 745.541C0 724.389 6.76588 706.528 20.2977 691.956C33.8294 677.385 51.0941 665.869 72.0917 657.408C93.0892 648.947 114.787 643.777 137.184 641.897C154.915 640.017 170.547 638.371 184.079 636.961C198.077 635.081 209.976 632.731 219.775 629.911C230.04 627.09 238.439 623.565 244.972 619.335C253.837 613.694 260.137 605.938 263.869 596.068C267.602 585.727 269.702 572.8 270.169 557.289C270.635 550.238 271.102 543.658 271.569 537.547C272.035 531.437 272.735 525.561 273.668 519.92C275.068 514.28 276.468 509.11 277.868 504.409C279.268 499.239 280.901 494.538 282.767 490.308C295.832 462.105 311.931 443.303 331.062 433.903C350.659 424.502 382.389 419.801 426.251 419.801C449.581 419.801 471.046 424.502 490.643 433.903C510.708 442.833 525.173 453.409 534.038 465.631C537.771 470.331 540.571 475.501 542.437 481.142C544.77 486.312 546.403 492.188 547.337 498.769C548.737 504.879 549.67 511.46 550.136 518.51C550.603 525.091 550.836 532.142 550.836 539.662C550.836 559.874 554.103 578.206 560.635 594.657C567.634 611.109 578.366 619.805 592.831 620.745C607.763 622.155 623.161 623.8 639.026 625.68C654.891 627.56 670.289 629.911 685.221 632.731C700.619 635.551 714.851 638.841 727.916 642.602C740.981 646.362 751.946 650.358 760.812 654.588C784.143 665.869 799.307 680.675 806.307 699.007C813.306 716.869 816.806 734.495 816.806 751.887C816.806 775.389 811.439 793.956 800.707 807.587C790.442 820.748 773.877 831.324 751.013 839.315C734.682 844.955 718.35 849.421 702.019 852.711C686.154 856.001 669.823 858.352 653.024 859.762C636.226 860.702 618.495 861.642 599.831 862.582C582.099 863.052 567.168 868.928 555.036 880.209C542.904 891.02 536.838 911.467 536.838 941.549C536.838 949.07 536.371 956.356 535.438 963.406C534.971 970.457 534.038 977.038 532.638 983.148C531.239 989.259 529.605 994.899 527.739 1000.07C526.339 1004.77 524.706 1008.53 522.84 1011.35C514.44 1024.51 499.742 1036.03 478.745 1045.9C458.214 1055.3 435.816 1060 411.552 1060Z" fill="black"/>
</svg>
