<svg width="1279" height="776" viewBox="0 0 1279 776" fill="none" xmlns="http://www.w3.org/2000/svg">
<g clip-path="url(#clip0_702_29)">
<path d="M629.203 248.686C649.904 249.54 679.924 242.07 698.206 243.707C748.23 248.184 725.355 394.075 735.197 451.781C744.738 507.725 791.644 518.293 824.829 518.293C858.014 518.293 872.767 514.256 892.764 493.396C915.406 469.776 928.619 438.201 935.446 406.609C943.271 370.401 948.82 308.583 954.653 279.631C962.657 239.902 1029.93 261.096 1073.1 246.552C1100.75 237.236 1107.68 197.137 1105.82 170.436C1099.37 78.1886 997.069 68.6798 921.93 66.9324C879.106 65.9365 821.77 66.15 777.523 68.3552C709.06 71.7674 573.492 83.1825 562.691 172.57C557.861 212.542 589.78 247.06 629.203 248.686Z" fill="url(#paint0_radial_702_29)"/>
<path d="M168.682 511.966C200.081 520.273 217.705 515.267 241.281 519.953C279.689 527.587 274.241 598.361 290.441 629.337C311.391 669.396 341.502 683.652 376.605 683.652C411.707 683.652 446.016 678.698 460.653 646.91C483.953 596.306 461.022 522.425 518.8 510.368C548.402 504.191 581.672 501.103 612.015 492.796C645.638 483.591 659.923 461.303 661.704 426.766C663.355 394.749 647.605 368.712 619.415 353.282C601.125 343.271 587.699 341.887 562.325 336.775C536.952 331.663 532.333 333.473 513.514 327.722C474.354 315.755 486.182 245.509 479.155 211.416C470.684 170.322 425.935 151.776 387.705 151.776C340.263 151.776 298.979 157.63 279.34 205.026C267.039 234.714 282.441 316.535 250.796 326.657C221.828 335.923 175.131 344.443 141.194 355.412C111.755 364.928 85.6448 388.277 86.7476 421.974C87.3819 441.357 88.862 460.42 105.249 478.419C121.636 496.417 137.283 503.659 168.682 511.966Z" fill="url(#paint1_radial_702_29)"/>
<path d="M647.276 661V581.8H662.516V661H647.276ZM624.476 594.76V581.8H685.196V594.76H624.476ZM703.913 662.56C700.473 662.56 697.353 661.96 694.553 660.76C691.833 659.48 689.673 657.56 688.073 655C686.473 652.36 685.673 649.12 685.673 645.28C685.673 641.12 686.553 637.8 688.313 635.32C690.073 632.84 692.353 630.92 695.153 629.56C698.033 628.12 701.113 627.08 704.393 626.44C707.673 625.72 710.873 625.12 713.993 624.64C717.353 624.16 719.953 623.72 721.793 623.32C723.633 622.84 724.913 622.2 725.633 621.4C726.433 620.6 726.833 619.48 726.833 618.04C726.833 616.2 726.393 614.6 725.513 613.24C724.713 611.8 723.473 610.68 721.793 609.88C720.193 609.08 718.193 608.68 715.793 608.68C713.553 608.68 711.393 609.08 709.313 609.88C707.233 610.68 705.433 611.96 703.913 613.72C702.473 615.48 701.553 617.8 701.153 620.68L687.593 617.56C688.153 613.88 689.273 610.76 690.953 608.2C692.633 605.56 694.713 603.4 697.193 601.72C699.753 599.96 702.593 598.68 705.713 597.88C708.913 597.08 712.313 596.68 715.913 596.68C720.553 596.68 724.513 597.32 727.793 598.6C731.153 599.8 733.833 601.6 735.833 604C737.913 606.4 739.393 609.28 740.273 612.64C741.233 615.92 741.713 619.64 741.713 623.8V635.32C741.793 638.12 741.873 640.96 741.953 643.84C742.033 646.72 742.113 649.6 742.193 652.48C742.353 655.36 742.513 658.2 742.673 661H729.233C729.073 658.44 728.913 655.76 728.753 652.96C728.673 650.16 728.593 647.28 728.513 644.32H726.953C726.073 647.68 724.593 650.76 722.513 653.56C720.433 656.28 717.833 658.48 714.713 660.16C711.593 661.76 707.993 662.56 703.913 662.56ZM709.673 651.28C711.353 651.28 713.073 650.96 714.833 650.32C716.593 649.68 718.273 648.72 719.873 647.44C721.553 646.16 722.993 644.56 724.193 642.64C725.473 640.64 726.433 638.32 727.073 635.68L726.953 627.76L729.953 627.88C728.753 629.08 727.193 630 725.273 630.64C723.433 631.2 721.393 631.68 719.153 632.08C716.993 632.4 714.793 632.76 712.553 633.16C710.393 633.56 708.393 634.12 706.553 634.84C704.713 635.56 703.233 636.56 702.113 637.84C701.073 639.12 700.553 640.84 700.553 643C700.553 645.56 701.393 647.6 703.073 649.12C704.753 650.56 706.953 651.28 709.673 651.28ZM755.47 661V576.64H770.47V661H755.47ZM785.001 661V576.64H800.001V661H785.001ZM836.98 681.4C833.94 681.4 830.86 681.08 827.74 680.44C824.62 679.88 821.66 678.96 818.86 677.68C816.06 676.4 813.66 674.8 811.66 672.88L816.7 659.68C819.1 662.4 822.06 664.4 825.58 665.68C829.18 667.04 832.78 667.72 836.38 667.72C840.14 667.72 843.26 667.08 845.74 665.8C848.22 664.6 850.22 662.88 851.74 660.64C853.26 658.4 854.34 655.76 854.98 652.72C855.7 649.68 856.06 646.36 856.06 642.76L856.9 631.48H854.86C854.22 637.16 852.98 641.76 851.14 645.28C849.3 648.72 846.94 651.24 844.06 652.84C841.26 654.44 838.02 655.24 834.34 655.24C830.34 655.24 827.06 654.48 824.5 652.96C821.94 651.36 819.9 649.32 818.38 646.84C816.94 644.36 815.86 641.72 815.14 638.92C814.5 636.04 814.1 633.36 813.94 630.88C813.78 628.32 813.7 626.2 813.7 624.52V598.36H828.82V620.32C828.82 621.76 828.82 623.48 828.82 625.48C828.9 627.4 829.1 629.36 829.42 631.36C829.82 633.28 830.42 635.08 831.22 636.76C832.02 638.44 833.1 639.8 834.46 640.84C835.9 641.8 837.74 642.28 839.98 642.28C842.38 642.28 844.42 641.6 846.1 640.24C847.86 638.88 849.26 637.04 850.3 634.72C851.42 632.32 852.22 629.68 852.7 626.8C853.18 623.84 853.46 620.84 853.54 617.8V598.36H868.66V643.36C868.66 646 868.5 648.76 868.18 651.64C867.86 654.52 867.3 657.4 866.5 660.28C865.7 663.08 864.54 665.72 863.02 668.2C861.5 670.76 859.58 673.04 857.26 675.04C855.02 677.04 852.22 678.6 848.86 679.72C845.5 680.84 841.54 681.4 836.98 681.4ZM905.527 662.32C902.007 662.32 899.007 661.84 896.527 660.88C894.127 659.92 892.127 658.52 890.527 656.68C888.927 654.76 887.767 652.48 887.047 649.84C886.327 647.12 885.967 644.08 885.967 640.72V610.48H877.447L877.687 599.08H882.247C885.047 598.92 887.087 598.24 888.367 597.04C889.727 595.84 890.527 593.92 890.767 591.28L891.847 584.32H900.727V598.36H916.927V610.84H900.727V640C900.727 643.28 901.487 645.52 903.007 646.72C904.607 647.92 906.607 648.52 909.007 648.52C910.367 648.52 911.767 648.36 913.207 648.04C914.647 647.64 915.967 647.04 917.167 646.24V660.4C914.847 661.2 912.727 661.72 910.807 661.96C908.887 662.2 907.127 662.32 905.527 662.32ZM954.883 662.56C948.803 662.56 943.403 661.32 938.683 658.84C934.043 656.36 930.363 652.68 927.643 647.8C925.003 642.84 923.683 636.76 923.683 629.56C923.683 622.12 925.043 616 927.763 611.2C930.483 606.32 934.163 602.68 938.803 600.28C943.523 597.88 948.843 596.68 954.763 596.68C960.843 596.68 966.203 597.92 970.843 600.4C975.563 602.88 979.243 606.56 981.883 611.44C984.603 616.32 985.963 622.44 985.963 629.8C985.963 637.24 984.603 643.4 981.883 648.28C979.163 653.08 975.443 656.68 970.723 659.08C966.003 661.4 960.723 662.56 954.883 662.56ZM955.243 651.04C957.323 651.04 959.283 650.68 961.123 649.96C963.043 649.16 964.683 647.96 966.043 646.36C967.483 644.76 968.603 642.64 969.403 640C970.203 637.36 970.603 634.2 970.603 630.52C970.603 626.68 970.163 623.4 969.283 620.68C968.403 617.88 967.203 615.6 965.683 613.84C964.243 612.08 962.523 610.8 960.523 610C958.603 609.2 956.523 608.8 954.283 608.8C952.283 608.8 950.363 609.2 948.523 610C946.683 610.72 945.043 611.88 943.603 613.48C942.163 615.08 941.043 617.2 940.243 619.84C939.443 622.48 939.043 625.64 939.043 629.32C939.043 633.16 939.443 636.48 940.243 639.28C941.123 642 942.323 644.24 943.843 646C945.363 647.68 947.083 648.96 949.003 649.84C950.923 650.64 953.003 651.04 955.243 651.04ZM997.462 679.96V627.64V598.36H1010.54L1010.18 616.36L1011.86 616.48C1012.74 612.08 1014.06 608.44 1015.82 605.56C1017.66 602.6 1019.98 600.4 1022.78 598.96C1025.66 597.44 1028.98 596.68 1032.74 596.68C1038.1 596.68 1042.66 598 1046.42 600.64C1050.26 603.28 1053.18 607.08 1055.18 612.04C1057.18 617 1058.18 622.88 1058.18 629.68C1058.18 636.4 1057.18 642.24 1055.18 647.2C1053.26 652.08 1050.46 655.88 1046.78 658.6C1043.1 661.24 1038.66 662.56 1033.46 662.56C1029.38 662.56 1025.94 661.76 1023.14 660.16C1020.34 658.48 1018.02 656.12 1016.18 653.08C1014.42 650.04 1013.06 646.48 1012.1 642.4H1010.18C1010.66 644.88 1011.06 647.32 1011.38 649.72C1011.78 652.12 1012.1 654.48 1012.34 656.8C1012.58 659.04 1012.7 661.2 1012.7 663.28V679.96H997.462ZM1028.42 650.08C1031.46 650.08 1034.02 649.24 1036.1 647.56C1038.18 645.8 1039.74 643.4 1040.78 640.36C1041.9 637.32 1042.46 633.8 1042.46 629.8C1042.46 625.72 1041.9 622.2 1040.78 619.24C1039.66 616.2 1038.02 613.84 1035.86 612.16C1033.78 610.48 1031.26 609.64 1028.3 609.64C1025.74 609.64 1023.46 610.2 1021.46 611.32C1019.54 612.44 1017.9 613.96 1016.54 615.88C1015.26 617.72 1014.26 619.76 1013.54 622C1012.9 624.24 1012.58 626.52 1012.58 628.84V630.52C1012.58 632.28 1012.78 634.08 1013.18 635.92C1013.66 637.68 1014.34 639.4 1015.22 641.08C1016.1 642.76 1017.14 644.28 1018.34 645.64C1019.62 647 1021.1 648.08 1022.78 648.88C1024.46 649.68 1026.34 650.08 1028.42 650.08Z" fill="url(#paint2_radial_702_29)"/>
</g>
<defs>
<radialGradient id="paint0_radial_702_29" cx="0" cy="0" r="1" gradientUnits="userSpaceOnUse" gradientTransform="translate(587.501 271.402) scale(519.766 623.48)">
<stop stop-color="#F1BBFF"/>
<stop offset="1" stop-color="#1F5EFF"/>
</radialGradient>
<radialGradient id="paint1_radial_702_29" cx="0" cy="0" r="1" gradientUnits="userSpaceOnUse" gradientTransform="translate(595.094 304.503) rotate(121.876) scale(418 533.451)">
<stop stop-color="#A9F7AD"/>
<stop offset="1" stop-color="#0092B3"/>
</radialGradient>
<radialGradient id="paint2_radial_702_29" cx="0" cy="0" r="1" gradientUnits="userSpaceOnUse" gradientTransform="translate(726.682 215) rotate(76.0427) scale(480.177 1791.33)">
<stop stop-color="white"/>
<stop offset="1" stop-color="#242424"/>
</radialGradient>
<clipPath id="clip0_702_29">
<rect width="1279" height="776" fill="white"/>
</clipPath>
</defs>
</svg>
